RobotoSerifDisplay-RegularConditalic.ufo
<glyph name="quotesingle" format="2">
  <advance width="162"/>
  <unicode hex="0027"/>
  <outline>
    <contour>
      <point x="140" y="710" type="line"/>
      <point x="131" y="635"/>
      <point x="99" y="579"/>
      <point x="86" y="469" type="curve"/>
      <point x="63" y="469" type="line"/>
      <point x="76" y="579"/>
      <point x="59" y="634"/>
      <point x="69" y="710" type="curve"/>
    </contour>
  </outline>
</glyph>
<glyph name="asterisk" format="2">
  <advance width="256"/>
  <unicode hex="002A"/>
  <outline>
    <contour>
      <point x="38" y="604" type="curve"/>
      <point x="71" y="663" type="line"/>
      <point x="97" y="639"/>
      <point x="105" y="605"/>
      <point x="144" y="565" type="curve"/>
      <point x="135" y="548" type="line"/>
      <point x="93" y="581"/>
      <point x="65" y="580"/>
    </contour>
    <contour>
      <point x="45" y="450" type="curve"/>
      <point x="26" y="509" type="line"/>
      <point x="58" y="533"/>
      <point x="86" y="532"/>
      <point x="137" y="565" type="curve"/>
      <point x="141" y="548" type="line"/>
      <point x="93" y="508"/>
      <point x="77" y="475"/>
    </contour>
    <contour>
      <point x="145" y="402" type="curve"/>
      <point x="95" y="402" type="line"/>
      <point x="101" y="451"/>
      <point x="120" y="483"/>
      <point x="132" y="556" type="curve"/>
      <point x="146" y="556" type="line"/>
      <point x="139" y="483"/>
      <point x="152" y="451"/>
    </contour>
    <contour>
      <point x="134" y="710" type="curve"/>
      <point x="184" y="710" type="line"/>
      <point x="178" y="661"/>
      <point x="159" y="629"/>
      <point x="147" y="556" type="curve"/>
      <point x="133" y="556" type="line"/>
      <point x="139" y="629"/>
      <point x="127" y="661"/>
    </contour>
    <contour>
      <point x="208" y="449" type="line"/>
      <point x="181" y="474"/>
      <point x="173" y="507"/>
      <point x="134" y="547" type="curve"/>
      <point x="144" y="564" type="line"/>
      <point x="186" y="531"/>
      <point x="213" y="532"/>
      <point x="240" y="508" type="curve"/>
    </contour>
    <contour>
      <point x="252" y="603" type="line"/>
      <point x="220" y="579"/>
      <point x="192" y="580"/>
      <point x="142" y="547" type="curve"/>
      <point x="137" y="564" type="line"/>
      <point x="186" y="604"/>
      <point x="201" y="637"/>
      <point x="234" y="662" type="curve"/>
    </contour>
  </outline>
</glyph>
<glyph name="slash" format="2">
  <advance width="296"/>
  <unicode hex="002F"/>
  <outline>
    <contour>
      <point x="317" y="749" type="line"/>
      <point x="-53" y="-129" type="line"/>
      <point x="-22" y="-129" type="line"/>
      <point x="348" y="749" type="line"/>
    </contour>
  </outline>
</glyph>
<glyph name="one" format="2">
  <advance width="393"/>
  <unicode hex="0031"/>
  <outline>
    <contour>
      <point x="229" y="71" type="curve" smooth="yes"/>
      <point x="296" y="609" type="line"/>
      <point x="245" y="609" type="line"/>
      <point x="211" y="551"/>
      <point x="159" y="527"/>
      <point x="84" y="526" type="curve"/>
      <point x="76" y="468" type="line"/>
      <point x="135" y="467"/>
      <point x="199" y="516"/>
      <point x="219" y="568" type="curve"/>
      <point x="208" y="555" type="line"/>
      <point x="149" y="71" type="line" smooth="yes"/>
      <point x="144" y="40"/>
      <point x="114" y="32"/>
      <point x="63" y="32" type="curve" smooth="yes"/>
      <point x="35" y="32" type="line"/>
      <point x="31" y="0" type="line"/>
      <point x="327" y="0" type="line"/>
      <point x="331" y="32" type="line"/>
      <point x="310" y="32" type="line" smooth="yes"/>
      <point x="255" y="32"/>
      <point x="225" y="40"/>
    </contour>
  </outline>
</glyph>
<glyph name="three" format="2">
  <advance width="393"/>
  <unicode hex="0033"/>
  <outline>
    <contour>
      <point x="173" y="-90" type="curve" smooth="yes"/>
      <point x="78" y="-90"/>
      <point x="18" y="-24"/>
      <point x="-3" y="78" type="curve"/>
      <point x="20" y="97" type="line"/>
      <point x="37" y="12"/>
      <point x="82" y="-57"/>
      <point x="167" y="-57" type="curve" smooth="yes"/>
      <point x="237" y="-57"/>
      <point x="272" y="23"/>
      <point x="272" y="123" type="curve" smooth="yes"/>
      <point x="272" y="205"/>
      <point x="246" y="269"/>
      <point x="157" y="269" type="curve" smooth="yes"/>
      <point x="119" y="269" type="line"/>
      <point x="123" y="299" type="line"/>
      <point x="165" y="299" type="line" smooth="yes"/>
      <point x="251" y="299"/>
      <point x="287" y="368"/>
      <point x="287" y="461" type="curve" smooth="yes"/>
      <point x="287" y="537"/>
      <point x="263" y="585"/>
      <point x="211" y="585" type="curve" smooth="yes"/>
      <point x="184" y="585"/>
      <point x="158" y="577"/>
      <point x="124" y="545" type="curve"/>
      <point x="131" y="555"/>
      <point x="139" y="565"/>
      <point x="146" y="575" type="curve"/>
      <point x="135" y="447" type="line"/>
      <point x="66" y="447" type="line"/>
      <point x="76" y="558" type="line"/>
      <point x="103" y="585"/>
      <point x="152" y="618"/>
      <point x="216" y="618" type="curve" smooth="yes"/>
      <point x="305" y="618"/>
      <point x="364" y="556"/>
      <point x="364" y="458" type="curve" smooth="yes"/>
      <point x="364" y="367"/>
      <point x="299" y="293"/>
      <point x="202" y="286" type="curve"/>
      <point x="223" y="295" type="line"/>
      <point x="222" y="283" type="line"/>
      <point x="203" y="293" type="line"/>
      <point x="308" y="279"/>
      <point x="351" y="200"/>
      <point x="351" y="113" type="curve" smooth="yes"/>
      <point x="351" y="-11"/>
      <point x="278" y="-90"/>
    </contour>
  </outline>
</glyph>
<glyph name="five" format="2">
  <advance width="393"/>
  <unicode hex="0035"/>
  <outline>
    <contour>
      <point x="164" y="-90" type="curve" smooth="yes"/>
      <point x="283" y="-90"/>
      <point x="355" y="23"/>
      <point x="355" y="162" type="curve" smooth="yes"/>
      <point x="355" y="279"/>
      <point x="299" y="366"/>
      <point x="209" y="366" type="curve" smooth="yes"/>
      <point x="165" y="366"/>
      <point x="117" y="346"/>
      <point x="83" y="285" type="curve"/>
      <point x="92" y="284" type="line"/>
      <point x="124" y="558" type="line"/>
      <point x="109" y="523" type="line"/>
      <point x="343" y="523" type="line"/>
      <point x="366" y="609" type="line"/>
      <point x="104" y="609" type="line"/>
      <point x="57" y="238" type="line"/>
      <point x="80" y="238" type="line"/>
      <point x="107" y="297"/>
      <point x="142" y="332"/>
      <point x="193" y="332" type="curve" smooth="yes"/>
      <point x="247" y="332"/>
      <point x="275" y="271"/>
      <point x="275" y="163" type="curve" smooth="yes"/>
      <point x="275" y="28"/>
      <point x="234" y="-57"/>
      <point x="159" y="-57" type="curve" smooth="yes"/>
      <point x="81" y="-57"/>
      <point x="40" y="9"/>
      <point x="23" y="94" type="curve"/>
      <point x="0" y="74" type="line"/>
      <point x="19" y="-18"/>
      <point x="71" y="-90"/>
    </contour>
  </outline>
</glyph>
<glyph name="six" format="2">
  <advance width="393"/>
  <unicode hex="0036"/>
  <outline>
    <contour>
      <point x="188" y="-10" type="curve" smooth="yes"/>
      <point x="287" y="-10"/>
      <point x="367" y="96"/>
      <point x="367" y="257" type="curve" smooth="yes"/>
      <point x="367" y="381"/>
      <point x="311" y="453"/>
      <point x="239" y="453" type="curve" smooth="yes"/>
      <point x="176" y="453"/>
      <point x="123" y="387"/>
      <point x="94" y="301" type="curve"/>
      <point x="99" y="276" type="line"/>
      <point x="131" y="363"/>
      <point x="170" y="419"/>
      <point x="217" y="419" type="curve" smooth="yes"/>
      <point x="265" y="419"/>
      <point x="285" y="361"/>
      <point x="285" y="264" type="curve" smooth="yes"/>
      <point x="285" y="236"/>
      <point x="283" y="210"/>
      <point x="280" y="184" type="curve" smooth="yes"/>
      <point x="267" y="85"/>
      <point x="235" y="23"/>
      <point x="188" y="23" type="curve" smooth="yes"/>
      <point x="137" y="23"/>
      <point x="104" y="91"/>
      <point x="104" y="221" type="curve" smooth="yes"/>
      <point x="104" y="257"/>
      <point x="107" y="293"/>
      <point x="112" y="327" type="curve" smooth="yes"/>
      <point x="136" y="537"/>
      <point x="229" y="681"/>
      <point x="372" y="714" type="curve"/>
      <point x="372" y="740" type="line"/>
      <point x="164" y="706"/>
      <point x="24" y="487"/>
      <point x="24" y="244" type="curve" smooth="yes"/>
      <point x="24" y="90"/>
      <point x="91" y="-10"/>
    </contour>
  </outline>
</glyph>
<glyph name="question" format="2">
  <advance width="362"/>
  <unicode hex="003F"/>
  <outline>
    <contour>
      <point x="159" y="370" type="curve"/>
      <point x="140" y="211" type="line"/>
      <point x="173" y="211" type="line"/>
      <point x="189" y="346" type="line"/>
      <point x="301" y="387"/>
      <point x="375" y="453"/>
      <point x="375" y="576" type="curve" smooth="yes"/>
      <point x="375" y="686"/>
      <point x="312" y="745"/>
      <point x="222" y="745" type="curve" smooth="yes"/>
      <point x="154" y="745"/>
      <point x="102" y="714"/>
      <point x="78" y="690" type="curve"/>
      <point x="65" y="582" type="line"/>
      <point x="133" y="582" type="line"/>
      <point x="149" y="703" type="line"/>
      <point x="135" y="694"/>
      <point x="130" y="686"/>
      <point x="131" y="678" type="curve"/>
      <point x="159" y="708"/>
      <point x="192" y="712"/>
      <point x="216" y="712" type="curve" smooth="yes"/>
      <point x="267" y="712"/>
      <point x="296" y="668"/>
      <point x="296" y="582" type="curve" smooth="yes"/>
      <point x="296" y="470"/>
      <point x="255" y="404"/>
    </contour>
    <component base="period" xOffset="63"/>
  </outline>
</glyph>
<glyph name="A" format="2">
  <advance width="456"/>
  <unicode hex="0041"/>
  <anchor x="243" y="721" name="top"/>
  <anchor x="432" y="0" name="right"/>
  <anchor x="243" y="0" name="bottom"/>
  <outline>
    <contour>
      <point x="112" y="285" type="line"/>
      <point x="99" y="251" type="line"/>
      <point x="292" y="251" type="line"/>
      <point x="295" y="285" type="line"/>
    </contour>
    <contour>
      <point x="238" y="668" type="line"/>
      <point x="299" y="42" type="line"/>
      <point x="299" y="35"/>
      <point x="272" y="31"/>
      <point x="250" y="31" type="curve" smooth="yes"/>
      <point x="239" y="31" type="line"/>
      <point x="235" y="0" type="line"/>
      <point x="416" y="0" type="line"/>
      <point x="419" y="31" type="line"/>
      <point x="416" y="31" type="line"/>
      <point x="398" y="31"/>
      <point x="382" y="35"/>
      <point x="379" y="62" type="curve" smooth="yes"/>
      <point x="312" y="710" type="line"/>
      <point x="242" y="710" type="line"/>
      <point x="27" y="89" type="line" smooth="yes"/>
      <point x="13" y="47"/>
      <point x="-8" y="31"/>
      <point x="-29" y="31" type="curve"/>
      <point x="-34" y="31" type="line"/>
      <point x="-38" y="0" type="line"/>
      <point x="100" y="0" type="line"/>
      <point x="104" y="31" type="line"/>
      <point x="86" y="31" type="line" smooth="yes"/>
      <point x="51" y="31"/>
      <point x="46" y="41"/>
      <point x="47" y="53" type="curve"/>
      <point x="249" y="655" type="line"/>
    </contour>
  </outline>
</glyph>
<glyph name="B" format="2">
  <advance width="472"/>
  <unicode hex="0042"/>
  <outline>
    <contour>
      <point x="245" y="355" type="line" smooth="yes"/>
      <point x="317" y="355"/>
      <point x="345" y="293"/>
      <point x="345" y="216" type="curve" smooth="yes"/>
      <point x="345" y="113"/>
      <point x="311" y="35"/>
      <point x="221" y="35" type="curve" smooth="yes"/>
      <point x="134" y="35" type="line"/>
      <point x="173" y="355" type="line"/>
    </contour>
    <contour>
      <point x="259" y="675" type="line" smooth="yes"/>
      <point x="323" y="675"/>
      <point x="352" y="626"/>
      <point x="352" y="551" type="curve" smooth="yes"/>
      <point x="352" y="469"/>
      <point x="328" y="388"/>
      <point x="239" y="388" type="curve" smooth="yes"/>
      <point x="177" y="388" type="line"/>
      <point x="213" y="675" type="line"/>
    </contour>
    <contour>
      <point x="272" y="371" type="line"/>
      <point x="389" y="371"/>
      <point x="435" y="452"/>
      <point x="435" y="541" type="curve" smooth="yes"/>
      <point x="435" y="635"/>
      <point x="376" y="710"/>
      <point x="263" y="710" type="curve" smooth="yes"/>
      <point x="78" y="710" type="line"/>
      <point x="74" y="679" type="line"/>
      <point x="79" y="679" type="line" smooth="yes"/>
      <point x="107" y="679"/>
      <point x="130" y="673"/>
      <point x="126" y="642" type="curve" smooth="yes"/>
      <point x="55" y="64" type="line" smooth="yes"/>
      <point x="51" y="38"/>
      <point x="25" y="31"/>
      <point x="-2" y="31" type="curve" smooth="yes"/>
      <point x="-7" y="31" type="line"/>
      <point x="-10" y="0" type="line"/>
      <point x="222" y="0" type="line" smooth="yes"/>
      <point x="366" y="0"/>
      <point x="430" y="79"/>
      <point x="430" y="201" type="curve" smooth="yes"/>
      <point x="430" y="297"/>
      <point x="374" y="371"/>
      <point x="259" y="383" type="curve"/>
      <point x="291" y="365" type="line"/>
      <point x="295" y="385" type="line"/>
    </contour>
  </outline>
</glyph>
<glyph name="D" format="2">
  <advance width="538"/>
  <unicode hex="0044"/>
  <anchor x="278" y="741" name="top"/>
  <anchor x="278" y="0" name="bottom"/>
  <outline>
    <contour>
      <point x="74" y="679" type="line"/>
      <point x="79" y="679" type="line" smooth="yes"/>
      <point x="107" y="679"/>
      <point x="130" y="673"/>
      <point x="126" y="642" type="curve" smooth="yes"/>
      <point x="55" y="64" type="line" smooth="yes"/>
      <point x="51" y="38"/>
      <point x="25" y="31"/>
      <point x="-2" y="31" type="curve" smooth="yes"/>
      <point x="-7" y="31" type="line"/>
      <point x="-10" y="0" type="line"/>
      <point x="211" y="0" type="line" smooth="yes"/>
      <point x="421" y="0"/>
      <point x="519" y="183"/>
      <point x="519" y="392" type="curve" smooth="yes"/>
      <point x="519" y="576"/>
      <point x="421" y="710"/>
      <point x="264" y="710" type="curve" smooth="yes"/>
      <point x="78" y="710" type="line"/>
    </contour>
    <contour>
      <point x="267" y="675" type="line" smooth="yes"/>
      <point x="369" y="675"/>
      <point x="431" y="579"/>
      <point x="431" y="413" type="curve" smooth="yes"/>
      <point x="431" y="215"/>
      <point x="366" y="35"/>
      <point x="215" y="35" type="curve" smooth="yes"/>
      <point x="134" y="35" type="line"/>
      <point x="213" y="675" type="line"/>
    </contour>
  </outline>
</glyph>
<glyph name="I" format="2">
  <advance width="256"/>
  <unicode hex="0049"/>
  <anchor x="127" y="741" name="top"/>
  <anchor x="185" y="0" name="right"/>
  <anchor x="127" y="0" name="bottom"/>
  <outline>
    <contour>
      <point x="55" y="64" type="line" smooth="yes"/>
      <point x="51" y="38"/>
      <point x="25" y="31"/>
      <point x="-2" y="31" type="curve" smooth="yes"/>
      <point x="-7" y="31" type="line"/>
      <point x="-10" y="0" type="line"/>
      <point x="186" y="0" type="line"/>
      <point x="190" y="31" type="line"/>
      <point x="185" y="31" type="line" smooth="yes"/>
      <point x="158" y="31"/>
      <point x="134" y="37"/>
      <point x="138" y="68" type="curve" smooth="yes"/>
      <point x="209" y="642" type="line" smooth="yes"/>
      <point x="212" y="672"/>
      <point x="238" y="679"/>
      <point x="266" y="679" type="curve" smooth="yes"/>
      <point x="270" y="679" type="line"/>
      <point x="274" y="710" type="line"/>
      <point x="78" y="710" type="line"/>
      <point x="74" y="679" type="line"/>
      <point x="79" y="679" type="line" smooth="yes"/>
      <point x="103" y="679"/>
      <point x="129" y="672"/>
      <point x="127" y="647" type="curve" smooth="yes"/>
    </contour>
  </outline>
</glyph>
<glyph name="J" format="2">
  <advance width="406"/>
  <unicode hex="004A"/>
  <anchor x="299" y="741" name="top"/>
  <outline>
    <contour>
      <point x="283" y="644" type="curve" smooth="yes"/>
      <point x="233" y="239" type="line" smooth="yes"/>
      <point x="212" y="69"/>
      <point x="179" y="24"/>
      <point x="124" y="24" type="curve" smooth="yes"/>
      <point x="92" y="24"/>
      <point x="71" y="38"/>
      <point x="58" y="58" type="curve"/>
      <point x="57" y="52"/>
      <point x="59" y="46"/>
      <point x="63" y="40" type="curve"/>
      <point x="79" y="160" type="line"/>
      <point x="5" y="160" type="line"/>
      <point x="-8" y="60" type="line"/>
      <point x="11" y="26"/>
      <point x="57" y="-10"/>
      <point x="122" y="-10" type="curve" smooth="yes"/>
      <point x="220" y="-10"/>
      <point x="294" y="54"/>
      <point x="316" y="241" type="curve" smooth="yes"/>
      <point x="366" y="644" type="line" smooth="yes"/>
      <point x="370" y="672"/>
      <point x="395" y="679"/>
      <point x="423" y="679" type="curve" smooth="yes"/>
      <point x="427" y="679" type="line"/>
      <point x="431" y="710" type="line"/>
      <point x="223" y="710" type="line"/>
      <point x="219" y="679" type="line"/>
      <point x="232" y="679" type="line" smooth="yes"/>
      <point x="264" y="679"/>
      <point x="287" y="672"/>
    </contour>
  </outline>
</glyph>
<glyph name="K" format="2">
  <advance width="516"/>
  <unicode hex="004B"/>
  <anchor x="270" y="741" name="top"/>
  <anchor x="270" y="0" name="bottom"/>
  <outline>
    <contour>
      <point x="-10" y="0" type="line"/>
      <point x="185" y="0" type="line"/>
      <point x="189" y="31" type="line"/>
      <point x="184" y="31" type="line" smooth="yes"/>
      <point x="162" y="31"/>
      <point x="134" y="34"/>
      <point x="135" y="41" type="curve" smooth="yes"/>
      <point x="212" y="669" type="line" smooth="yes"/>
      <point x="213" y="676"/>
      <point x="242" y="679"/>
      <point x="266" y="679" type="curve" smooth="yes"/>
      <point x="272" y="679" type="line"/>
      <point x="276" y="710" type="line"/>
      <point x="78" y="710" type="line"/>
      <point x="74" y="679" type="line"/>
      <point x="79" y="679" type="line" smooth="yes"/>
      <point x="103" y="679"/>
      <point x="129" y="673"/>
      <point x="127" y="649" type="curve" smooth="yes"/>
      <point x="55" y="62" type="line" smooth="yes"/>
      <point x="51" y="36"/>
      <point x="25" y="31"/>
      <point x="-2" y="31" type="curve" smooth="yes"/>
      <point x="-7" y="31" type="line"/>
    </contour>
    <contour>
      <point x="273" y="0" type="line"/>
      <point x="468" y="0" type="line"/>
      <point x="471" y="31" type="line"/>
      <point x="467" y="31" type="line" smooth="yes"/>
      <point x="438" y="31"/>
      <point x="429" y="36"/>
      <point x="419" y="56" type="curve" smooth="yes"/>
      <point x="261" y="413" type="line"/>
      <point x="256" y="385" type="line"/>
      <point x="447" y="638" type="line" smooth="yes"/>
      <point x="469" y="669"/>
      <point x="480" y="679"/>
      <point x="514" y="679" type="curve" smooth="yes"/>
      <point x="520" y="679" type="line"/>
      <point x="524" y="710" type="line"/>
      <point x="380" y="710" type="line"/>
      <point x="376" y="679" type="line"/>
      <point x="385" y="679" type="line" smooth="yes"/>
      <point x="407" y="679"/>
      <point x="431" y="674"/>
      <point x="429" y="665" type="curve"/>
      <point x="196" y="361" type="line"/>
      <point x="194" y="351" type="line"/>
      <point x="330" y="41" type="line"/>
      <point x="329" y="34"/>
      <point x="302" y="31"/>
      <point x="285" y="31" type="curve" smooth="yes"/>
      <point x="276" y="31" type="line"/>
    </contour>
  </outline>
</glyph>
<glyph name="M" format="2">
  <advance width="651"/>
  <unicode hex="004D"/>
  <anchor x="314" y="0" name="bottom"/>
  <outline>
    <contour>
      <point x="-8" y="0" type="line"/>
      <point x="139" y="0" type="line"/>
      <point x="143" y="31" type="line"/>
      <point x="132" y="31" type="line" smooth="yes"/>
      <point x="105" y="31"/>
      <point x="85" y="36"/>
      <point x="87" y="60" type="curve" smooth="yes"/>
      <point x="167" y="705" type="line"/>
      <point x="159" y="705" type="line"/>
      <point x="233" y="-2" type="line"/>
      <point x="280" y="-2" type="line"/>
      <point x="531" y="704" type="line"/>
      <point x="523" y="707" type="line"/>
      <point x="441" y="41" type="line" smooth="yes"/>
      <point x="441" y="34"/>
      <point x="411" y="31"/>
      <point x="389" y="31" type="curve" smooth="yes"/>
      <point x="383" y="31" type="line"/>
      <point x="379" y="0" type="line"/>
      <point x="576" y="0" type="line"/>
      <point x="579" y="31" type="line"/>
      <point x="575" y="31" type="line" smooth="yes"/>
      <point x="547" y="31"/>
      <point x="524" y="39"/>
      <point x="527" y="67" type="curve" smooth="yes"/>
      <point x="599" y="644" type="line" smooth="yes"/>
      <point x="603" y="672"/>
      <point x="628" y="679"/>
      <point x="655" y="679" type="curve" smooth="yes"/>
      <point x="660" y="679" type="line"/>
      <point x="664" y="710" type="line"/>
      <point x="502" y="710" type="line"/>
      <point x="283" y="74" type="line"/>
      <point x="298" y="74" type="line"/>
      <point x="243" y="710" type="line"/>
      <point x="80" y="710" type="line"/>
      <point x="76" y="679" type="line"/>
      <point x="84" y="679" type="line" smooth="yes"/>
      <point x="109" y="679"/>
      <point x="132" y="672"/>
      <point x="129" y="644" type="curve" smooth="yes"/>
      <point x="60" y="90" type="line" smooth="yes"/>
      <point x="55" y="46"/>
      <point x="29" y="31"/>
      <point x="4" y="31" type="curve" smooth="yes"/>
      <point x="-4" y="31" type="line"/>
    </contour>
  </outline>
</glyph>
<glyph name="N" format="2">
  <advance width="532"/>
  <unicode hex="004E"/>
  <anchor x="273" y="741" name="top"/>
  <anchor x="273" y="0" name="bottom"/>
  <outline>
    <contour>
      <point x="-10" y="0" type="line"/>
      <point x="144" y="0" type="line"/>
      <point x="148" y="31" type="line"/>
      <point x="129" y="31" type="line" smooth="yes"/>
      <point x="101" y="31"/>
      <point x="83" y="38"/>
      <point x="85" y="62" type="curve" smooth="yes"/>
      <point x="163" y="695" type="line"/>
      <point x="150" y="693" type="line"/>
      <point x="345" y="0" type="line"/>
      <point x="403" y="0" type="line"/>
      <point x="480" y="618" type="line" smooth="yes"/>
      <point x="485" y="660"/>
      <point x="509" y="679"/>
      <point x="537" y="679" type="curve" smooth="yes"/>
      <point x="544" y="679" type="line"/>
      <point x="548" y="710" type="line"/>
      <point x="395" y="710" type="line"/>
      <point x="390" y="679" type="line"/>
      <point x="409" y="679" type="line" smooth="yes"/>
      <point x="437" y="679"/>
      <point x="455" y="672"/>
      <point x="453" y="648" type="curve"/>
      <point x="385" y="92" type="line"/>
      <point x="399" y="98" type="line"/>
      <point x="230" y="710" type="line"/>
      <point x="78" y="710" type="line"/>
      <point x="74" y="679" type="line"/>
      <point x="81" y="679" type="line" smooth="yes"/>
      <point x="105" y="679"/>
      <point x="130" y="672"/>
      <point x="127" y="644" type="curve" smooth="yes"/>
      <point x="58" y="95" type="line" smooth="yes"/>
      <point x="53" y="50"/>
      <point x="28" y="31"/>
      <point x="1" y="31" type="curve" smooth="yes"/>
      <point x="-7" y="31" type="line"/>
    </contour>
  </outline>
</glyph>
<glyph name="O" format="2">
  <advance width="545"/>
  <unicode hex="004F"/>
  <anchor x="271" y="741" name="top"/>
  <anchor x="271" y="0" name="bottom"/>
  <outline>
    <contour>
      <point x="526" y="388" type="curve" smooth="yes"/>
      <point x="526" y="586"/>
      <point x="427" y="720"/>
      <point x="300" y="720" type="curve" smooth="yes"/>
      <point x="146" y="720"/>
      <point x="26" y="546"/>
      <point x="26" y="322" type="curve" smooth="yes"/>
      <point x="26" y="124"/>
      <point x="124" y="-10"/>
      <point x="252" y="-10" type="curve" smooth="yes"/>
      <point x="406" y="-10"/>
      <point x="526" y="164"/>
    </contour>
    <contour>
      <point x="253" y="26" type="curve" smooth="yes"/>
      <point x="171" y="26"/>
      <point x="114" y="121"/>
      <point x="114" y="287" type="curve" smooth="yes"/>
      <point x="114" y="323"/>
      <point x="116" y="361"/>
      <point x="121" y="397" type="curve" smooth="yes"/>
      <point x="143" y="562"/>
      <point x="205" y="684"/>
      <point x="299" y="684" type="curve" smooth="yes"/>
      <point x="381" y="684"/>
      <point x="438" y="589"/>
      <point x="438" y="425" type="curve" smooth="yes"/>
      <point x="438" y="387"/>
      <point x="436" y="350"/>
      <point x="431" y="314" type="curve" smooth="yes"/>
      <point x="409" y="148"/>
      <point x="346" y="26"/>
    </contour>
  </outline>
</glyph>
<glyph name="R" format="2">
  <advance width="483"/>
  <unicode hex="0052"/>
  <anchor x="292" y="741" name="top"/>
  <anchor x="292" y="0" name="bottom"/>
  <outline>
    <contour>
      <point x="-10" y="0" type="line"/>
      <point x="190" y="0" type="line"/>
      <point x="194" y="31" type="line"/>
      <point x="186" y="31" type="line" smooth="yes"/>
      <point x="162" y="31"/>
      <point x="134" y="34"/>
      <point x="135" y="41" type="curve" smooth="yes"/>
      <point x="168" y="314" type="line"/>
      <point x="247" y="314" type="line" smooth="yes"/>
      <point x="269" y="314"/>
      <point x="288" y="317"/>
      <point x="307" y="322" type="curve" smooth="yes"/>
      <point x="393" y="346"/>
      <point x="448" y="421"/>
      <point x="448" y="521" type="curve" smooth="yes"/>
      <point x="448" y="633"/>
      <point x="380" y="710"/>
      <point x="264" y="710" type="curve" smooth="yes"/>
      <point x="78" y="710" type="line"/>
      <point x="74" y="679" type="line"/>
      <point x="79" y="679" type="line" smooth="yes"/>
      <point x="107" y="679"/>
      <point x="129" y="672"/>
      <point x="126" y="643" type="curve" smooth="yes"/>
      <point x="55" y="62" type="line" smooth="yes"/>
      <point x="51" y="36"/>
      <point x="25" y="31"/>
      <point x="-2" y="31" type="curve" smooth="yes"/>
      <point x="-7" y="31" type="line"/>
    </contour>
    <contour>
      <point x="262" y="675" type="line" smooth="yes"/>
      <point x="331" y="675"/>
      <point x="362" y="622"/>
      <point x="362" y="531" type="curve" smooth="yes"/>
      <point x="362" y="434"/>
      <point x="331" y="348"/>
      <point x="239" y="348" type="curve" smooth="yes"/>
      <point x="173" y="348" type="line"/>
      <point x="213" y="675" type="line"/>
    </contour>
    <contour>
      <point x="250" y="323" type="line"/>
      <point x="319" y="0" type="line"/>
      <point x="437" y="0" type="line"/>
      <point x="441" y="31" type="line"/>
      <point x="439" y="31" type="line" smooth="yes"/>
      <point x="415" y="31"/>
      <point x="400" y="35"/>
      <point x="394" y="61" type="curve" smooth="yes"/>
      <point x="326" y="339" type="line"/>
    </contour>
  </outline>
</glyph>
<glyph name="S" format="2">
  <advance width="419"/>
  <unicode hex="0053"/>
  <anchor x="242" y="741" name="top"/>
  <anchor x="242" y="0" name="bottom"/>
  <outline>
    <contour>
      <point x="209" y="-10" type="curve" smooth="yes"/>
      <point x="304" y="-10"/>
      <point x="378" y="65"/>
      <point x="378" y="194" type="curve" smooth="yes"/>
      <point x="378" y="304"/>
      <point x="314" y="357"/>
      <point x="249" y="403" type="curve" smooth="yes"/>
      <point x="187" y="447"/>
      <point x="134" y="481"/>
      <point x="134" y="559" type="curve" smooth="yes"/>
      <point x="134" y="629"/>
      <point x="163" y="684"/>
      <point x="228" y="684" type="curve" smooth="yes"/>
      <point x="296" y="684"/>
      <point x="343" y="626"/>
      <point x="356" y="527" type="curve"/>
      <point x="380" y="527" type="line"/>
      <point x="401" y="710" type="line"/>
      <point x="373" y="710" type="line"/>
      <point x="352" y="606" type="line"/>
      <point x="351" y="579"/>
      <point x="360" y="563"/>
      <point x="375" y="561" type="curve"/>
      <point x="354" y="669"/>
      <point x="294" y="720"/>
      <point x="225" y="720" type="curve" smooth="yes"/>
      <point x="126" y="720"/>
      <point x="67" y="648"/>
      <point x="67" y="538" type="curve" smooth="yes"/>
      <point x="67" y="425"/>
      <point x="124" y="376"/>
      <point x="192" y="329" type="curve" smooth="yes"/>
      <point x="252" y="286"/>
      <point x="306" y="247"/>
      <point x="306" y="166" type="curve" smooth="yes"/>
      <point x="306" y="88"/>
      <point x="275" y="26"/>
      <point x="206" y="26" type="curve" smooth="yes"/>
      <point x="132" y="26"/>
      <point x="71" y="82"/>
      <point x="46" y="217" type="curve"/>
      <point x="21" y="217" type="line"/>
      <point x="-3" y="0" type="line"/>
      <point x="27" y="0" type="line"/>
      <point x="52" y="137" type="line"/>
      <point x="51" y="157"/>
      <point x="44" y="168"/>
      <point x="32" y="172" type="curve"/>
      <point x="54" y="56"/>
      <point x="127" y="-10"/>
    </contour>
  </outline>
</glyph>
<glyph name="T" format="2">
  <advance width="449"/>
  <unicode hex="0054"/>
  <anchor x="214" y="741" name="top"/>
  <anchor x="214" y="0" name="bottom"/>
  <outline>
    <contour>
      <point x="151" y="67" type="line" smooth="yes"/>
      <point x="148" y="37"/>
      <point x="121" y="31"/>
      <point x="94" y="31" type="curve" smooth="yes"/>
      <point x="83" y="31" type="line"/>
      <point x="79" y="0" type="line"/>
      <point x="288" y="0" type="line"/>
      <point x="293" y="31" type="line"/>
      <point x="281" y="31" type="line" smooth="yes"/>
      <point x="254" y="31"/>
      <point x="231" y="37"/>
      <point x="234" y="67" type="curve" smooth="yes"/>
      <point x="309" y="675" type="line"/>
      <point x="361" y="675" type="line" smooth="yes"/>
      <point x="416" y="675"/>
      <point x="431" y="661"/>
      <point x="431" y="620" type="curve" smooth="yes"/>
      <point x="431" y="526" type="line"/>
      <point x="452" y="526" type="line"/>
      <point x="476" y="710" type="line"/>
      <point x="68" y="710" type="line"/>
      <point x="44" y="526" type="line"/>
      <point x="67" y="526" type="line"/>
      <point x="92" y="615" type="line" smooth="yes"/>
      <point x="104" y="660"/>
      <point x="121" y="675"/>
      <point x="173" y="675" type="curve" smooth="yes"/>
      <point x="226" y="675" type="line"/>
    </contour>
  </outline>
</glyph>
<glyph name="U" format="2">
  <advance width="528"/>
  <unicode hex="0055"/>
  <anchor x="250" y="741" name="top"/>
  <anchor x="301" y="0" name="right"/>
  <anchor x="250" y="0" name="bottom"/>
  <outline>
    <contour>
      <point x="155" y="290" type="curve" smooth="yes"/>
      <point x="201" y="669" type="line" smooth="yes"/>
      <point x="202" y="676"/>
      <point x="231" y="679"/>
      <point x="254" y="679" type="curve" smooth="yes"/>
      <point x="259" y="679" type="line"/>
      <point x="263" y="710" type="line"/>
      <point x="66" y="710" type="line"/>
      <point x="63" y="679" type="line"/>
      <point x="67" y="679" type="line" smooth="yes"/>
      <point x="93" y="679"/>
      <point x="119" y="673"/>
      <point x="116" y="648" type="curve" smooth="yes"/>
      <point x="73" y="297" type="line" smooth="yes"/>
      <point x="68" y="258"/>
      <point x="66" y="231"/>
      <point x="66" y="202" type="curve" smooth="yes"/>
      <point x="66" y="51"/>
      <point x="144" y="-10"/>
      <point x="246" y="-10" type="curve" smooth="yes"/>
      <point x="345" y="-10"/>
      <point x="416" y="63"/>
      <point x="438" y="238" type="curve" smooth="yes"/>
      <point x="485" y="619" type="line" smooth="yes"/>
      <point x="490" y="664"/>
      <point x="516" y="679"/>
      <point x="541" y="679" type="curve" smooth="yes"/>
      <point x="549" y="679" type="line"/>
      <point x="552" y="710" type="line"/>
      <point x="400" y="710" type="line"/>
      <point x="396" y="679" type="line"/>
      <point x="410" y="679" type="line" smooth="yes"/>
      <point x="444" y="679"/>
      <point x="460" y="672"/>
      <point x="458" y="655" type="curve" smooth="yes"/>
      <point x="408" y="244" type="line" smooth="yes"/>
      <point x="390" y="102"/>
      <point x="339" y="42"/>
      <point x="265" y="42" type="curve" smooth="yes"/>
      <point x="188" y="42"/>
      <point x="149" y="99"/>
      <point x="149" y="198" type="curve" smooth="yes"/>
      <point x="149" y="223"/>
      <point x="150" y="251"/>
    </contour>
  </outline>
</glyph>
<glyph name="X" format="2">
  <advance width="484"/>
  <unicode hex="0058"/>
  <outline>
    <contour>
      <point x="70" y="679" type="line"/>
      <point x="73" y="679" type="line" smooth="yes"/>
      <point x="96" y="679"/>
      <point x="108" y="676"/>
      <point x="116" y="649" type="curve" smooth="yes"/>
      <point x="213" y="343" type="line"/>
      <point x="216" y="340" type="line"/>
      <point x="304" y="43" type="line"/>
      <point x="304" y="35"/>
      <point x="275" y="31"/>
      <point x="254" y="31" type="curve" smooth="yes"/>
      <point x="243" y="31" type="line"/>
      <point x="239" y="0" type="line"/>
      <point x="433" y="0" type="line"/>
      <point x="437" y="31" type="line"/>
      <point x="431" y="31" type="line" smooth="yes"/>
      <point x="409" y="31"/>
      <point x="395" y="37"/>
      <point x="387" y="60" type="curve" smooth="yes"/>
      <point x="282" y="395" type="line"/>
      <point x="281" y="399" type="line"/>
      <point x="200" y="668" type="line"/>
      <point x="200" y="675"/>
      <point x="228" y="679"/>
      <point x="249" y="679" type="curve" smooth="yes"/>
      <point x="260" y="679" type="line"/>
      <point x="264" y="710" type="line"/>
      <point x="74" y="710" type="line"/>
    </contour>
    <contour>
      <point x="-28" y="0" type="line"/>
      <point x="118" y="0" type="line"/>
      <point x="122" y="31" type="line"/>
      <point x="111" y="31" type="line" smooth="yes"/>
      <point x="77" y="31"/>
      <point x="65" y="38"/>
      <point x="66" y="52" type="curve"/>
      <point x="236" y="352" type="line"/>
      <point x="219" y="381" type="line"/>
      <point x="53" y="95" type="line" smooth="yes"/>
      <point x="29" y="52"/>
      <point x="11" y="31"/>
      <point x="-17" y="31" type="curve" smooth="yes"/>
      <point x="-24" y="31" type="line"/>
    </contour>
    <contour>
      <point x="270" y="358" type="line"/>
      <point x="433" y="629" type="line" smooth="yes"/>
      <point x="454" y="667"/>
      <point x="469" y="679"/>
      <point x="494" y="679" type="curve" smooth="yes"/>
      <point x="502" y="679" type="line"/>
      <point x="505" y="710" type="line"/>
      <point x="358" y="710" type="line"/>
      <point x="354" y="679" type="line"/>
      <point x="366" y="679" type="line" smooth="yes"/>
      <point x="402" y="679"/>
      <point x="411" y="668"/>
      <point x="411" y="655" type="curve"/>
      <point x="252" y="385" type="line"/>
    </contour>
  </outline>
</glyph>
<glyph name="Y" format="2">
  <advance width="441"/>
  <unicode hex="0059"/>
  <anchor x="205" y="741" name="top"/>
  <anchor x="205" y="0" name="bottom"/>
  <outline>
    <contour>
      <point x="78" y="0" type="line"/>
      <point x="288" y="0" type="line"/>
      <point x="293" y="31" type="line"/>
      <point x="281" y="31" type="line" smooth="yes"/>
      <point x="254" y="31"/>
      <point x="230" y="37"/>
      <point x="233" y="66" type="curve" smooth="yes"/>
      <point x="269" y="348" type="line"/>
      <point x="256" y="312" type="line"/>
      <point x="411" y="614" type="line" smooth="yes"/>
      <point x="433" y="660"/>
      <point x="448" y="679"/>
      <point x="467" y="679" type="curve" smooth="yes"/>
      <point x="473" y="679" type="line"/>
      <point x="477" y="710" type="line"/>
      <point x="345" y="710" type="line"/>
      <point x="341" y="679" type="line"/>
      <point x="359" y="679" type="line" smooth="yes"/>
      <point x="390" y="679"/>
      <point x="399" y="669"/>
      <point x="398" y="656" type="curve"/>
      <point x="245" y="349" type="line"/>
      <point x="259" y="349" type="line"/>
      <point x="174" y="666" type="line"/>
      <point x="175" y="675"/>
      <point x="201" y="679"/>
      <point x="222" y="679" type="curve" smooth="yes"/>
      <point x="234" y="679" type="line"/>
      <point x="238" y="710" type="line"/>
      <point x="60" y="710" type="line"/>
      <point x="55" y="679" type="line"/>
      <point x="59" y="679" type="line" smooth="yes"/>
      <point x="75" y="679"/>
      <point x="87" y="676"/>
      <point x="94" y="650" type="curve" smooth="yes"/>
      <point x="188" y="312" type="line"/>
      <point x="185" y="348" type="line"/>
      <point x="151" y="66" type="line" smooth="yes"/>
      <point x="147" y="37"/>
      <point x="122" y="31"/>
      <point x="94" y="31" type="curve" smooth="yes"/>
      <point x="83" y="31" type="line"/>
    </contour>
  </outline>
</glyph>
<glyph name="bracketleft" format="2">
  <advance width="190"/>
  <unicode hex="005B"/>
  <outline>
    <contour>
      <point x="146" y="-99" type="line"/>
      <point x="61" y="-99" type="line"/>
      <point x="162" y="719" type="line"/>
      <point x="247" y="719" type="line"/>
      <point x="251" y="750" type="line"/>
      <point x="110" y="750" type="line"/>
      <point x="1" y="-130" type="line"/>
      <point x="141" y="-130" type="line"/>
    </contour>
  </outline>
</glyph>
<glyph name="grave" format="2">
  <advance width="351"/>
  <unicode hex="0060"/>
  <anchor x="150" y="531" name="_top"/>
  <outline>
    <contour>
      <point x="175" y="703" type="curve" smooth="yes"/>
      <point x="205" y="589" type="line"/>
      <point x="205" y="575" type="line"/>
      <point x="187" y="575" type="line"/>
      <point x="121" y="667" type="line" smooth="yes"/>
      <point x="107" y="687"/>
      <point x="97" y="705"/>
      <point x="97" y="726" type="curve" smooth="yes"/>
      <point x="97" y="750"/>
      <point x="110" y="769"/>
      <point x="131" y="769" type="curve" smooth="yes"/>
      <point x="154" y="769"/>
      <point x="163" y="749"/>
    </contour>
  </outline>
</glyph>
<glyph name="d" format="2">
  <advance width="432"/>
  <unicode hex="0064"/>
  <anchor x="486" y="735" name="right"/>
  <anchor x="191" y="0" name="bottom"/>
  <outline>
    <contour>
      <point x="150" y="-10" type="curve" smooth="yes"/>
      <point x="230" y="-10"/>
      <point x="263" y="84"/>
      <point x="304" y="213" type="curve"/>
      <point x="288" y="233" type="line"/>
      <point x="257" y="127"/>
      <point x="228" y="33"/>
      <point x="170" y="33" type="curve" smooth="yes"/>
      <point x="128" y="33"/>
      <point x="106" y="90"/>
      <point x="106" y="174" type="curve" smooth="yes"/>
      <point x="106" y="318"/>
      <point x="151" y="490"/>
      <point x="234" y="490" type="curve" smooth="yes"/>
      <point x="276" y="490"/>
      <point x="310" y="459"/>
      <point x="337" y="390" type="curve"/>
      <point x="351" y="418" type="line"/>
      <point x="327" y="479"/>
      <point x="284" y="528"/>
      <point x="227" y="528" type="curve" smooth="yes"/>
      <point x="93" y="528"/>
      <point x="24" y="343"/>
      <point x="24" y="188" type="curve" smooth="yes"/>
      <point x="24" y="71"/>
      <point x="74" y="-10"/>
    </contour>
    <contour>
      <point x="338" y="-10" type="curve" smooth="yes"/>
      <point x="368" y="-10"/>
      <point x="396" y="10"/>
      <point x="409" y="28" type="curve"/>
      <point x="414" y="60" type="line"/>
      <point x="403" y="49"/>
      <point x="384" y="31"/>
      <point x="366" y="31" type="curve" smooth="yes"/>
      <point x="349" y="31"/>
      <point x="341" y="41"/>
      <point x="341" y="67" type="curve" smooth="yes"/>
      <point x="341" y="75"/>
      <point x="343" y="86"/>
      <point x="345" y="97" type="curve" smooth="yes"/>
      <point x="425" y="750" type="line"/>
      <point x="291" y="750" type="line"/>
      <point x="286" y="720" type="line"/>
      <point x="298" y="717" type="line" smooth="yes"/>
      <point x="327" y="708"/>
      <point x="341" y="702"/>
      <point x="338" y="673" type="curve"/>
      <point x="269" y="137" type="line"/>
      <point x="273" y="138" type="line"/>
      <point x="271" y="118"/>
      <point x="270" y="101"/>
      <point x="270" y="84" type="curve" smooth="yes"/>
      <point x="270" y="19"/>
      <point x="295" y="-10"/>
    </contour>
  </outline>
</glyph>
<glyph name="e" format="2">
  <advance width="352"/>
  <unicode hex="0065"/>
  <anchor x="178" y="518" name="top"/>
  <anchor x="319" y="1" name="right"/>
  <anchor x="198" y="0" name="bottom"/>
  <outline>
    <contour>
      <point x="181" y="-10" type="curve" smooth="yes"/>
      <point x="248" y="-10"/>
      <point x="299" y="34"/>
      <point x="330" y="133" type="curve"/>
      <point x="308" y="154" type="line"/>
      <point x="286" y="79"/>
      <point x="249" y="28"/>
      <point x="196" y="28" type="curve" smooth="yes"/>
      <point x="142" y="28"/>
      <point x="107" y="92"/>
      <point x="107" y="215" type="curve" smooth="yes"/>
      <point x="107" y="372"/>
      <point x="156" y="495"/>
      <point x="230" y="495" type="curve" smooth="yes"/>
      <point x="260" y="495"/>
      <point x="274" y="463"/>
      <point x="274" y="427" type="curve" smooth="yes"/>
      <point x="274" y="331"/>
      <point x="220" y="300"/>
      <point x="88" y="244" type="curve"/>
      <point x="84" y="214" type="line"/>
      <point x="227" y="270"/>
      <point x="342" y="314"/>
      <point x="342" y="418" type="curve" smooth="yes"/>
      <point x="342" y="474"/>
      <point x="304" y="528"/>
      <point x="233" y="528" type="curve" smooth="yes"/>
      <point x="110" y="528"/>
      <point x="24" y="392"/>
      <point x="24" y="226" type="curve" smooth="yes"/>
      <point x="24" y="74"/>
      <point x="89" y="-10"/>
    </contour>
  </outline>
</glyph>
<glyph name="g" format="2">
  <advance width="411"/>
  <unicode hex="0067"/>
  <anchor x="197" y="518" name="top"/>
  <outline>
    <contour>
      <point x="151" y="-10" type="curve" smooth="yes"/>
      <point x="230" y="-10"/>
      <point x="264" y="85"/>
      <point x="304" y="214" type="curve"/>
      <point x="289" y="233" type="line"/>
      <point x="257" y="127"/>
      <point x="228" y="34"/>
      <point x="171" y="34" type="curve" smooth="yes"/>
      <point x="128" y="34"/>
      <point x="106" y="91"/>
      <point x="106" y="175" type="curve" smooth="yes"/>
      <point x="106" y="318"/>
      <point x="151" y="490"/>
      <point x="234" y="490" type="curve" smooth="yes"/>
      <point x="275" y="490"/>
      <point x="307" y="461"/>
      <point x="335" y="390" type="curve"/>
      <point x="349" y="418" type="line"/>
      <point x="325" y="481"/>
      <point x="284" y="528"/>
      <point x="227" y="528" type="curve" smooth="yes"/>
      <point x="93" y="528"/>
      <point x="24" y="343"/>
      <point x="24" y="188" type="curve" smooth="yes"/>
      <point x="24" y="71"/>
      <point x="74" y="-10"/>
    </contour>
    <contour>
      <point x="254" y="10" type="line" smooth="yes"/>
      <point x="236" y="-133"/>
      <point x="199" y="-196"/>
      <point x="135" y="-196" type="curve" smooth="yes"/>
      <point x="84" y="-196"/>
      <point x="49" y="-166"/>
      <point x="42" y="-128" type="curve"/>
      <point x="33" y="-159"/>
      <point x="38" y="-177"/>
      <point x="61" y="-179" type="curve"/>
      <point x="75" y="-69" type="line"/>
      <point x="4" y="-69" type="line"/>
      <point x="-7" y="-149" type="line"/>
      <point x="15" y="-191"/>
      <point x="68" y="-229"/>
      <point x="137" y="-229" type="curve" smooth="yes"/>
      <point x="245" y="-229"/>
      <point x="313" y="-142"/>
      <point x="333" y="11" type="curve" smooth="yes"/>
      <point x="396" y="522" type="line"/>
      <point x="359" y="522" type="line"/>
      <point x="322" y="464" type="line"/>
      <point x="310" y="461" type="line"/>
    </contour>
  </outline>
</glyph>
<glyph name="h" format="2">
  <advance width="428"/>
  <unicode hex="0068"/>
  <anchor x="225" y="755" name="top"/>
  <anchor x="216" y="0" name="bottom"/>
  <outline>
    <contour>
      <point x="34" y="0" type="line"/>
      <point x="118" y="673" type="line" smooth="yes"/>
      <point x="122" y="702"/>
      <point x="107" y="709"/>
      <point x="77" y="718" type="curve" smooth="yes"/>
      <point x="69" y="720" type="line"/>
      <point x="73" y="750" type="line"/>
      <point x="206" y="750" type="line"/>
      <point x="112" y="0" type="line"/>
    </contour>
    <contour>
      <point x="342" y="97" type="line" smooth="yes"/>
      <point x="340" y="85"/>
      <point x="338" y="74"/>
      <point x="338" y="66" type="curve" smooth="yes"/>
      <point x="338" y="41"/>
      <point x="346" y="31"/>
      <point x="362" y="31" type="curve" smooth="yes"/>
      <point x="382" y="31"/>
      <point x="400" y="49"/>
      <point x="412" y="60" type="curve"/>
      <point x="406" y="28" type="line"/>
      <point x="392" y="10"/>
      <point x="366" y="-10"/>
      <point x="335" y="-10" type="curve" smooth="yes"/>
      <point x="292" y="-10"/>
      <point x="263" y="20"/>
      <point x="263" y="84" type="curve" smooth="yes"/>
      <point x="263" y="96"/>
      <point x="265" y="109"/>
      <point x="268" y="124" type="curve" smooth="yes"/>
      <point x="295" y="356" type="line" smooth="yes"/>
      <point x="298" y="377"/>
      <point x="300" y="403"/>
      <point x="300" y="422" type="curve" smooth="yes"/>
      <point x="300" y="458"/>
      <point x="291" y="485"/>
      <point x="262" y="485" type="curve" smooth="yes"/>
      <point x="216" y="485"/>
      <point x="184" y="420"/>
      <point x="144" y="281" type="curve"/>
      <point x="133" y="308" type="line"/>
      <point x="175" y="454"/>
      <point x="219" y="528"/>
      <point x="288" y="528" type="curve" smooth="yes"/>
      <point x="348" y="528"/>
      <point x="378" y="478"/>
      <point x="378" y="408" type="curve" smooth="yes"/>
      <point x="378" y="388"/>
      <point x="377" y="368"/>
      <point x="373" y="349" type="curve" smooth="yes"/>
    </contour>
  </outline>
</glyph>
<glyph name="i" format="2">
  <advance width="214"/>
  <unicode hex="0069"/>
  <anchor x="110" y="518" name="top"/>
  <anchor x="153" y="-10" name="right"/>
  <anchor x="108" y="-10" name="bottom"/>
  <outline>
    <contour>
      <point x="91" y="442" type="curve"/>
      <point x="53" y="124" type="line" smooth="yes"/>
      <point x="50" y="109"/>
      <point x="49" y="96"/>
      <point x="49" y="84" type="curve" smooth="yes"/>
      <point x="49" y="20"/>
      <point x="78" y="-10"/>
      <point x="121" y="-10" type="curve" smooth="yes"/>
      <point x="152" y="-10"/>
      <point x="178" y="10"/>
      <point x="192" y="28" type="curve"/>
      <point x="198" y="60" type="line"/>
      <point x="185" y="49"/>
      <point x="167" y="31"/>
      <point x="148" y="31" type="curve" smooth="yes"/>
      <point x="131" y="31"/>
      <point x="124" y="41"/>
      <point x="124" y="67" type="curve" smooth="yes"/>
      <point x="124" y="75"/>
      <point x="125" y="86"/>
      <point x="127" y="97" type="curve" smooth="yes"/>
      <point x="179" y="518" type="line"/>
      <point x="46" y="518" type="line"/>
      <point x="42" y="488" type="line"/>
      <point x="50" y="486" type="line" smooth="yes"/>
      <point x="80" y="477"/>
      <point x="94" y="470"/>
    </contour>
    <contour>
      <point x="157" y="638" type="curve" smooth="yes"/>
      <point x="186" y="638"/>
      <point x="206" y="662"/>
      <point x="206" y="701" type="curve" smooth="yes"/>
      <point x="206" y="739"/>
      <point x="186" y="763"/>
      <point x="157" y="763" type="curve" smooth="yes"/>
      <point x="128" y="763"/>
      <point x="106" y="739"/>
      <point x="106" y="701" type="curve" smooth="yes"/>
      <point x="106" y="662"/>
      <point x="128" y="638"/>
    </contour>
  </outline>
</glyph>
<glyph name="j" format="2">
  <advance width="210"/>
  <unicode hex="006A"/>
  <outline>
    <contour>
      <point x="31" y="-72" type="line" smooth="yes"/>
      <point x="19" y="-168"/>
      <point x="-1" y="-202"/>
      <point x="-43" y="-202" type="curve" smooth="yes"/>
      <point x="-64" y="-202"/>
      <point x="-81" y="-194"/>
      <point x="-93" y="-184" type="curve"/>
      <point x="-98" y="-216" type="line"/>
      <point x="-84" y="-225"/>
      <point x="-59" y="-236"/>
      <point x="-30" y="-236" type="curve" smooth="yes"/>
      <point x="45" y="-236"/>
      <point x="96" y="-192"/>
      <point x="114" y="-54" type="curve" smooth="yes"/>
      <point x="183" y="518" type="line"/>
      <point x="50" y="518" type="line"/>
      <point x="47" y="488" type="line"/>
      <point x="54" y="486" type="line" smooth="yes"/>
      <point x="84" y="477"/>
      <point x="98" y="470"/>
      <point x="95" y="442" type="curve" smooth="yes"/>
    </contour>
    <contour>
      <point x="161" y="638" type="curve" smooth="yes"/>
      <point x="190" y="638"/>
      <point x="211" y="662"/>
      <point x="211" y="701" type="curve" smooth="yes"/>
      <point x="211" y="739"/>
      <point x="190" y="763"/>
      <point x="161" y="763" type="curve" smooth="yes"/>
      <point x="132" y="763"/>
      <point x="111" y="739"/>
      <point x="111" y="701" type="curve" smooth="yes"/>
      <point x="111" y="662"/>
      <point x="132" y="638"/>
    </contour>
  </outline>
</glyph>
<glyph name="k" format="2">
  <advance width="394"/>
  <unicode hex="006B"/>
  <anchor x="192" y="0" name="bottom"/>
  <outline>
    <contour>
      <point x="280" y="154" type="line" smooth="yes"/>
      <point x="307" y="50"/>
      <point x="315" y="31"/>
      <point x="340" y="31" type="curve" smooth="yes"/>
      <point x="353" y="31"/>
      <point x="364" y="39"/>
      <point x="376" y="52" type="curve"/>
      <point x="371" y="20" type="line"/>
      <point x="358" y="3"/>
      <point x="333" y="-10"/>
      <point x="305" y="-10" type="curve" smooth="yes"/>
      <point x="257" y="-10"/>
      <point x="236" y="17"/>
      <point x="207" y="133" type="curve" smooth="yes"/>
      <point x="170" y="283" type="line"/>
      <point x="171" y="288" type="line"/>
      <point x="249" y="364"/>
      <point x="296" y="434"/>
      <point x="332" y="518" type="curve"/>
      <point x="400" y="518" type="line"/>
      <point x="400" y="513" type="line"/>
      <point x="357" y="437"/>
      <point x="286" y="369"/>
      <point x="196" y="279" type="curve"/>
      <point x="233" y="328" type="line"/>
    </contour>
    <contour>
      <point x="34" y="0" type="line"/>
      <point x="118" y="673" type="line" smooth="yes"/>
      <point x="122" y="702"/>
      <point x="107" y="709"/>
      <point x="77" y="718" type="curve" smooth="yes"/>
      <point x="69" y="720" type="line"/>
      <point x="73" y="750" type="line"/>
      <point x="206" y="750" type="line"/>
      <point x="112" y="0" type="line"/>
    </contour>
  </outline>
</glyph>
<glyph name="l" format="2">
  <advance width="208"/>
  <unicode hex="006C"/>
  <anchor x="104" y="746" name="top"/>
  <anchor x="206" y="735" name="right"/>
  <anchor x="260" y="391" name="mid"/>
  <anchor x="107" y="0" name="bottom"/>
  <outline>
    <contour>
      <point x="121" y="97" type="curve" smooth="yes"/>
      <point x="201" y="750" type="line"/>
      <point x="68" y="750" type="line"/>
      <point x="64" y="720" type="line"/>
      <point x="73" y="718" type="line" smooth="yes"/>
      <point x="102" y="709"/>
      <point x="117" y="702"/>
      <point x="114" y="673" type="curve" smooth="yes"/>
      <point x="47" y="124" type="line" smooth="yes"/>
      <point x="44" y="109"/>
      <point x="42" y="96"/>
      <point x="42" y="84" type="curve" smooth="yes"/>
      <point x="42" y="20"/>
      <point x="72" y="-10"/>
      <point x="114" y="-10" type="curve" smooth="yes"/>
      <point x="145" y="-10"/>
      <point x="172" y="10"/>
      <point x="185" y="28" type="curve"/>
      <point x="191" y="60" type="line"/>
      <point x="179" y="49"/>
      <point x="160" y="31"/>
      <point x="141" y="31" type="curve" smooth="yes"/>
      <point x="125" y="31"/>
      <point x="117" y="41"/>
      <point x="117" y="67" type="curve" smooth="yes"/>
      <point x="117" y="75"/>
      <point x="119" y="86"/>
    </contour>
  </outline>
</glyph>
<glyph name="m" format="2">
  <advance width="631"/>
  <unicode hex="006D"/>
  <anchor x="317" y="-10" name="bottom"/>
  <outline>
    <contour>
      <point x="37" y="0" type="line"/>
      <point x="92" y="442" type="line" smooth="yes"/>
      <point x="95" y="470"/>
      <point x="81" y="477"/>
      <point x="51" y="486" type="curve" smooth="yes"/>
      <point x="44" y="488" type="line"/>
      <point x="47" y="518" type="line"/>
      <point x="175" y="518" type="line"/>
      <point x="155" y="351" type="line"/>
      <point x="159" y="342" type="line"/>
      <point x="116" y="0" type="line"/>
    </contour>
    <contour>
      <point x="545" y="97" type="line" smooth="yes"/>
      <point x="543" y="85"/>
      <point x="541" y="74"/>
      <point x="541" y="66" type="curve" smooth="yes"/>
      <point x="541" y="41"/>
      <point x="549" y="31"/>
      <point x="565" y="31" type="curve" smooth="yes"/>
      <point x="584" y="31"/>
      <point x="603" y="49"/>
      <point x="615" y="60" type="curve"/>
      <point x="609" y="28" type="line"/>
      <point x="595" y="10"/>
      <point x="569" y="-10"/>
      <point x="538" y="-10" type="curve" smooth="yes"/>
      <point x="495" y="-10"/>
      <point x="466" y="20"/>
      <point x="466" y="84" type="curve" smooth="yes"/>
      <point x="466" y="96"/>
      <point x="468" y="109"/>
      <point x="470" y="124" type="curve" smooth="yes"/>
      <point x="498" y="355" type="line" smooth="yes"/>
      <point x="501" y="377"/>
      <point x="503" y="402"/>
      <point x="503" y="422" type="curve" smooth="yes"/>
      <point x="503" y="457"/>
      <point x="497" y="484"/>
      <point x="469" y="484" type="curve" smooth="yes"/>
      <point x="428" y="484"/>
      <point x="395" y="422"/>
      <point x="355" y="281" type="curve"/>
      <point x="344" y="308" type="line"/>
      <point x="388" y="455"/>
      <point x="426" y="528"/>
      <point x="495" y="528" type="curve" smooth="yes"/>
      <point x="552" y="528"/>
      <point x="582" y="478"/>
      <point x="582" y="408" type="curve" smooth="yes"/>
      <point x="582" y="388"/>
      <point x="580" y="368"/>
      <point x="577" y="349" type="curve" smooth="yes"/>
    </contour>
    <contour>
      <point x="245" y="0" type="line"/>
      <point x="290" y="355" type="line" smooth="yes"/>
      <point x="293" y="377"/>
      <point x="295" y="402"/>
      <point x="295" y="422" type="curve" smooth="yes"/>
      <point x="295" y="457"/>
      <point x="289" y="484"/>
      <point x="261" y="484" type="curve" smooth="yes"/>
      <point x="219" y="484"/>
      <point x="187" y="422"/>
      <point x="147" y="281" type="curve"/>
      <point x="137" y="308" type="line"/>
      <point x="181" y="455"/>
      <point x="219" y="528"/>
      <point x="287" y="528" type="curve" smooth="yes"/>
      <point x="344" y="528"/>
      <point x="374" y="478"/>
      <point x="374" y="408" type="curve" smooth="yes"/>
      <point x="374" y="388"/>
      <point x="371" y="368"/>
      <point x="369" y="349" type="curve" smooth="yes"/>
      <point x="323" y="0" type="line"/>
    </contour>
  </outline>
</glyph>
<glyph name="o" format="2">
  <advance width="409"/>
  <unicode hex="006F"/>
  <anchor x="203" y="518" name="top"/>
  <anchor x="302" y="0" name="right"/>
  <anchor x="203" y="0" name="bottom"/>
  <outline>
    <contour>
      <point x="24" y="233" type="curve" smooth="yes"/>
      <point x="24" y="89"/>
      <point x="89" y="-10"/>
      <point x="188" y="-10" type="curve" smooth="yes"/>
      <point x="310" y="-10"/>
      <point x="389" y="134"/>
      <point x="389" y="286" type="curve" smooth="yes"/>
      <point x="389" y="429"/>
      <point x="324" y="528"/>
      <point x="224" y="528" type="curve" smooth="yes"/>
      <point x="104" y="528"/>
      <point x="24" y="384"/>
    </contour>
    <contour>
      <point x="295" y="186" type="curve" smooth="yes"/>
      <point x="279" y="97"/>
      <point x="245" y="23"/>
      <point x="187" y="23" type="curve"/>
      <point x="137" y="23"/>
      <point x="107" y="85"/>
      <point x="107" y="205" type="curve" smooth="yes"/>
      <point x="107" y="246"/>
      <point x="110" y="291"/>
      <point x="118" y="332" type="curve" smooth="yes"/>
      <point x="134" y="422"/>
      <point x="168" y="495"/>
      <point x="225" y="495" type="curve"/>
      <point x="276" y="495"/>
      <point x="306" y="433"/>
      <point x="306" y="313" type="curve" smooth="yes"/>
      <point x="306" y="272"/>
      <point x="302" y="227"/>
    </contour>
  </outline>
</glyph>
<glyph name="p" format="2">
  <advance width="431"/>
  <unicode hex="0070"/>
  <outline>
    <contour>
      <point x="-44" y="-223" type="line"/>
      <point x="146" y="-223" type="line"/>
      <point x="150" y="-193" type="line"/>
      <point x="142" y="-193" type="line" smooth="yes"/>
      <point x="137" y="-193"/>
      <point x="93" y="-191"/>
      <point x="93" y="-182" type="curve" smooth="yes"/>
      <point x="164" y="384" type="line"/>
      <point x="159" y="386" type="line"/>
      <point x="175" y="518" type="line"/>
      <point x="47" y="518" type="line"/>
      <point x="44" y="488" type="line"/>
      <point x="51" y="486" type="line" smooth="yes"/>
      <point x="81" y="477"/>
      <point x="95" y="470"/>
      <point x="92" y="442" type="curve" smooth="yes"/>
      <point x="17" y="-159" type="line" smooth="yes"/>
      <point x="15" y="-183"/>
      <point x="-6" y="-193"/>
      <point x="-39" y="-193" type="curve"/>
      <point x="-40" y="-193" type="line"/>
    </contour>
    <contour>
      <point x="411" y="329" type="curve" smooth="yes"/>
      <point x="411" y="448"/>
      <point x="363" y="528"/>
      <point x="294" y="528" type="curve" smooth="yes"/>
      <point x="216" y="528"/>
      <point x="173" y="458"/>
      <point x="130" y="306" type="curve"/>
      <point x="142" y="284" type="line"/>
      <point x="180" y="411"/>
      <point x="211" y="485"/>
      <point x="267" y="485" type="curve" smooth="yes"/>
      <point x="307" y="485"/>
      <point x="328" y="427"/>
      <point x="328" y="342" type="curve" smooth="yes"/>
      <point x="328" y="197"/>
      <point x="284" y="23"/>
      <point x="200" y="23" type="curve" smooth="yes"/>
      <point x="157" y="23"/>
      <point x="120" y="58"/>
      <point x="95" y="127" type="curve"/>
      <point x="80" y="75" type="line"/>
      <point x="109" y="28"/>
      <point x="153" y="-10"/>
      <point x="202" y="-10" type="curve" smooth="yes"/>
      <point x="342" y="-10"/>
      <point x="411" y="174"/>
    </contour>
  </outline>
</glyph>
<glyph name="s" format="2">
  <advance width="341"/>
  <unicode hex="0073"/>
  <anchor x="174" y="518" name="top"/>
  <anchor x="177" y="0" name="bottom"/>
  <outline>
    <contour>
      <point x="157" y="-10" type="curve" smooth="yes"/>
      <point x="248" y="-10"/>
      <point x="308" y="47"/>
      <point x="308" y="145" type="curve" smooth="yes"/>
      <point x="308" y="230"/>
      <point x="258" y="266"/>
      <point x="208" y="300" type="curve" smooth="yes"/>
      <point x="164" y="329"/>
      <point x="125" y="353"/>
      <point x="125" y="409" type="curve" smooth="yes"/>
      <point x="125" y="460"/>
      <point x="151" y="496"/>
      <point x="200" y="496" type="curve" smooth="yes"/>
      <point x="236" y="496"/>
      <point x="263" y="481"/>
      <point x="285" y="437" type="curve"/>
      <point x="283" y="460"/>
      <point x="275" y="478"/>
      <point x="260" y="492" type="curve"/>
      <point x="247" y="384" type="line"/>
      <point x="309" y="384" type="line"/>
      <point x="321" y="473" type="line"/>
      <point x="297" y="504"/>
      <point x="250" y="528"/>
      <point x="201" y="528" type="curve" smooth="yes"/>
      <point x="118" y="528"/>
      <point x="61" y="471"/>
      <point x="61" y="384" type="curve" smooth="yes"/>
      <point x="61" y="297"/>
      <point x="111" y="261"/>
      <point x="158" y="229" type="curve" smooth="yes"/>
      <point x="204" y="199"/>
      <point x="240" y="173"/>
      <point x="240" y="118" type="curve" smooth="yes"/>
      <point x="240" y="63"/>
      <point x="211" y="23"/>
      <point x="159" y="23" type="curve" smooth="yes"/>
      <point x="118" y="23"/>
      <point x="83" y="40"/>
      <point x="65" y="72" type="curve"/>
      <point x="66" y="61"/>
      <point x="70" y="52"/>
      <point x="77" y="45" type="curve"/>
      <point x="92" y="158" type="line"/>
      <point x="25" y="158" type="line"/>
      <point x="13" y="62" type="line"/>
      <point x="30" y="34"/>
      <point x="90" y="-10"/>
    </contour>
  </outline>
</glyph>
<glyph name="t" format="2">
  <advance width="260"/>
  <unicode hex="0074"/>
  <anchor x="91" y="675" name="top"/>
  <anchor x="225" y="681" name="right"/>
  <anchor x="178" y="0" name="bottom"/>
  <outline>
    <contour>
      <point x="148" y="-10" type="curve" smooth="yes"/>
      <point x="180" y="-10"/>
      <point x="204" y="11"/>
      <point x="216" y="24" type="curve"/>
      <point x="221" y="61" type="line"/>
      <point x="209" y="47"/>
      <point x="190" y="27"/>
      <point x="165" y="27" type="curve" smooth="yes"/>
      <point x="141" y="27"/>
      <point x="129" y="45"/>
      <point x="129" y="88" type="curve" smooth="yes"/>
      <point x="129" y="110"/>
      <point x="131" y="130"/>
      <point x="135" y="158" type="curve" smooth="yes"/>
      <point x="194" y="648" type="line"/>
      <point x="140" y="648" type="line"/>
      <point x="126" y="587" type="line" smooth="yes"/>
      <point x="113" y="529"/>
      <point x="91" y="513"/>
      <point x="49" y="513" type="curve" smooth="yes"/>
      <point x="47" y="513" type="line"/>
      <point x="44" y="486" type="line"/>
      <point x="259" y="486" type="line"/>
      <point x="263" y="518" type="line"/>
      <point x="113" y="518" type="line"/>
      <point x="97" y="502" type="line"/>
      <point x="57" y="169" type="line" smooth="yes"/>
      <point x="55" y="146"/>
      <point x="52" y="126"/>
      <point x="52" y="105" type="curve" smooth="yes"/>
      <point x="52" y="20"/>
      <point x="96" y="-10"/>
    </contour>
  </outline>
</glyph>
<glyph name="u" format="2">
  <advance width="424"/>
  <unicode hex="0075"/>
  <anchor x="187" y="518" name="top"/>
  <anchor x="345" y="0" name="right"/>
  <anchor x="184" y="0" name="bottom"/>
  <outline>
    <contour>
      <point x="134" y="163" type="curve" smooth="yes"/>
      <point x="179" y="518" type="line"/>
      <point x="46" y="518" type="line"/>
      <point x="42" y="488" type="line"/>
      <point x="50" y="486" type="line" smooth="yes"/>
      <point x="80" y="477"/>
      <point x="95" y="470"/>
      <point x="91" y="442" type="curve" smooth="yes"/>
      <point x="55" y="170" type="line" smooth="yes"/>
      <point x="53" y="150"/>
      <point x="51" y="131"/>
      <point x="51" y="110" type="curve" smooth="yes"/>
      <point x="51" y="40"/>
      <point x="80" y="-10"/>
      <point x="138" y="-10" type="curve" smooth="yes"/>
      <point x="209" y="-10"/>
      <point x="244" y="63"/>
      <point x="291" y="211" type="curve"/>
      <point x="281" y="237" type="line"/>
      <point x="241" y="98"/>
      <point x="208" y="34"/>
      <point x="165" y="34" type="curve" smooth="yes"/>
      <point x="137" y="34"/>
      <point x="129" y="61"/>
      <point x="129" y="96" type="curve" smooth="yes"/>
      <point x="129" y="116"/>
      <point x="132" y="142"/>
    </contour>
    <contour>
      <point x="331" y="-10" type="curve" smooth="yes"/>
      <point x="361" y="-10"/>
      <point x="388" y="10"/>
      <point x="402" y="28" type="curve"/>
      <point x="407" y="60" type="line"/>
      <point x="395" y="49"/>
      <point x="377" y="31"/>
      <point x="358" y="31" type="curve" smooth="yes"/>
      <point x="342" y="31"/>
      <point x="334" y="41"/>
      <point x="334" y="67" type="curve" smooth="yes"/>
      <point x="334" y="75"/>
      <point x="335" y="85"/>
      <point x="337" y="97" type="curve" smooth="yes"/>
      <point x="388" y="518" type="line"/>
      <point x="310" y="518" type="line"/>
      <point x="265" y="162" type="line"/>
      <point x="266" y="155" type="line"/>
      <point x="262" y="133"/>
      <point x="260" y="103"/>
      <point x="260" y="85" type="curve" smooth="yes"/>
      <point x="260" y="22"/>
      <point x="286" y="-10"/>
    </contour>
  </outline>
</glyph>
<glyph name="x" format="2">
  <advance width="371"/>
  <unicode hex="0078"/>
  <outline>
    <contour>
      <point x="213" y="272" type="line"/>
      <point x="371" y="513" type="line"/>
      <point x="371" y="518" type="line"/>
      <point x="309" y="518" type="line"/>
      <point x="202" y="290" type="line"/>
    </contour>
    <contour>
      <point x="1" y="0" type="line"/>
      <point x="64" y="0" type="line"/>
      <point x="175" y="246" type="line"/>
      <point x="160" y="267" type="line"/>
      <point x="1" y="5" type="line"/>
    </contour>
    <contour>
      <point x="286" y="-10" type="curve" smooth="yes"/>
      <point x="314" y="-10"/>
      <point x="337" y="3"/>
      <point x="350" y="17" type="curve"/>
      <point x="352" y="47" type="line"/>
      <point x="343" y="39"/>
      <point x="331" y="31"/>
      <point x="318" y="31" type="curve" smooth="yes"/>
      <point x="295" y="31"/>
      <point x="284" y="54"/>
      <point x="265" y="126" type="curve" smooth="yes"/>
      <point x="161" y="518" type="line"/>
      <point x="51" y="518" type="line"/>
      <point x="47" y="488" type="line"/>
      <point x="55" y="486" type="line" smooth="yes"/>
      <point x="85" y="478"/>
      <point x="96" y="470"/>
      <point x="105" y="436" type="curve" smooth="yes"/>
      <point x="194" y="99" type="line" smooth="yes"/>
      <point x="215" y="25"/>
      <point x="237" y="-10"/>
    </contour>
  </outline>
</glyph>
<glyph name="z" format="2">
  <advance width="358"/>
  <unicode hex="007A"/>
  <anchor x="183" y="518" name="top"/>
  <anchor x="204" y="0" name="bottom"/>
  <outline>
    <contour>
      <point x="243" y="-10" type="curve" smooth="yes"/>
      <point x="303" y="-10"/>
      <point x="336" y="55"/>
      <point x="338" y="178" type="curve"/>
      <point x="323" y="185" type="line"/>
      <point x="313" y="101"/>
      <point x="280" y="73"/>
      <point x="246" y="73" type="curve" smooth="yes"/>
      <point x="216" y="73"/>
      <point x="179" y="80"/>
      <point x="113" y="131" type="curve"/>
      <point x="83" y="81" type="line"/>
      <point x="161" y="10"/>
      <point x="200" y="-10"/>
    </contour>
    <contour>
      <point x="38" y="0" type="line"/>
      <point x="349" y="486" type="line"/>
      <point x="353" y="518" type="line"/>
      <point x="76" y="518" type="line"/>
      <point x="51" y="342" type="line"/>
      <point x="72" y="342" type="line"/>
      <point x="88" y="405" type="line" smooth="yes"/>
      <point x="96" y="436"/>
      <point x="116" y="441"/>
      <point x="168" y="441" type="curve" smooth="yes"/>
      <point x="300" y="441" type="line"/>
      <point x="304" y="488" type="line"/>
      <point x="8" y="6" type="line"/>
      <point x="7" y="0" type="line"/>
    </contour>
  </outline>
</glyph>
<glyph name="asciitilde" format="2">
  <advance width="377"/>
  <unicode hex="007E"/>
  <outline>
    <contour>
      <point x="145" y="409" type="curve" smooth="yes"/>
      <point x="94" y="409"/>
      <point x="68" y="360"/>
      <point x="53" y="282" type="curve"/>
      <point x="76" y="271" type="line"/>
      <point x="83" y="315"/>
      <point x="95" y="338"/>
      <point x="118" y="338" type="curve" smooth="yes"/>
      <point x="150" y="338"/>
      <point x="193" y="269"/>
      <point x="240" y="269" type="curve" smooth="yes"/>
      <point x="292" y="269"/>
      <point x="319" y="322"/>
      <point x="336" y="396" type="curve"/>
      <point x="315" y="408" type="line"/>
      <point x="303" y="364"/>
      <point x="290" y="341"/>
      <point x="266" y="341" type="curve" smooth="yes"/>
      <point x="231" y="341"/>
      <point x="193" y="409"/>
    </contour>
  </outline>
</glyph>
<glyph name="cent" format="2">
  <advance width="393"/>
  <unicode hex="00A2"/>
  <outline>
    <contour>
      <point x="187" y="-10" type="curve" smooth="yes"/>
      <point x="256" y="-10"/>
      <point x="312" y="32"/>
      <point x="343" y="134" type="curve"/>
      <point x="321" y="154" type="line"/>
      <point x="305" y="97"/>
      <point x="267" y="27"/>
      <point x="198" y="27" type="curve" smooth="yes"/>
      <point x="140" y="27"/>
      <point x="103" y="91"/>
      <point x="103" y="214" type="curve" smooth="yes"/>
      <point x="103" y="370"/>
      <point x="157" y="495"/>
      <point x="241" y="495" type="curve" smooth="yes"/>
      <point x="269" y="495"/>
      <point x="305" y="486"/>
      <point x="319" y="447" type="curve"/>
      <point x="322" y="463"/>
      <point x="317" y="475"/>
      <point x="308" y="484" type="curve"/>
      <point x="294" y="369" type="line"/>
      <point x="355" y="369" type="line"/>
      <point x="367" y="469" type="line"/>
      <point x="355" y="486"/>
      <point x="314" y="528"/>
      <point x="243" y="528" type="curve" smooth="yes"/>
      <point x="115" y="528"/>
      <point x="26" y="396"/>
      <point x="26" y="226" type="curve" smooth="yes"/>
      <point x="26" y="70"/>
      <point x="99" y="-10"/>
    </contour>
    <contour>
      <point x="145" y="-126" type="line"/>
      <point x="173" y="-126" type="line"/>
      <point x="189" y="-2" type="line"/>
      <point x="189" y="2" type="line"/>
      <point x="251" y="506" type="line"/>
      <point x="252" y="515" type="line"/>
      <point x="266" y="624" type="line"/>
      <point x="238" y="624" type="line"/>
      <point x="225" y="516" type="line"/>
      <point x="223" y="504" type="line"/>
      <point x="162" y="6" type="line"/>
      <point x="161" y="-1" type="line"/>
    </contour>
  </outline>
</glyph>
<glyph name="sterling" format="2">
  <advance width="393"/>
  <unicode hex="00A3"/>
  <outline>
    <contour>
      <point x="259" y="689" type="curve" smooth="yes"/>
      <point x="303" y="689"/>
      <point x="328" y="664"/>
      <point x="341" y="634" type="curve"/>
      <point x="345" y="646"/>
      <point x="341" y="679"/>
      <point x="319" y="681" type="curve"/>
      <point x="304" y="570" type="line"/>
      <point x="375" y="570" type="line"/>
      <point x="386" y="663" type="line"/>
      <point x="369" y="687"/>
      <point x="323" y="720"/>
      <point x="258" y="720" type="curve" smooth="yes"/>
      <point x="152" y="720"/>
      <point x="81" y="641"/>
      <point x="81" y="510" type="curve" smooth="yes"/>
      <point x="81" y="414"/>
      <point x="113" y="351"/>
      <point x="113" y="253" type="curve" smooth="yes"/>
      <point x="113" y="148"/>
      <point x="87" y="48"/>
      <point x="-10" y="23" type="curve"/>
      <point x="-15" y="-13" type="line"/>
      <point x="120" y="16"/>
      <point x="174" y="143"/>
      <point x="174" y="291" type="curve" smooth="yes"/>
      <point x="174" y="371"/>
      <point x="163" y="431"/>
      <point x="163" y="506" type="curve" smooth="yes"/>
      <point x="163" y="645"/>
      <point x="202" y="689"/>
    </contour>
    <contour>
      <point x="27" y="356" type="line"/>
      <point x="22" y="323" type="line"/>
      <point x="294" y="323" type="line"/>
      <point x="298" y="356" type="line"/>
    </contour>
    <contour>
      <point x="257" y="-10" type="curve" smooth="yes"/>
      <point x="307" y="-10"/>
      <point x="341" y="59"/>
      <point x="363" y="168" type="curve"/>
      <point x="344" y="180" type="line"/>
      <point x="324" y="107"/>
      <point x="301" y="84"/>
      <point x="264" y="84" type="curve" smooth="yes"/>
      <point x="231" y="84"/>
      <point x="195" y="91"/>
      <point x="137" y="161" type="curve"/>
      <point x="123" y="139" type="line"/>
      <point x="185" y="48"/>
      <point x="207" y="-10"/>
    </contour>
  </outline>
</glyph>
<glyph name="dieresis" format="2">
  <advance width="351"/>
  <unicode hex="00A8"/>
  <anchor x="159" y="526" name="_top"/>
  <outline>
    <contour>
      <point x="139" y="626" type="curve" smooth="yes"/>
      <point x="168" y="626"/>
      <point x="187" y="650"/>
      <point x="187" y="689" type="curve" smooth="yes"/>
      <point x="187" y="727"/>
      <point x="168" y="750"/>
      <point x="139" y="750" type="curve" smooth="yes"/>
      <point x="111" y="750"/>
      <point x="92" y="727"/>
      <point x="92" y="689" type="curve" smooth="yes"/>
      <point x="92" y="650"/>
      <point x="111" y="626"/>
    </contour>
    <contour>
      <point x="289" y="626" type="curve" smooth="yes"/>
      <point x="317" y="626"/>
      <point x="337" y="650"/>
      <point x="337" y="689" type="curve" smooth="yes"/>
      <point x="337" y="727"/>
      <point x="317" y="750"/>
      <point x="289" y="750" type="curve" smooth="yes"/>
      <point x="262" y="750"/>
      <point x="242" y="727"/>
      <point x="242" y="689" type="curve" smooth="yes"/>
      <point x="242" y="650"/>
      <point x="262" y="626"/>
    </contour>
  </outline>
</glyph>
<glyph name="copyright" format="2">
  <advance width="593"/>
  <unicode hex="00A9"/>
  <outline>
    <contour>
      <point x="305" y="531" type="curve" smooth="yes"/>
      <point x="359" y="531"/>
      <point x="390" y="479"/>
      <point x="403" y="414" type="curve"/>
      <point x="421" y="414" type="line"/>
      <point x="421" y="552" type="line"/>
      <point x="403" y="552" type="line"/>
      <point x="393" y="467" type="line"/>
      <point x="407" y="455" type="line"/>
      <point x="398" y="522"/>
      <point x="350" y="563"/>
      <point x="297" y="563" type="curve" smooth="yes"/>
      <point x="217" y="563"/>
      <point x="153" y="476"/>
      <point x="153" y="354" type="curve" smooth="yes"/>
      <point x="153" y="231"/>
      <point x="215" y="147"/>
      <point x="300" y="147" type="curve" smooth="yes"/>
      <point x="368" y="147"/>
      <point x="416" y="215"/>
      <point x="430" y="295" type="curve"/>
      <point x="409" y="306" type="line"/>
      <point x="396" y="235"/>
      <point x="362" y="179"/>
      <point x="305" y="179" type="curve" smooth="yes"/>
      <point x="251" y="179"/>
      <point x="216" y="246"/>
      <point x="216" y="354" type="curve" smooth="yes"/>
      <point x="216" y="471"/>
      <point x="254" y="531"/>
    </contour>
    <contour>
      <point x="61" y="355" type="curve" smooth="yes"/>
      <point x="61" y="551"/>
      <point x="161" y="705"/>
      <point x="299" y="705" type="curve" smooth="yes"/>
      <point x="438" y="705"/>
      <point x="538" y="551"/>
      <point x="538" y="355" type="curve" smooth="yes"/>
      <point x="538" y="159"/>
      <point x="438" y="5"/>
      <point x="299" y="5" type="curve" smooth="yes"/>
      <point x="161" y="5"/>
      <point x="61" y="159"/>
    </contour>
    <contour>
      <point x="30" y="355" type="curve" smooth="yes"/>
      <point x="30" y="138"/>
      <point x="147" y="-29"/>
      <point x="299" y="-29" type="curve" smooth="yes"/>
      <point x="453" y="-29"/>
      <point x="569" y="138"/>
      <point x="569" y="355" type="curve" smooth="yes"/>
      <point x="569" y="572"/>
      <point x="453" y="739"/>
      <point x="299" y="739" type="curve" smooth="yes"/>
      <point x="147" y="739"/>
      <point x="30" y="572"/>
    </contour>
  </outline>
</glyph>
<glyph name="logicalnot" format="2">
  <advance width="393"/>
  <unicode hex="00AC"/>
  <outline>
    <contour>
      <point x="314" y="361" type="line"/>
      <point x="289" y="169" type="line"/>
      <point x="314" y="169" type="line"/>
      <point x="340" y="373" type="line"/>
      <point x="69" y="373" type="line"/>
      <point x="65" y="342" type="line"/>
      <point x="326" y="342" type="line"/>
    </contour>
  </outline>
</glyph>
<glyph name="macron" format="2">
  <advance width="351"/>
  <unicode hex="00AF"/>
  <anchor x="167" y="526" name="_top"/>
  <outline>
    <contour>
      <point x="96" y="686" type="line"/>
      <point x="91" y="650" type="line"/>
      <point x="299" y="650" type="line"/>
      <point x="304" y="686" type="line"/>
    </contour>
  </outline>
</glyph>
<glyph name="degree" format="2">
  <advance width="341"/>
  <unicode hex="00B0"/>
  <outline>
    <contour>
      <point x="182" y="408" type="curve" smooth="yes"/>
      <point x="124" y="408"/>
      <point x="84" y="467"/>
      <point x="84" y="548" type="curve" smooth="yes"/>
      <point x="84" y="630"/>
      <point x="124" y="689"/>
      <point x="182" y="689" type="curve" smooth="yes"/>
      <point x="240" y="689"/>
      <point x="280" y="630"/>
      <point x="280" y="548" type="curve" smooth="yes"/>
      <point x="280" y="467"/>
      <point x="240" y="408"/>
    </contour>
    <contour>
      <point x="182" y="368" type="curve" smooth="yes"/>
      <point x="257" y="368"/>
      <point x="316" y="441"/>
      <point x="316" y="548" type="curve" smooth="yes"/>
      <point x="316" y="656"/>
      <point x="257" y="729"/>
      <point x="182" y="729" type="curve" smooth="yes"/>
      <point x="108" y="729"/>
      <point x="49" y="656"/>
      <point x="49" y="548" type="curve" smooth="yes"/>
      <point x="49" y="441"/>
      <point x="108" y="368"/>
    </contour>
  </outline>
</glyph>
<glyph name="Eth" format="2">
  <advance width="538"/>
  <unicode hex="00D0"/>
  <outline>
    <contour>
      <point x="21" y="340" type="line"/>
      <point x="295" y="340" type="line"/>
      <point x="301" y="374" type="line"/>
      <point x="25" y="374" type="line"/>
    </contour>
    <component base="D"/>
  </outline>
</glyph>
<glyph name="multiply" format="2">
  <advance width="393"/>
  <unicode hex="00D7"/>
  <outline>
    <contour>
      <point x="60" y="150" type="line"/>
      <point x="356" y="506" type="line"/>
      <point x="341" y="531" type="line"/>
      <point x="45" y="175" type="line"/>
    </contour>
    <contour>
      <point x="294" y="150" type="line"/>
      <point x="313" y="172" type="line"/>
      <point x="107" y="531" type="line"/>
      <point x="87" y="510" type="line"/>
    </contour>
  </outline>
</glyph>
<glyph name="Oslash" format="2">
  <advance width="545"/>
  <unicode hex="00D8"/>
  <anchor x="272" y="731" name="top"/>
  <outline>
    <contour>
      <point x="1" y="-10" type="line"/>
      <point x="37" y="-10" type="line"/>
      <point x="546" y="720" type="line"/>
      <point x="509" y="720" type="line"/>
    </contour>
    <contour>
      <point x="252" y="-10" type="curve" smooth="yes"/>
      <point x="406" y="-10"/>
      <point x="526" y="164"/>
      <point x="526" y="388" type="curve" smooth="yes"/>
      <point x="526" y="586"/>
      <point x="427" y="720"/>
      <point x="300" y="720" type="curve" smooth="yes"/>
      <point x="146" y="720"/>
      <point x="26" y="546"/>
      <point x="26" y="322" type="curve" smooth="yes"/>
      <point x="26" y="124"/>
      <point x="124" y="-10"/>
    </contour>
    <contour>
      <point x="253" y="26" type="curve" smooth="yes"/>
      <point x="171" y="26"/>
      <point x="113" y="121"/>
      <point x="113" y="287" type="curve" smooth="yes"/>
      <point x="113" y="323"/>
      <point x="116" y="361"/>
      <point x="121" y="397" type="curve" smooth="yes"/>
      <point x="142" y="562"/>
      <point x="205" y="684"/>
      <point x="299" y="684" type="curve" smooth="yes"/>
      <point x="381" y="684"/>
      <point x="439" y="589"/>
      <point x="439" y="425" type="curve" smooth="yes"/>
      <point x="439" y="387"/>
      <point x="436" y="350"/>
      <point x="431" y="314" type="curve" smooth="yes"/>
      <point x="409" y="148"/>
      <point x="347" y="26"/>
    </contour>
  </outline>
</glyph>
<glyph name="germandbls" format="2">
  <advance width="419"/>
  <unicode hex="00DF"/>
  <outline>
    <contour>
      <point x="38" y="518" type="line"/>
      <point x="34" y="486" type="line"/>
      <point x="122" y="486" type="line"/>
      <point x="127" y="518" type="line"/>
    </contour>
    <contour>
      <point x="25" y="-223" type="line"/>
      <point x="90" y="-223" type="line"/>
      <point x="185" y="586" type="line" smooth="yes"/>
      <point x="197" y="702"/>
      <point x="228" y="727"/>
      <point x="264" y="727" type="curve" smooth="yes"/>
      <point x="301" y="727"/>
      <point x="320" y="689"/>
      <point x="320" y="625" type="curve" smooth="yes"/>
      <point x="320" y="522"/>
      <point x="282" y="456"/>
      <point x="205" y="438" type="curve"/>
      <point x="201" y="412" type="line"/>
      <point x="274" y="396"/>
      <point x="309" y="327"/>
      <point x="309" y="217" type="curve" smooth="yes"/>
      <point x="309" y="90"/>
      <point x="266" y="22"/>
      <point x="214" y="22" type="curve" smooth="yes"/>
      <point x="186" y="22"/>
      <point x="166" y="40"/>
      <point x="159" y="47" type="curve"/>
      <point x="153" y="11" type="line"/>
      <point x="167" y="1"/>
      <point x="191" y="-10"/>
      <point x="225" y="-10" type="curve" smooth="yes"/>
      <point x="316" y="-10"/>
      <point x="390" y="68"/>
      <point x="390" y="213" type="curve" smooth="yes"/>
      <point x="390" y="324"/>
      <point x="337" y="402"/>
      <point x="236" y="429" type="curve"/>
      <point x="242" y="419" type="line"/>
      <point x="244" y="434" type="line"/>
      <point x="212" y="420" type="line"/>
      <point x="313" y="430"/>
      <point x="397" y="511"/>
      <point x="397" y="612" type="curve" smooth="yes"/>
      <point x="397" y="696"/>
      <point x="352" y="758"/>
      <point x="267" y="758" type="curve" smooth="yes"/>
      <point x="187" y="758"/>
      <point x="118" y="717"/>
      <point x="105" y="584" type="curve" smooth="yes"/>
    </contour>
  </outline>
</glyph>
<glyph name="eth" format="2">
  <advance width="408"/>
  <unicode hex="00F0"/>
  <outline>
    <contour>
      <point x="187" y="-10" type="curve" smooth="yes"/>
      <point x="314" y="-10"/>
      <point x="395" y="144"/>
      <point x="395" y="345" type="curve" smooth="yes"/>
      <point x="395" y="519"/>
      <point x="338" y="678"/>
      <point x="171" y="761" type="curve"/>
      <point x="156" y="738" type="line"/>
      <point x="273" y="664"/>
      <point x="315" y="539"/>
      <point x="315" y="371" type="curve" smooth="yes"/>
      <point x="315" y="321"/>
      <point x="311" y="269"/>
      <point x="302" y="221" type="curve" smooth="yes"/>
      <point x="284" y="110"/>
      <point x="248" y="23"/>
      <point x="187" y="23" type="curve" smooth="yes"/>
      <point x="136" y="23"/>
      <point x="106" y="86"/>
      <point x="106" y="206" type="curve" smooth="yes"/>
      <point x="106" y="249"/>
      <point x="110" y="295"/>
      <point x="118" y="335" type="curve" smooth="yes"/>
      <point x="135" y="424"/>
      <point x="170" y="494"/>
      <point x="225" y="494" type="curve" smooth="yes"/>
      <point x="277" y="494"/>
      <point x="306" y="453"/>
      <point x="323" y="386" type="curve"/>
      <point x="327" y="444" type="line"/>
      <point x="304" y="497"/>
      <point x="266" y="528"/>
      <point x="216" y="528" type="curve" smooth="yes"/>
      <point x="101" y="528"/>
      <point x="25" y="385"/>
      <point x="25" y="233" type="curve" smooth="yes"/>
      <point x="25" y="89"/>
      <point x="89" y="-10"/>
    </contour>
    <contour>
      <point x="121" y="603" type="line"/>
      <point x="129" y="574" type="line"/>
      <point x="384" y="698" type="line"/>
      <point x="376" y="728" type="line"/>
    </contour>
  </outline>
</glyph>
<glyph name="divide" format="2">
  <advance width="393"/>
  <unicode hex="00F7"/>
  <outline>
    <contour>
      <point x="257" y="511" type="curve" smooth="yes"/>
      <point x="257" y="540"/>
      <point x="242" y="560"/>
      <point x="220" y="560" type="curve" smooth="yes"/>
      <point x="198" y="560"/>
      <point x="183" y="540"/>
      <point x="183" y="511" type="curve" smooth="yes"/>
      <point x="183" y="483"/>
      <point x="198" y="463"/>
      <point x="220" y="463" type="curve" smooth="yes"/>
      <point x="242" y="463"/>
      <point x="257" y="483"/>
    </contour>
    <contour>
      <point x="212" y="169" type="curve" smooth="yes"/>
      <point x="212" y="198"/>
      <point x="197" y="217"/>
      <point x="175" y="217" type="curve" smooth="yes"/>
      <point x="153" y="217"/>
      <point x="138" y="198"/>
      <point x="138" y="169" type="curve" smooth="yes"/>
      <point x="138" y="140"/>
      <point x="153" y="121"/>
      <point x="175" y="121" type="curve" smooth="yes"/>
      <point x="197" y="121"/>
      <point x="212" y="140"/>
    </contour>
    <component base="minus" xOffset="-4"/>
  </outline>
</glyph>
<glyph name="Aogonek" format="2">
  <advance width="456"/>
  <unicode hex="0104"/>
  <outline>
    <contour>
      <point x="238" y="-237" type="curve" smooth="yes"/>
      <point x="195" y="-237"/>
      <point x="163" y="-207"/>
      <point x="163" y="-155" type="curve" smooth="yes"/>
      <point x="163" y="-78"/>
      <point x="229" y="-31"/>
      <point x="328" y="36" type="curve"/>
      <point x="337" y="20" type="line"/>
      <point x="250" y="-50"/>
      <point x="231" y="-99"/>
      <point x="231" y="-151" type="curve" smooth="yes"/>
      <point x="231" y="-184"/>
      <point x="246" y="-200"/>
      <point x="265" y="-200" type="curve" smooth="yes"/>
      <point x="283" y="-200"/>
      <point x="297" y="-187"/>
      <point x="308" y="-170" type="curve"/>
      <point x="319" y="-191" type="line"/>
      <point x="301" y="-217"/>
      <point x="276" y="-237"/>
    </contour>
    <contour>
      <point x="99" y="251" type="line"/>
      <point x="112" y="285" type="line"/>
      <point x="295" y="285" type="line"/>
      <point x="292" y="251" type="line"/>
    </contour>
    <contour>
      <point x="248" y="653" type="line"/>
      <point x="47" y="53" type="line"/>
      <point x="46" y="41"/>
      <point x="51" y="31"/>
      <point x="86" y="31" type="curve" smooth="yes"/>
      <point x="104" y="31" type="line"/>
      <point x="100" y="0" type="line"/>
      <point x="-38" y="0" type="line"/>
      <point x="-34" y="31" type="line"/>
      <point x="-29" y="31" type="line"/>
      <point x="-8" y="31"/>
      <point x="13" y="47"/>
      <point x="27" y="89" type="curve" smooth="yes"/>
      <point x="242" y="710" type="line"/>
      <point x="312" y="710" type="line"/>
      <point x="379" y="62" type="line" smooth="yes"/>
      <point x="382" y="35"/>
      <point x="398" y="31"/>
      <point x="416" y="31" type="curve"/>
      <point x="419" y="31" type="line"/>
      <point x="416" y="0" type="line"/>
      <point x="303" y="0" type="line"/>
      <point x="238" y="668" type="line"/>
    </contour>
  </outline>
</glyph>
<glyph name="dcroat" format="2">
  <advance width="435"/>
  <unicode hex="0111"/>
  <outline>
    <contour>
      <point x="150" y="-10" type="curve" smooth="yes"/>
      <point x="230" y="-10"/>
      <point x="263" y="84"/>
      <point x="304" y="213" type="curve"/>
      <point x="288" y="233" type="line"/>
      <point x="257" y="127"/>
      <point x="228" y="33"/>
      <point x="170" y="33" type="curve" smooth="yes"/>
      <point x="128" y="33"/>
      <point x="106" y="90"/>
      <point x="106" y="174" type="curve" smooth="yes"/>
      <point x="106" y="318"/>
      <point x="151" y="490"/>
      <point x="234" y="490" type="curve" smooth="yes"/>
      <point x="276" y="490"/>
      <point x="310" y="459"/>
      <point x="337" y="390" type="curve"/>
      <point x="351" y="418" type="line"/>
      <point x="327" y="479"/>
      <point x="284" y="528"/>
      <point x="227" y="528" type="curve" smooth="yes"/>
      <point x="93" y="528"/>
      <point x="24" y="343"/>
      <point x="24" y="188" type="curve" smooth="yes"/>
      <point x="24" y="71"/>
      <point x="74" y="-10"/>
    </contour>
    <contour>
      <point x="338" y="-10" type="curve" smooth="yes"/>
      <point x="368" y="-10"/>
      <point x="396" y="10"/>
      <point x="409" y="28" type="curve"/>
      <point x="414" y="60" type="line"/>
      <point x="403" y="49"/>
      <point x="384" y="31"/>
      <point x="366" y="31" type="curve" smooth="yes"/>
      <point x="349" y="31"/>
      <point x="341" y="41"/>
      <point x="341" y="67" type="curve" smooth="yes"/>
      <point x="341" y="75"/>
      <point x="343" y="86"/>
      <point x="345" y="97" type="curve"/>
      <point x="425" y="750" type="line"/>
      <point x="346" y="750" type="line"/>
      <point x="269" y="137" type="line"/>
      <point x="273" y="138" type="line"/>
      <point x="271" y="118"/>
      <point x="270" y="101"/>
      <point x="270" y="84" type="curve" smooth="yes"/>
      <point x="270" y="19"/>
      <point x="295" y="-10"/>
    </contour>
    <contour>
      <point x="206" y="640" type="line"/>
      <point x="202" y="608" type="line"/>
      <point x="471" y="608" type="line"/>
      <point x="476" y="640" type="line"/>
    </contour>
  </outline>
</glyph>
<glyph name="Hbar" format="2">
  <advance width="548"/>
  <unicode hex="0126"/>
  <outline>
    <contour>
      <point x="147" y="383" type="line"/>
      <point x="142" y="349" type="line"/>
      <point x="413" y="349" type="line"/>
      <point x="417" y="383" type="line"/>
    </contour>
    <contour>
      <point x="45" y="507" type="line"/>
      <point x="548" y="507" type="line"/>
      <point x="553" y="542" type="line"/>
      <point x="49" y="542" type="line"/>
    </contour>
    <contour>
      <point x="-10" y="0" type="line"/>
      <point x="186" y="0" type="line"/>
      <point x="190" y="31" type="line"/>
      <point x="184" y="31" type="line" smooth="yes"/>
      <point x="162" y="31"/>
      <point x="134" y="34"/>
      <point x="135" y="41" type="curve" smooth="yes"/>
      <point x="212" y="670" type="line" smooth="yes"/>
      <point x="213" y="676"/>
      <point x="242" y="679"/>
      <point x="264" y="679" type="curve" smooth="yes"/>
      <point x="270" y="679" type="line"/>
      <point x="274" y="710" type="line"/>
      <point x="78" y="710" type="line"/>
      <point x="74" y="679" type="line"/>
      <point x="79" y="679" type="line" smooth="yes"/>
      <point x="103" y="679"/>
      <point x="129" y="673"/>
      <point x="127" y="649" type="curve" smooth="yes"/>
      <point x="55" y="62" type="line" smooth="yes"/>
      <point x="51" y="36"/>
      <point x="25" y="31"/>
      <point x="-2" y="31" type="curve" smooth="yes"/>
      <point x="-7" y="31" type="line"/>
    </contour>
    <contour>
      <point x="281" y="0" type="line"/>
      <point x="478" y="0" type="line"/>
      <point x="482" y="31" type="line"/>
      <point x="477" y="31" type="line" smooth="yes"/>
      <point x="449" y="31"/>
      <point x="426" y="38"/>
      <point x="429" y="66" type="curve" smooth="yes"/>
      <point x="500" y="643" type="line" smooth="yes"/>
      <point x="503" y="672"/>
      <point x="529" y="679"/>
      <point x="557" y="679" type="curve" smooth="yes"/>
      <point x="562" y="679" type="line"/>
      <point x="566" y="710" type="line"/>
      <point x="369" y="710" type="line"/>
      <point x="365" y="679" type="line"/>
      <point x="371" y="679" type="line" smooth="yes"/>
      <point x="393" y="679"/>
      <point x="422" y="676"/>
      <point x="421" y="670" type="curve" smooth="yes"/>
      <point x="343" y="41" type="line" smooth="yes"/>
      <point x="342" y="34"/>
      <point x="313" y="31"/>
      <point x="291" y="31" type="curve" smooth="yes"/>
      <point x="285" y="31" type="line"/>
    </contour>
  </outline>
</glyph>
<glyph name="hbar" format="2">
  <advance width="428"/>
  <unicode hex="0127"/>
  <outline>
    <contour>
      <point x="268" y="124" type="line" smooth="yes"/>
      <point x="265" y="109"/>
      <point x="263" y="96"/>
      <point x="263" y="84" type="curve" smooth="yes"/>
      <point x="263" y="20"/>
      <point x="292" y="-10"/>
      <point x="335" y="-10" type="curve" smooth="yes"/>
      <point x="366" y="-10"/>
      <point x="392" y="10"/>
      <point x="406" y="28" type="curve"/>
      <point x="412" y="60" type="line"/>
      <point x="400" y="49"/>
      <point x="382" y="31"/>
      <point x="362" y="31" type="curve" smooth="yes"/>
      <point x="346" y="31"/>
      <point x="338" y="41"/>
      <point x="338" y="66" type="curve" smooth="yes"/>
      <point x="338" y="74"/>
      <point x="340" y="85"/>
      <point x="342" y="97" type="curve" smooth="yes"/>
      <point x="373" y="349" type="line" smooth="yes"/>
      <point x="377" y="368"/>
      <point x="378" y="388"/>
      <point x="378" y="408" type="curve" smooth="yes"/>
      <point x="378" y="478"/>
      <point x="348" y="528"/>
      <point x="288" y="528" type="curve" smooth="yes"/>
      <point x="219" y="528"/>
      <point x="175" y="454"/>
      <point x="133" y="308" type="curve"/>
      <point x="144" y="281" type="line"/>
      <point x="184" y="420"/>
      <point x="216" y="485"/>
      <point x="262" y="485" type="curve" smooth="yes"/>
      <point x="291" y="485"/>
      <point x="300" y="458"/>
      <point x="300" y="422" type="curve" smooth="yes"/>
      <point x="300" y="403"/>
      <point x="298" y="377"/>
      <point x="295" y="356" type="curve" smooth="yes"/>
    </contour>
    <contour>
      <point x="34" y="0" type="line"/>
      <point x="112" y="0" type="line"/>
      <point x="206" y="750" type="line"/>
      <point x="128" y="750" type="line"/>
    </contour>
    <contour>
      <point x="316" y="608" type="line"/>
      <point x="320" y="640" type="line"/>
      <point x="50" y="640" type="line"/>
      <point x="47" y="608" type="line"/>
    </contour>
  </outline>
</glyph>
<glyph name="itilde" format="2">
  <advance width="214"/>
  <unicode hex="0129"/>
  <outline>
    <contour>
      <point x="178" y="609" type="curve" smooth="yes"/>
      <point x="214" y="609"/>
      <point x="239" y="651"/>
      <point x="254" y="730" type="curve"/>
      <point x="235" y="743" type="line"/>
      <point x="224" y="700"/>
      <point x="214" y="672"/>
      <point x="194" y="672" type="curve" smooth="yes"/>
      <point x="166" y="672"/>
      <point x="143" y="740"/>
      <point x="107" y="740" type="curve" smooth="yes"/>
      <point x="66" y="740"/>
      <point x="44" y="699"/>
      <point x="29" y="616" type="curve"/>
      <point x="48" y="605" type="line"/>
      <point x="57" y="652"/>
      <point x="69" y="678"/>
      <point x="88" y="678" type="curve" smooth="yes"/>
      <point x="112" y="678"/>
      <point x="138" y="609"/>
    </contour>
    <component base="dotlessi"/>
  </outline>
</glyph>
<glyph name="Iogonek" format="2">
  <advance width="256"/>
  <unicode hex="012E"/>
  <outline>
    <contour>
      <point x="146" y="25" type="line"/>
      <point x="58" y="-34"/>
      <point x="2" y="-83"/>
      <point x="2" y="-155" type="curve" smooth="yes"/>
      <point x="2" y="-207"/>
      <point x="33" y="-237"/>
      <point x="76" y="-237" type="curve" smooth="yes"/>
      <point x="114" y="-237"/>
      <point x="139" y="-217"/>
      <point x="157" y="-191" type="curve"/>
      <point x="147" y="-170" type="line"/>
      <point x="136" y="-187"/>
      <point x="121" y="-200"/>
      <point x="102" y="-200" type="curve" smooth="yes"/>
      <point x="84" y="-200"/>
      <point x="69" y="-184"/>
      <point x="69" y="-151" type="curve" smooth="yes"/>
      <point x="69" y="-102"/>
      <point x="84" y="-53"/>
      <point x="154" y="9" type="curve"/>
    </contour>
    <component base="I"/>
  </outline>
</glyph>
<glyph name="dotlessi" format="2">
  <advance width="214"/>
  <unicode hex="0131"/>
  <anchor x="112" y="518" name="top"/>
  <outline>
    <contour>
      <point x="127" y="97" type="curve" smooth="yes"/>
      <point x="179" y="518" type="line"/>
      <point x="46" y="518" type="line"/>
      <point x="42" y="488" type="line"/>
      <point x="50" y="486" type="line" smooth="yes"/>
      <point x="80" y="477"/>
      <point x="94" y="470"/>
      <point x="91" y="442" type="curve"/>
      <point x="53" y="124" type="line" smooth="yes"/>
      <point x="50" y="109"/>
      <point x="49" y="96"/>
      <point x="49" y="84" type="curve" smooth="yes"/>
      <point x="49" y="20"/>
      <point x="78" y="-10"/>
      <point x="121" y="-10" type="curve" smooth="yes"/>
      <point x="152" y="-10"/>
      <point x="178" y="10"/>
      <point x="192" y="28" type="curve"/>
      <point x="198" y="60" type="line"/>
      <point x="185" y="49"/>
      <point x="167" y="31"/>
      <point x="148" y="31" type="curve" smooth="yes"/>
      <point x="131" y="31"/>
      <point x="124" y="41"/>
      <point x="124" y="67" type="curve" smooth="yes"/>
      <point x="124" y="75"/>
      <point x="125" y="86"/>
    </contour>
  </outline>
</glyph>
<glyph name="Ldot" format="2">
  <advance width="417"/>
  <unicode hex="013F"/>
  <outline>
    <contour>
      <point x="275" y="710" type="line"/>
      <point x="78" y="710" type="line"/>
      <point x="74" y="679" type="line"/>
      <point x="79" y="679" type="line" smooth="yes"/>
      <point x="103" y="679"/>
      <point x="129" y="672"/>
      <point x="127" y="647" type="curve" smooth="yes"/>
      <point x="55" y="63" type="line" smooth="yes"/>
      <point x="51" y="37"/>
      <point x="25" y="31"/>
      <point x="-2" y="31" type="curve" smooth="yes"/>
      <point x="-7" y="31" type="line"/>
      <point x="-10" y="0" type="line"/>
      <point x="351" y="0" type="line"/>
      <point x="378" y="222" type="line"/>
      <point x="353" y="222" type="line"/>
      <point x="322" y="93" type="line" smooth="yes"/>
      <point x="312" y="49"/>
      <point x="287" y="35"/>
      <point x="228" y="35" type="curve" smooth="yes"/>
      <point x="134" y="35" type="line"/>
      <point x="212" y="668" type="line" smooth="yes"/>
      <point x="213" y="676"/>
      <point x="241" y="679"/>
      <point x="264" y="679" type="curve" smooth="yes"/>
      <point x="271" y="679" type="line"/>
    </contour>
    <component base="periodcentered" xOffset="256" yOffset="56"/>
  </outline>
</glyph>
<glyph name="Lslash" format="2">
  <advance width="417"/>
  <unicode hex="0141"/>
  <outline>
    <contour>
      <point x="9" y="204" type="line"/>
      <point x="337" y="470" type="line"/>
      <point x="343" y="514" type="line"/>
      <point x="15" y="248" type="line"/>
    </contour>
    <component base="L"/>
  </outline>
</glyph>
<glyph name="Eng" format="2">
  <advance width="532"/>
  <unicode hex="014A"/>
  <outline>
    <contour>
      <point x="265" y="-212" type="curve" smooth="yes"/>
      <point x="237" y="-212"/>
      <point x="212" y="-201"/>
      <point x="197" y="-192" type="curve"/>
      <point x="202" y="-156" type="line"/>
      <point x="218" y="-168"/>
      <point x="238" y="-177"/>
      <point x="267" y="-177" type="curve" smooth="yes"/>
      <point x="308" y="-177"/>
      <point x="354" y="-148"/>
      <point x="368" y="-39" type="curve" smooth="yes"/>
      <point x="374" y="17" type="line"/>
      <point x="380" y="-63" type="line"/>
      <point x="150" y="693" type="line"/>
      <point x="163" y="695" type="line"/>
      <point x="85" y="62" type="line" smooth="yes"/>
      <point x="83" y="38"/>
      <point x="101" y="31"/>
      <point x="129" y="31" type="curve" smooth="yes"/>
      <point x="148" y="31" type="line"/>
      <point x="144" y="0" type="line"/>
      <point x="-10" y="0" type="line"/>
      <point x="-7" y="31" type="line"/>
      <point x="1" y="31" type="line" smooth="yes"/>
      <point x="28" y="31"/>
      <point x="53" y="50"/>
      <point x="58" y="95" type="curve" smooth="yes"/>
      <point x="127" y="644" type="line" smooth="yes"/>
      <point x="130" y="672"/>
      <point x="105" y="679"/>
      <point x="81" y="679" type="curve" smooth="yes"/>
      <point x="74" y="679" type="line"/>
      <point x="78" y="710" type="line"/>
      <point x="230" y="710" type="line"/>
      <point x="403" y="109" type="line"/>
      <point x="387" y="98" type="line"/>
      <point x="453" y="648" type="line"/>
      <point x="455" y="672"/>
      <point x="437" y="679"/>
      <point x="409" y="679" type="curve" smooth="yes"/>
      <point x="390" y="679" type="line"/>
      <point x="395" y="710" type="line"/>
      <point x="548" y="710" type="line"/>
      <point x="544" y="679" type="line"/>
      <point x="537" y="679" type="line" smooth="yes"/>
      <point x="509" y="679"/>
      <point x="485" y="660"/>
      <point x="480" y="618" type="curve" smooth="yes"/>
      <point x="400" y="-25" type="line" smooth="yes"/>
      <point x="382" y="-172"/>
      <point x="334" y="-212"/>
    </contour>
  </outline>
</glyph>
<glyph name="eng" format="2">
  <advance width="419"/>
  <unicode hex="014B"/>
  <outline>
    <contour>
      <point x="244" y="-72" type="line" smooth="yes"/>
      <point x="232" y="-168"/>
      <point x="212" y="-202"/>
      <point x="170" y="-202" type="curve" smooth="yes"/>
      <point x="149" y="-202"/>
      <point x="132" y="-194"/>
      <point x="120" y="-184" type="curve"/>
      <point x="115" y="-216" type="line"/>
      <point x="129" y="-225"/>
      <point x="154" y="-236"/>
      <point x="183" y="-236" type="curve" smooth="yes"/>
      <point x="257" y="-236"/>
      <point x="308" y="-192"/>
      <point x="327" y="-54" type="curve" smooth="yes"/>
      <point x="376" y="348" type="line" smooth="yes"/>
      <point x="379" y="368"/>
      <point x="382" y="388"/>
      <point x="382" y="408" type="curve" smooth="yes"/>
      <point x="382" y="478"/>
      <point x="351" y="528"/>
      <point x="291" y="528" type="curve" smooth="yes"/>
      <point x="222" y="528"/>
      <point x="178" y="454"/>
      <point x="135" y="308" type="curve"/>
      <point x="147" y="281" type="line"/>
      <point x="187" y="420"/>
      <point x="219" y="485"/>
      <point x="264" y="485" type="curve" smooth="yes"/>
      <point x="294" y="485"/>
      <point x="303" y="458"/>
      <point x="303" y="422" type="curve" smooth="yes"/>
      <point x="303" y="403"/>
      <point x="301" y="377"/>
      <point x="298" y="356" type="curve" smooth="yes"/>
    </contour>
    <contour>
      <point x="116" y="0" type="line"/>
      <point x="159" y="342" type="line"/>
      <point x="155" y="351" type="line"/>
      <point x="175" y="518" type="line"/>
      <point x="47" y="518" type="line"/>
      <point x="44" y="488" type="line"/>
      <point x="51" y="486" type="line" smooth="yes"/>
      <point x="81" y="477"/>
      <point x="95" y="470"/>
      <point x="92" y="442" type="curve" smooth="yes"/>
      <point x="37" y="0" type="line"/>
    </contour>
  </outline>
</glyph>
<glyph name="oe" format="2">
  <advance width="634"/>
  <unicode hex="0153"/>
  <outline>
    <contour>
      <point x="384" y="215" type="curve" smooth="yes"/>
      <point x="384" y="372"/>
      <point x="433" y="495"/>
      <point x="509" y="495" type="curve" smooth="yes"/>
      <point x="541" y="495"/>
      <point x="555" y="463"/>
      <point x="555" y="427" type="curve" smooth="yes"/>
      <point x="555" y="331"/>
      <point x="499" y="301"/>
      <point x="364" y="244" type="curve"/>
      <point x="360" y="214" type="line"/>
      <point x="506" y="271"/>
      <point x="624" y="315"/>
      <point x="624" y="418" type="curve" smooth="yes"/>
      <point x="624" y="474"/>
      <point x="586" y="528"/>
      <point x="513" y="528" type="curve" smooth="yes"/>
      <point x="395" y="528"/>
      <point x="312" y="391"/>
      <point x="312" y="226" type="curve" smooth="yes"/>
      <point x="312" y="74"/>
      <point x="374" y="-10"/>
      <point x="460" y="-10" type="curve" smooth="yes"/>
      <point x="528" y="-10"/>
      <point x="580" y="34"/>
      <point x="611" y="133" type="curve"/>
      <point x="590" y="154" type="line"/>
      <point x="568" y="79"/>
      <point x="529" y="28"/>
      <point x="475" y="28" type="curve" smooth="yes"/>
      <point x="419" y="28"/>
      <point x="384" y="92"/>
    </contour>
    <contour>
      <point x="221" y="528" type="curve" smooth="yes"/>
      <point x="102" y="528"/>
      <point x="24" y="384"/>
      <point x="24" y="233" type="curve" smooth="yes"/>
      <point x="24" y="89"/>
      <point x="88" y="-10"/>
      <point x="185" y="-10" type="curve" smooth="yes"/>
      <point x="298" y="-10"/>
      <point x="372" y="134"/>
      <point x="372" y="286" type="curve" smooth="yes"/>
      <point x="372" y="429"/>
      <point x="313" y="528"/>
    </contour>
    <contour>
      <point x="289" y="184" type="curve" smooth="yes"/>
      <point x="273" y="96"/>
      <point x="238" y="23"/>
      <point x="187" y="23" type="curve"/>
      <point x="137" y="23"/>
      <point x="107" y="85"/>
      <point x="107" y="205" type="curve" smooth="yes"/>
      <point x="107" y="246"/>
      <point x="110" y="291"/>
      <point x="118" y="332" type="curve" smooth="yes"/>
      <point x="134" y="422"/>
      <point x="168" y="495"/>
      <point x="225" y="495" type="curve"/>
      <point x="269" y="495"/>
      <point x="301" y="433"/>
      <point x="301" y="313" type="curve" smooth="yes"/>
      <point x="301" y="272"/>
      <point x="297" y="227"/>
    </contour>
  </outline>
</glyph>
<glyph name="Tbar" format="2">
  <advance width="449"/>
  <unicode hex="0166"/>
  <outline>
    <contour>
      <point x="88" y="370" type="line"/>
      <point x="83" y="337" type="line"/>
      <point x="369" y="337" type="line"/>
      <point x="373" y="370" type="line"/>
    </contour>
    <component base="T"/>
  </outline>
</glyph>
<glyph name="Uogonek" format="2">
  <advance width="528"/>
  <unicode hex="0172"/>
  <outline>
    <contour>
      <point x="244" y="-237" type="curve" smooth="yes"/>
      <point x="282" y="-237"/>
      <point x="307" y="-217"/>
      <point x="324" y="-191" type="curve"/>
      <point x="314" y="-170" type="line"/>
      <point x="303" y="-187"/>
      <point x="288" y="-200"/>
      <point x="270" y="-200" type="curve" smooth="yes"/>
      <point x="252" y="-200"/>
      <point x="237" y="-185"/>
      <point x="237" y="-152" type="curve" smooth="yes"/>
      <point x="237" y="-95"/>
      <point x="269" y="-43"/>
      <point x="350" y="28" type="curve" smooth="yes"/>
      <point x="393" y="66"/>
      <point x="425" y="132"/>
      <point x="438" y="238" type="curve" smooth="yes"/>
      <point x="485" y="619" type="line" smooth="yes"/>
      <point x="490" y="664"/>
      <point x="516" y="679"/>
      <point x="541" y="679" type="curve" smooth="yes"/>
      <point x="549" y="679" type="line"/>
      <point x="552" y="710" type="line"/>
      <point x="400" y="710" type="line"/>
      <point x="396" y="679" type="line"/>
      <point x="410" y="679" type="line" smooth="yes"/>
      <point x="444" y="679"/>
      <point x="460" y="672"/>
      <point x="458" y="655" type="curve" smooth="yes"/>
      <point x="408" y="244" type="line" smooth="yes"/>
      <point x="391" y="102"/>
      <point x="339" y="42"/>
      <point x="265" y="42" type="curve" smooth="yes"/>
      <point x="188" y="42"/>
      <point x="149" y="99"/>
      <point x="149" y="198" type="curve" smooth="yes"/>
      <point x="149" y="223"/>
      <point x="150" y="251"/>
      <point x="155" y="290" type="curve" smooth="yes"/>
      <point x="201" y="669" type="line" smooth="yes"/>
      <point x="202" y="676"/>
      <point x="231" y="679"/>
      <point x="254" y="679" type="curve" smooth="yes"/>
      <point x="259" y="679" type="line"/>
      <point x="263" y="710" type="line"/>
      <point x="66" y="710" type="line"/>
      <point x="63" y="679" type="line"/>
      <point x="67" y="679" type="line" smooth="yes"/>
      <point x="93" y="679"/>
      <point x="119" y="673"/>
      <point x="116" y="648" type="curve" smooth="yes"/>
      <point x="73" y="297" type="line" smooth="yes"/>
      <point x="68" y="258"/>
      <point x="66" y="231"/>
      <point x="66" y="202" type="curve" smooth="yes"/>
      <point x="66" y="51"/>
      <point x="144" y="-10"/>
      <point x="246" y="-10" type="curve" smooth="yes"/>
      <point x="264" y="-10"/>
      <point x="281" y="-8"/>
      <point x="297" y="-2" type="curve"/>
      <point x="297" y="7" type="line"/>
      <point x="220" y="-45"/>
      <point x="169" y="-89"/>
      <point x="169" y="-155" type="curve" smooth="yes"/>
      <point x="169" y="-207"/>
      <point x="200" y="-237"/>
    </contour>
  </outline>
</glyph>
<glyph name="ohorn" format="2">
  <advance width="410"/>
  <unicode hex="01A1"/>
  <anchor x="187" y="518" name="top"/>
  <outline>
    <contour>
      <point x="188" y="-10" type="curve" smooth="yes"/>
      <point x="310" y="-10"/>
      <point x="389" y="134"/>
      <point x="389" y="286" type="curve" smooth="yes"/>
      <point x="389" y="392"/>
      <point x="348" y="470"/>
      <point x="287" y="505" type="curve"/>
      <point x="315" y="471" type="line"/>
      <point x="319" y="494" type="line"/>
      <point x="282" y="493" type="line"/>
      <point x="289" y="488"/>
      <point x="303" y="485"/>
      <point x="312" y="485" type="curve" smooth="yes"/>
      <point x="381" y="485"/>
      <point x="427" y="526"/>
      <point x="445" y="660" type="curve"/>
      <point x="384" y="660" type="line"/>
      <point x="370" y="576"/>
      <point x="357" y="516"/>
      <point x="307" y="516" type="curve" smooth="yes"/>
      <point x="281" y="516"/>
      <point x="258" y="528"/>
      <point x="224" y="528" type="curve" smooth="yes"/>
      <point x="104" y="528"/>
      <point x="24" y="384"/>
      <point x="24" y="233" type="curve" smooth="yes"/>
      <point x="24" y="89"/>
      <point x="89" y="-10"/>
    </contour>
    <contour>
      <point x="187" y="23" type="curve"/>
      <point x="137" y="23"/>
      <point x="107" y="85"/>
      <point x="107" y="205" type="curve" smooth="yes"/>
      <point x="107" y="246"/>
      <point x="110" y="291"/>
      <point x="118" y="332" type="curve" smooth="yes"/>
      <point x="134" y="422"/>
      <point x="168" y="495"/>
      <point x="225" y="495" type="curve"/>
      <point x="276" y="495"/>
      <point x="306" y="433"/>
      <point x="306" y="313" type="curve" smooth="yes"/>
      <point x="306" y="272"/>
      <point x="302" y="227"/>
      <point x="295" y="186" type="curve" smooth="yes"/>
      <point x="279" y="97"/>
      <point x="245" y="23"/>
    </contour>
  </outline>
</glyph>
<glyph name="icaron" format="2">
  <advance width="213"/>
  <unicode hex="01D0"/>
  <outline>
    <contour>
      <point x="108" y="581" type="line"/>
      <point x="49" y="738" type="line"/>
      <point x="51" y="748" type="line"/>
      <point x="70" y="748" type="line"/>
      <point x="161" y="618" type="line"/>
      <point x="119" y="620" type="line"/>
      <point x="238" y="748" type="line"/>
      <point x="264" y="748" type="line"/>
      <point x="262" y="738" type="line"/>
      <point x="164" y="581" type="line"/>
    </contour>
    <component base="dotlessi"/>
  </outline>
</glyph>
<glyph name="Oogonek" format="2">
  <advance width="545"/>
  <unicode hex="01EA"/>
  <outline>
    <contour>
      <point x="253" y="26" type="curve" smooth="yes"/>
      <point x="171" y="26"/>
      <point x="114" y="121"/>
      <point x="114" y="287" type="curve" smooth="yes"/>
      <point x="114" y="323"/>
      <point x="116" y="361"/>
      <point x="121" y="397" type="curve" smooth="yes"/>
      <point x="143" y="562"/>
      <point x="205" y="684"/>
      <point x="299" y="684" type="curve" smooth="yes"/>
      <point x="381" y="684"/>
      <point x="438" y="589"/>
      <point x="438" y="425" type="curve" smooth="yes"/>
      <point x="438" y="387"/>
      <point x="436" y="350"/>
      <point x="431" y="314" type="curve" smooth="yes"/>
      <point x="409" y="148"/>
      <point x="346" y="26"/>
    </contour>
    <contour>
      <point x="256" y="-237" type="curve" smooth="yes"/>
      <point x="295" y="-237"/>
      <point x="320" y="-217"/>
      <point x="337" y="-191" type="curve"/>
      <point x="328" y="-170" type="line"/>
      <point x="317" y="-187"/>
      <point x="302" y="-200"/>
      <point x="283" y="-200" type="curve" smooth="yes"/>
      <point x="265" y="-200"/>
      <point x="250" y="-184"/>
      <point x="250" y="-151" type="curve" smooth="yes"/>
      <point x="250" y="-95"/>
      <point x="298" y="-36"/>
      <point x="386" y="37" type="curve" smooth="yes"/>
      <point x="468" y="106"/>
      <point x="526" y="233"/>
      <point x="526" y="388" type="curve" smooth="yes"/>
      <point x="526" y="586"/>
      <point x="427" y="720"/>
      <point x="300" y="720" type="curve" smooth="yes"/>
      <point x="146" y="720"/>
      <point x="26" y="546"/>
      <point x="26" y="322" type="curve" smooth="yes"/>
      <point x="26" y="124"/>
      <point x="124" y="-10"/>
      <point x="252" y="-10" type="curve" smooth="yes"/>
      <point x="277" y="-10"/>
      <point x="301" y="-5"/>
      <point x="322" y="4" type="curve"/>
      <point x="331" y="17" type="line"/>
      <point x="242" y="-39"/>
      <point x="183" y="-87"/>
      <point x="183" y="-155" type="curve" smooth="yes"/>
      <point x="183" y="-207"/>
      <point x="213" y="-237"/>
    </contour>
  </outline>
</glyph>
<glyph name="iinvertedbreve" format="2">
  <advance width="213"/>
  <unicode hex="020B"/>
  <outline>
    <contour>
      <point x="136" y="747" type="curve" smooth="yes"/>
      <point x="82" y="747"/>
      <point x="41" y="706"/>
      <point x="32" y="588" type="curve"/>
      <point x="54" y="588" type="line"/>
      <point x="65" y="649"/>
      <point x="85" y="678"/>
      <point x="132" y="678" type="curve" smooth="yes"/>
      <point x="182" y="678"/>
      <point x="197" y="643"/>
      <point x="199" y="588" type="curve"/>
      <point x="221" y="588" type="line"/>
      <point x="222" y="594"/>
      <point x="223" y="606"/>
      <point x="223" y="614" type="curve" smooth="yes"/>
      <point x="224" y="695"/>
      <point x="192" y="747"/>
    </contour>
    <component base="dotlessi"/>
  </outline>
</glyph>
<glyph name="circumflex" format="2">
  <advance width="351"/>
  <unicode hex="02C6"/>
  <anchor x="163" y="529" name="_top"/>
  <outline>
    <contour>
      <point x="242" y="748" type="line"/>
      <point x="301" y="590" type="line"/>
      <point x="299" y="580" type="line"/>
      <point x="280" y="580" type="line"/>
      <point x="195" y="700" type="line"/>
      <point x="222" y="697" type="line"/>
      <point x="112" y="580" type="line"/>
      <point x="87" y="580" type="line"/>
      <point x="88" y="590" type="line"/>
      <point x="186" y="748" type="line"/>
    </contour>
  </outline>
</glyph>
<glyph name="breve" format="2">
  <advance width="351"/>
  <unicode hex="02D8"/>
  <anchor x="163" y="517" name="_top"/>
  <outline>
    <contour>
      <point x="196" y="588" type="curve" smooth="yes"/>
      <point x="249" y="588"/>
      <point x="291" y="629"/>
      <point x="300" y="747" type="curve"/>
      <point x="278" y="747" type="line"/>
      <point x="267" y="686"/>
      <point x="247" y="657"/>
      <point x="200" y="657" type="curve" smooth="yes"/>
      <point x="151" y="657"/>
      <point x="135" y="692"/>
      <point x="133" y="747" type="curve"/>
      <point x="111" y="747" type="line"/>
      <point x="110" y="741"/>
      <point x="109" y="729"/>
      <point x="109" y="721" type="curve" smooth="yes"/>
      <point x="108" y="640"/>
      <point x="140" y="588"/>
    </contour>
  </outline>
</glyph>
<glyph name="dotaccent" format="2">
  <advance width="351"/>
  <unicode hex="02D9"/>
  <anchor x="167" y="526" name="_top"/>
  <outline>
    <contour>
      <point x="195" y="638" type="curve" smooth="yes"/>
      <point x="166" y="638"/>
      <point x="145" y="662"/>
      <point x="145" y="701" type="curve" smooth="yes"/>
      <point x="145" y="739"/>
      <point x="166" y="763"/>
      <point x="195" y="763" type="curve" smooth="yes"/>
      <point x="225" y="763"/>
      <point x="245" y="739"/>
      <point x="245" y="701" type="curve" smooth="yes"/>
      <point x="245" y="662"/>
      <point x="225" y="638"/>
    </contour>
  </outline>
</glyph>
<glyph name="ring" format="2">
  <advance width="351"/>
  <unicode hex="02DA"/>
  <anchor x="167" y="526" name="_top"/>
  <outline>
    <contour>
      <point x="192" y="606" type="curve" smooth="yes"/>
      <point x="171" y="606"/>
      <point x="158" y="630"/>
      <point x="158" y="673" type="curve" smooth="yes"/>
      <point x="158" y="720"/>
      <point x="173" y="754"/>
      <point x="199" y="754" type="curve" smooth="yes"/>
      <point x="220" y="754"/>
      <point x="233" y="729"/>
      <point x="233" y="687" type="curve" smooth="yes"/>
      <point x="233" y="640"/>
      <point x="217" y="606"/>
    </contour>
    <contour>
      <point x="192" y="581" type="curve" smooth="yes"/>
      <point x="239" y="581"/>
      <point x="279" y="617"/>
      <point x="279" y="686" type="curve" smooth="yes"/>
      <point x="279" y="745"/>
      <point x="241" y="778"/>
      <point x="198" y="778" type="curve" smooth="yes"/>
      <point x="152" y="778"/>
      <point x="112" y="742"/>
      <point x="112" y="674" type="curve" smooth="yes"/>
      <point x="112" y="614"/>
      <point x="150" y="581"/>
    </contour>
  </outline>
</glyph>
<glyph name="mu" format="2">
  <advance width="459"/>
  <unicode hex="03BC"/>
  <outline>
    <contour>
      <point x="331" y="-10" type="curve" smooth="yes"/>
      <point x="373" y="-10"/>
      <point x="405" y="21"/>
      <point x="427" y="68" type="curve"/>
      <point x="412" y="85" type="line"/>
      <point x="393" y="48"/>
      <point x="375" y="28"/>
      <point x="355" y="28" type="curve" smooth="yes"/>
      <point x="341" y="28"/>
      <point x="334" y="37"/>
      <point x="334" y="54" type="curve" smooth="yes"/>
      <point x="334" y="63"/>
      <point x="335" y="79"/>
      <point x="337" y="98" type="curve" smooth="yes"/>
      <point x="389" y="518" type="line"/>
      <point x="310" y="518" type="line"/>
      <point x="262" y="139" type="line"/>
      <point x="267" y="127" type="line"/>
      <point x="263" y="107"/>
      <point x="262" y="89"/>
      <point x="262" y="73" type="curve" smooth="yes"/>
      <point x="262" y="15"/>
      <point x="293" y="-10"/>
    </contour>
    <contour>
      <point x="-4" y="-250" type="line"/>
      <point x="77" y="-250" type="line"/>
      <point x="91" y="-126"/>
      <point x="48" y="-53"/>
      <point x="62" y="116" type="curve"/>
      <point x="55" y="106" type="line"/>
      <point x="61" y="24"/>
      <point x="90" y="-10"/>
      <point x="143" y="-10" type="curve" smooth="yes"/>
      <point x="208" y="-10"/>
      <point x="248" y="65"/>
      <point x="293" y="185" type="curve"/>
      <point x="281" y="207" type="line"/>
      <point x="246" y="99"/>
      <point x="212" y="30"/>
      <point x="163" y="30" type="curve" smooth="yes"/>
      <point x="137" y="30"/>
      <point x="122" y="51"/>
      <point x="122" y="103" type="curve" smooth="yes"/>
      <point x="122" y="116"/>
      <point x="123" y="132"/>
      <point x="125" y="151" type="curve" smooth="yes"/>
      <point x="172" y="518" type="line"/>
      <point x="93" y="518" type="line"/>
    </contour>
  </outline>
</glyph>
<glyph name="thai:baht" format="2">
  <advance width="393"/>
  <unicode hex="0E3F"/>
  <outline>
    <contour>
      <point x="85" y="35" type="line"/>
      <point x="125" y="355" type="line"/>
      <point x="203" y="355" type="line" smooth="yes"/>
      <point x="275" y="355"/>
      <point x="303" y="293"/>
      <point x="303" y="217" type="curve" smooth="yes"/>
      <point x="303" y="193"/>
      <point x="301" y="170"/>
      <point x="297" y="148" type="curve" smooth="yes"/>
      <point x="284" y="79"/>
      <point x="247" y="35"/>
      <point x="180" y="35" type="curve" smooth="yes"/>
    </contour>
    <contour>
      <point x="129" y="388" type="line"/>
      <point x="163" y="666" type="line"/>
      <point x="229" y="666" type="line" smooth="yes"/>
      <point x="295" y="666"/>
      <point x="325" y="618"/>
      <point x="325" y="549" type="curve" smooth="yes"/>
      <point x="325" y="531"/>
      <point x="324" y="513"/>
      <point x="320" y="496" type="curve" smooth="yes"/>
      <point x="310" y="438"/>
      <point x="281" y="388"/>
      <point x="210" y="388" type="curve" smooth="yes"/>
    </contour>
    <contour>
      <point x="135" y="-111" type="line"/>
      <point x="163" y="-111" type="line"/>
      <point x="180" y="27" type="line"/>
      <point x="181" y="39" type="line"/>
      <point x="260" y="673" type="line"/>
      <point x="262" y="684" type="line"/>
      <point x="275" y="790" type="line"/>
      <point x="246" y="790" type="line"/>
      <point x="234" y="686" type="line"/>
      <point x="232" y="671" type="line"/>
      <point x="154" y="36" type="line"/>
      <point x="152" y="26" type="line"/>
    </contour>
    <contour>
      <point x="-47" y="0" type="line"/>
      <point x="174" y="0" type="line" smooth="yes"/>
      <point x="316" y="0"/>
      <point x="378" y="82"/>
      <point x="378" y="206" type="curve" smooth="yes"/>
      <point x="378" y="299"/>
      <point x="322" y="370"/>
      <point x="212" y="382" type="curve"/>
      <point x="248" y="365" type="line"/>
      <point x="250" y="380" type="line"/>
      <point x="237" y="370" type="line"/>
      <point x="344" y="370"/>
      <point x="396" y="452"/>
      <point x="396" y="542" type="curve" smooth="yes"/>
      <point x="396" y="631"/>
      <point x="340" y="701"/>
      <point x="236" y="701" type="curve" smooth="yes"/>
      <point x="39" y="701" type="line"/>
      <point x="36" y="670" type="line"/>
      <point x="39" y="670" type="line" smooth="yes"/>
      <point x="67" y="670"/>
      <point x="90" y="664"/>
      <point x="86" y="632" type="curve" smooth="yes"/>
      <point x="15" y="64" type="line" smooth="yes"/>
      <point x="12" y="38"/>
      <point x="-14" y="31"/>
      <point x="-39" y="31" type="curve" smooth="yes"/>
      <point x="-44" y="31" type="line"/>
    </contour>
  </outline>
</glyph>
<glyph name="Germandbls" format="2">
  <advance width="576"/>
  <unicode hex="1E9E"/>
  <outline>
    <contour>
      <point x="259" y="217" type="curve"/>
      <point x="234" y="217" type="line"/>
      <point x="209" y="0" type="line"/>
      <point x="239" y="0" type="line"/>
      <point x="262" y="132" type="line"/>
      <point x="244" y="170" type="line"/>
      <point x="254" y="77"/>
      <point x="296" y="-10"/>
      <point x="386" y="-10" type="curve" smooth="yes"/>
      <point x="482" y="-10"/>
      <point x="541" y="67"/>
      <point x="541" y="190" type="curve" smooth="yes"/>
      <point x="541" y="313"/>
      <point x="462" y="387"/>
      <point x="378" y="409" type="curve"/>
      <point x="398" y="395" type="line"/>
      <point x="536" y="675" type="line"/>
      <point x="541" y="710" type="line"/>
      <point x="313" y="710" type="line" smooth="yes"/>
      <point x="178" y="710"/>
      <point x="119" y="623"/>
      <point x="99" y="459" type="curve" smooth="yes"/>
      <point x="50" y="64" type="line" smooth="yes"/>
      <point x="47" y="38"/>
      <point x="20" y="31"/>
      <point x="-6" y="31" type="curve" smooth="yes"/>
      <point x="-10" y="31" type="line"/>
      <point x="-15" y="0" type="line"/>
      <point x="126" y="0" type="line"/>
      <point x="184" y="470" type="line" smooth="yes"/>
      <point x="200" y="599"/>
      <point x="218" y="675"/>
      <point x="318" y="675" type="curve" smooth="yes"/>
      <point x="515" y="675" type="line"/>
      <point x="457" y="688" type="line"/>
      <point x="333" y="420" type="line"/>
      <point x="329" y="385" type="line"/>
      <point x="418" y="360"/>
      <point x="463" y="287"/>
      <point x="463" y="181" type="curve" smooth="yes"/>
      <point x="463" y="93"/>
      <point x="442" y="26"/>
      <point x="381" y="26" type="curve" smooth="yes"/>
      <point x="308" y="26"/>
      <point x="273" y="105"/>
    </contour>
  </outline>
</glyph>
<glyph name="ohorntilde" format="2">
  <advance width="410"/>
  <unicode hex="1EE1"/>
  <outline>
    <contour>
      <point x="262" y="609" type="curve" smooth="yes"/>
      <point x="298" y="609"/>
      <point x="322" y="651"/>
      <point x="338" y="730" type="curve"/>
      <point x="318" y="743" type="line"/>
      <point x="307" y="700"/>
      <point x="298" y="672"/>
      <point x="277" y="672" type="curve" smooth="yes"/>
      <point x="251" y="672"/>
      <point x="227" y="740"/>
      <point x="191" y="740" type="curve" smooth="yes"/>
      <point x="151" y="740"/>
      <point x="129" y="699"/>
      <point x="114" y="616" type="curve"/>
      <point x="133" y="605" type="line"/>
      <point x="142" y="652"/>
      <point x="154" y="678"/>
      <point x="173" y="678" type="curve" smooth="yes"/>
      <point x="197" y="678"/>
      <point x="222" y="609"/>
    </contour>
    <component base="ohorn"/>
  </outline>
</glyph>
<glyph name="endash" format="2">
  <advance width="398"/>
  <unicode hex="2013"/>
  <outline>
    <contour>
      <point x="40" y="336" type="line"/>
      <point x="35" y="297" type="line"/>
      <point x="355" y="297" type="line"/>
      <point x="360" y="336" type="line"/>
    </contour>
  </outline>
</glyph>
<glyph name="horizontalbar" format="2">
  <advance width="694"/>
  <unicode hex="2015"/>
  <outline>
    <contour>
      <point x="15" y="337" type="line"/>
      <point x="10" y="297" type="line"/>
      <point x="674" y="297" type="line"/>
      <point x="680" y="337" type="line"/>
    </contour>
  </outline>
</glyph>
<glyph name="perthousand" format="2">
  <advance width="783"/>
  <unicode hex="2030"/>
  <outline>
    <contour>
      <point x="140" y="382" type="curve" smooth="yes"/>
      <point x="216" y="382"/>
      <point x="261" y="470"/>
      <point x="261" y="571" type="curve" smooth="yes"/>
      <point x="261" y="660"/>
      <point x="221" y="720"/>
      <point x="160" y="720" type="curve" smooth="yes"/>
      <point x="83" y="720"/>
      <point x="36" y="628"/>
      <point x="36" y="531" type="curve" smooth="yes"/>
      <point x="36" y="440"/>
      <point x="83" y="382"/>
    </contour>
    <contour>
      <point x="139" y="407" type="curve" smooth="yes"/>
      <point x="114" y="407"/>
      <point x="95" y="442"/>
      <point x="95" y="517" type="curve" smooth="yes"/>
      <point x="95" y="614"/>
      <point x="119" y="695"/>
      <point x="160" y="695" type="curve" smooth="yes"/>
      <point x="187" y="695"/>
      <point x="202" y="653"/>
      <point x="202" y="584" type="curve" smooth="yes"/>
      <point x="202" y="484"/>
      <point x="178" y="407"/>
    </contour>
    <contour>
      <point x="373" y="-10" type="curve" smooth="yes"/>
      <point x="317" y="-10"/>
      <point x="270" y="48"/>
      <point x="270" y="140" type="curve" smooth="yes"/>
      <point x="270" y="237"/>
      <point x="317" y="329"/>
      <point x="394" y="329" type="curve" smooth="yes"/>
      <point x="454" y="329"/>
      <point x="495" y="268"/>
      <point x="495" y="179" type="curve" smooth="yes"/>
      <point x="495" y="79"/>
      <point x="449" y="-10"/>
    </contour>
    <contour>
      <point x="373" y="16" type="curve" smooth="yes"/>
      <point x="412" y="16"/>
      <point x="435" y="93"/>
      <point x="435" y="193" type="curve" smooth="yes"/>
      <point x="435" y="262"/>
      <point x="421" y="303"/>
      <point x="394" y="303" type="curve" smooth="yes"/>
      <point x="353" y="303"/>
      <point x="329" y="223"/>
      <point x="329" y="126" type="curve" smooth="yes"/>
      <point x="329" y="50"/>
      <point x="349" y="16"/>
    </contour>
    <contour>
      <point x="631" y="-10" type="curve" smooth="yes"/>
      <point x="574" y="-10"/>
      <point x="527" y="48"/>
      <point x="527" y="140" type="curve" smooth="yes"/>
      <point x="527" y="237"/>
      <point x="575" y="329"/>
      <point x="652" y="329" type="curve" smooth="yes"/>
      <point x="712" y="329"/>
      <point x="753" y="268"/>
      <point x="753" y="179" type="curve" smooth="yes"/>
      <point x="753" y="79"/>
      <point x="708" y="-10"/>
    </contour>
    <contour>
      <point x="630" y="16" type="curve" smooth="yes"/>
      <point x="670" y="16"/>
      <point x="693" y="93"/>
      <point x="693" y="193" type="curve" smooth="yes"/>
      <point x="693" y="262"/>
      <point x="678" y="303"/>
      <point x="651" y="303" type="curve" smooth="yes"/>
      <point x="610" y="303"/>
      <point x="586" y="223"/>
      <point x="586" y="126" type="curve" smooth="yes"/>
      <point x="586" y="50"/>
      <point x="606" y="16"/>
    </contour>
    <component base="fraction" xOffset="124"/>
  </outline>
</glyph>
<glyph name="guilsinglleft" format="2">
  <advance width="205"/>
  <unicode hex="2039"/>
  <outline>
    <contour>
      <point x="72" y="217" type="line"/>
      <point x="199" y="456" type="line"/>
      <point x="179" y="456" type="line"/>
      <point x="32" y="295" type="line"/>
      <point x="26" y="256" type="line"/>
      <point x="131" y="75" type="line"/>
      <point x="151" y="75" type="line"/>
      <point x="85" y="315" type="line"/>
    </contour>
  </outline>
</glyph>
<glyph name="colonmonetary" format="2">
  <advance width="393"/>
  <unicode hex="20A1"/>
  <outline>
    <contour>
      <point x="229" y="790" type="line"/>
      <point x="209" y="677" type="line"/>
      <point x="207" y="667" type="line"/>
      <point x="105" y="96" type="line"/>
      <point x="102" y="78" type="line"/>
      <point x="68" y="-120" type="line"/>
      <point x="98" y="-120" type="line"/>
      <point x="127" y="52" type="line"/>
      <point x="130" y="65" type="line"/>
      <point x="238" y="678" type="line"/>
      <point x="240" y="687" type="line"/>
      <point x="258" y="790" type="line"/>
    </contour>
    <contour>
      <point x="315" y="790" type="line"/>
      <point x="298" y="690" type="line"/>
      <point x="295" y="677" type="line"/>
      <point x="182" y="32" type="line"/>
      <point x="178" y="19" type="line"/>
      <point x="154" y="-120" type="line"/>
      <point x="184" y="-120" type="line"/>
      <point x="210" y="23" type="line"/>
      <point x="211" y="30" type="line"/>
      <point x="323" y="669" type="line"/>
      <point x="326" y="680" type="line"/>
      <point x="345" y="790" type="line"/>
    </contour>
    <contour>
      <point x="192" y="9" type="curve" smooth="yes"/>
      <point x="277" y="9"/>
      <point x="337" y="98"/>
      <point x="371" y="228" type="curve"/>
      <point x="351" y="244" type="line"/>
      <point x="321" y="120"/>
      <point x="268" y="40"/>
      <point x="195" y="40" type="curve" smooth="yes"/>
      <point x="124" y="40"/>
      <point x="81" y="118"/>
      <point x="81" y="290" type="curve" smooth="yes"/>
      <point x="81" y="330"/>
      <point x="84" y="369"/>
      <point x="90" y="409" type="curve" smooth="yes"/>
      <point x="110" y="554"/>
      <point x="163" y="670"/>
      <point x="266" y="670" type="curve" smooth="yes"/>
      <point x="329" y="670"/>
      <point x="376" y="624"/>
      <point x="384" y="591" type="curve"/>
      <point x="385" y="629"/>
      <point x="378" y="650"/>
      <point x="354" y="656" type="curve"/>
      <point x="337" y="526" type="line"/>
      <point x="403" y="526" type="line"/>
      <point x="416" y="629" type="line"/>
      <point x="402" y="650"/>
      <point x="348" y="701"/>
      <point x="264" y="701" type="curve" smooth="yes"/>
      <point x="99" y="701"/>
      <point x="9" y="510"/>
      <point x="9" y="303" type="curve" smooth="yes"/>
      <point x="9" y="105"/>
      <point x="96" y="9"/>
    </contour>
  </outline>
</glyph>
<glyph name="naira" format="2">
  <advance width="393"/>
  <unicode hex="20A6"/>
  <outline>
    <contour>
      <point x="-21" y="0" type="line"/>
      <point x="111" y="0" type="line"/>
      <point x="115" y="31" type="line"/>
      <point x="106" y="31" type="line" smooth="yes"/>
      <point x="81" y="31"/>
      <point x="62" y="39"/>
      <point x="63" y="53" type="curve" smooth="yes"/>
      <point x="143" y="696" type="line"/>
      <point x="133" y="696" type="line"/>
      <point x="228" y="0" type="line"/>
      <point x="295" y="0" type="line"/>
      <point x="374" y="633" type="line" smooth="yes"/>
      <point x="378" y="665"/>
      <point x="394" y="679"/>
      <point x="417" y="679" type="curve" smooth="yes"/>
      <point x="424" y="679" type="line"/>
      <point x="429" y="710" type="line"/>
      <point x="297" y="710" type="line"/>
      <point x="293" y="679" type="line"/>
      <point x="303" y="679" type="line" smooth="yes"/>
      <point x="331" y="679"/>
      <point x="347" y="670"/>
      <point x="345" y="648" type="curve"/>
      <point x="275" y="84" type="line"/>
      <point x="285" y="86" type="line"/>
      <point x="203" y="710" type="line"/>
      <point x="68" y="710" type="line"/>
      <point x="63" y="679" type="line"/>
      <point x="70" y="679" type="line" smooth="yes"/>
      <point x="92" y="679"/>
      <point x="109" y="670"/>
      <point x="105" y="644" type="curve" smooth="yes"/>
      <point x="35" y="72" type="line" smooth="yes"/>
      <point x="32" y="46"/>
      <point x="17" y="31"/>
      <point x="-8" y="31" type="curve" smooth="yes"/>
      <point x="-16" y="31" type="line"/>
    </contour>
    <contour>
      <point x="93" y="450" type="line"/>
      <point x="33" y="450" type="line"/>
      <point x="29" y="417" type="line"/>
      <point x="89" y="417" type="line"/>
    </contour>
    <contour>
      <point x="204" y="418" type="line"/>
      <point x="325" y="418" type="line"/>
      <point x="336" y="417" type="line"/>
      <point x="395" y="417" type="line"/>
      <point x="400" y="450" type="line"/>
      <point x="207" y="450" type="line"/>
    </contour>
    <contour>
      <point x="309" y="258" type="line"/>
      <point x="376" y="258" type="line"/>
      <point x="379" y="291" type="line"/>
      <point x="314" y="291" type="line"/>
    </contour>
    <contour>
      <point x="210" y="291" type="line"/>
      <point x="84" y="291" type="line"/>
      <point x="74" y="291" type="line"/>
      <point x="13" y="291" type="line"/>
      <point x="9" y="258" type="line"/>
      <point x="222" y="258" type="line"/>
    </contour>
  </outline>
</glyph>
<glyph name="peseta" format="2">
  <advance width="393"/>
  <unicode hex="20A7"/>
  <outline>
    <contour>
      <point x="-30" y="0" type="line"/>
      <point x="105" y="0" type="line"/>
      <point x="108" y="31" type="line"/>
      <point x="101" y="31" type="line" smooth="yes"/>
      <point x="90" y="31"/>
      <point x="70" y="34"/>
      <point x="71" y="41" type="curve" smooth="yes"/>
      <point x="97" y="255" type="line"/>
      <point x="117" y="255" type="line" smooth="yes"/>
      <point x="221" y="255"/>
      <point x="272" y="402"/>
      <point x="272" y="528" type="curve" smooth="yes"/>
      <point x="272" y="640"/>
      <point x="229" y="710"/>
      <point x="153" y="710" type="curve" smooth="yes"/>
      <point x="58" y="710" type="line"/>
      <point x="54" y="679" type="line"/>
      <point x="57" y="679" type="line" smooth="yes"/>
      <point x="71" y="679"/>
      <point x="80" y="673"/>
      <point x="77" y="644" type="curve" smooth="yes"/>
      <point x="6" y="66" type="line" smooth="yes"/>
      <point x="3" y="37"/>
      <point x="-8" y="31"/>
      <point x="-22" y="31" type="curve" smooth="yes"/>
      <point x="-25" y="31" type="line"/>
    </contour>
    <contour>
      <point x="152" y="677" type="line" smooth="yes"/>
      <point x="188" y="677"/>
      <point x="207" y="640"/>
      <point x="207" y="540" type="curve" smooth="yes"/>
      <point x="207" y="515"/>
      <point x="205" y="486"/>
      <point x="201" y="457" type="curve" smooth="yes"/>
      <point x="189" y="369"/>
      <point x="163" y="288"/>
      <point x="118" y="288" type="curve" smooth="yes"/>
      <point x="101" y="288" type="line"/>
      <point x="149" y="677" type="line"/>
    </contour>
    <contour>
      <point x="300" y="512" type="line"/>
      <point x="255" y="150" type="line" smooth="yes"/>
      <point x="251" y="112"/>
      <point x="250" y="98"/>
      <point x="250" y="85" type="curve"/>
      <point x="250" y="12"/>
      <point x="280" y="-10"/>
      <point x="324" y="-10" type="curve" smooth="yes"/>
      <point x="337" y="-10"/>
      <point x="348" y="-6"/>
      <point x="356" y="-2" type="curve"/>
      <point x="359" y="26" type="line"/>
      <point x="356" y="25"/>
      <point x="351" y="21"/>
      <point x="341" y="21" type="curve" smooth="yes"/>
      <point x="322" y="21"/>
      <point x="313" y="37"/>
      <point x="313" y="71" type="curve" smooth="yes"/>
      <point x="313" y="80"/>
      <point x="315" y="98"/>
      <point x="319" y="130" type="curve" smooth="yes"/>
      <point x="384" y="648" type="line"/>
      <point x="340" y="648" type="line"/>
      <point x="333" y="601" type="line" smooth="yes"/>
      <point x="325" y="538"/>
      <point x="298" y="511"/>
      <point x="258" y="511" type="curve" smooth="yes"/>
      <point x="248" y="511" type="line"/>
      <point x="245" y="486" type="line"/>
      <point x="416" y="486" type="line"/>
      <point x="421" y="518" type="line"/>
      <point x="343" y="518" type="line"/>
    </contour>
  </outline>
</glyph>
<glyph name="dong" format="2">
  <advance width="393"/>
  <unicode hex="20AB"/>
  <outline>
    <contour>
      <point x="131" y="-10" type="curve" smooth="yes"/>
      <point x="201" y="-10"/>
      <point x="238" y="78"/>
      <point x="276" y="199" type="curve"/>
      <point x="262" y="219" type="line"/>
      <point x="233" y="120"/>
      <point x="201" y="33"/>
      <point x="151" y="33" type="curve" smooth="yes"/>
      <point x="114" y="33"/>
      <point x="96" y="90"/>
      <point x="96" y="174" type="curve" smooth="yes"/>
      <point x="96" y="204"/>
      <point x="98" y="235"/>
      <point x="102" y="267" type="curve" smooth="yes"/>
      <point x="117" y="385"/>
      <point x="156" y="490"/>
      <point x="219" y="490" type="curve" smooth="yes"/>
      <point x="260" y="490"/>
      <point x="286" y="465"/>
      <point x="311" y="399" type="curve"/>
      <point x="326" y="427" type="line"/>
      <point x="304" y="485"/>
      <point x="267" y="528"/>
      <point x="214" y="528" type="curve" smooth="yes"/>
      <point x="82" y="528"/>
      <point x="17" y="343"/>
      <point x="17" y="188" type="curve" smooth="yes"/>
      <point x="17" y="70"/>
      <point x="62" y="-10"/>
    </contour>
    <contour>
      <point x="302" y="-10" type="curve" smooth="yes"/>
      <point x="330" y="-10"/>
      <point x="354" y="8"/>
      <point x="366" y="23" type="curve"/>
      <point x="371" y="55" type="line"/>
      <point x="362" y="46"/>
      <point x="347" y="31"/>
      <point x="330" y="31" type="curve" smooth="yes"/>
      <point x="315" y="31"/>
      <point x="308" y="41"/>
      <point x="308" y="66" type="curve" smooth="yes"/>
      <point x="308" y="75"/>
      <point x="309" y="85"/>
      <point x="311" y="96" type="curve" smooth="yes"/>
      <point x="390" y="750" type="line"/>
      <point x="315" y="750" type="line"/>
      <point x="239" y="135" type="line"/>
      <point x="243" y="136" type="line"/>
      <point x="240" y="116"/>
      <point x="239" y="99"/>
      <point x="239" y="83" type="curve" smooth="yes"/>
      <point x="239" y="18"/>
      <point x="263" y="-10"/>
    </contour>
    <contour>
      <point x="25" y="-159" type="line"/>
      <point x="334" y="-159" type="line"/>
      <point x="339" y="-126" type="line"/>
      <point x="30" y="-126" type="line"/>
    </contour>
    <contour>
      <point x="168" y="608" type="line"/>
      <point x="433" y="608" type="line"/>
      <point x="438" y="641" type="line"/>
      <point x="172" y="641" type="line"/>
    </contour>
  </outline>
</glyph>
<glyph name="Euro" format="2">
  <advance width="393"/>
  <unicode hex="20AC"/>
  <outline>
    <contour>
      <point x="284" y="720" type="curve" smooth="yes"/>
      <point x="149" y="720"/>
      <point x="49" y="552"/>
      <point x="49" y="279" type="curve" smooth="yes"/>
      <point x="49" y="71"/>
      <point x="126" y="-10"/>
      <point x="213" y="-10" type="curve" smooth="yes"/>
      <point x="289" y="-10"/>
      <point x="338" y="58"/>
      <point x="362" y="160" type="curve"/>
      <point x="341" y="175" type="line"/>
      <point x="324" y="107"/>
      <point x="287" y="23"/>
      <point x="221" y="23" type="curve" smooth="yes"/>
      <point x="171" y="23"/>
      <point x="129" y="73"/>
      <point x="129" y="271" type="curve" smooth="yes"/>
      <point x="129" y="328"/>
      <point x="131" y="380"/>
      <point x="139" y="429" type="curve" smooth="yes"/>
      <point x="161" y="601"/>
      <point x="213" y="689"/>
      <point x="284" y="689" type="curve" smooth="yes"/>
      <point x="325" y="689"/>
      <point x="353" y="664"/>
      <point x="360" y="633" type="curve"/>
      <point x="366" y="663"/>
      <point x="358" y="679"/>
      <point x="333" y="687" type="curve"/>
      <point x="319" y="575" type="line"/>
      <point x="391" y="575" type="line"/>
      <point x="404" y="671" type="line"/>
      <point x="389" y="690"/>
      <point x="352" y="720"/>
    </contour>
    <contour>
      <point x="19" y="439" type="line"/>
      <point x="15" y="406" type="line"/>
      <point x="290" y="406" type="line"/>
      <point x="294" y="439" type="line"/>
    </contour>
    <contour>
      <point x="1" y="286" type="line"/>
      <point x="-3" y="252" type="line"/>
      <point x="238" y="252" type="line"/>
      <point x="241" y="286" type="line"/>
    </contour>
  </outline>
</glyph>
<glyph name="kip" format="2">
  <advance width="393"/>
  <unicode hex="20AD"/>
  <outline>
    <contour>
      <point x="36" y="390" type="line"/>
      <point x="32" y="357" type="line"/>
      <point x="372" y="357" type="line"/>
      <point x="376" y="390" type="line"/>
    </contour>
    <contour>
      <point x="-12" y="0" type="line"/>
      <point x="152" y="0" type="line"/>
      <point x="157" y="31" type="line"/>
      <point x="151" y="31" type="line" smooth="yes"/>
      <point x="133" y="31"/>
      <point x="111" y="34"/>
      <point x="112" y="40" type="curve" smooth="yes"/>
      <point x="189" y="669" type="line" smooth="yes"/>
      <point x="190" y="676"/>
      <point x="213" y="679"/>
      <point x="231" y="679" type="curve" smooth="yes"/>
      <point x="238" y="679" type="line"/>
      <point x="242" y="710" type="line"/>
      <point x="76" y="710" type="line"/>
      <point x="72" y="679" type="line"/>
      <point x="79" y="679" type="line" smooth="yes"/>
      <point x="99" y="679"/>
      <point x="113" y="672"/>
      <point x="110" y="644" type="curve" smooth="yes"/>
      <point x="38" y="66" type="line" smooth="yes"/>
      <point x="35" y="38"/>
      <point x="19" y="31"/>
      <point x="-1" y="31" type="curve" smooth="yes"/>
      <point x="-8" y="31" type="line"/>
    </contour>
    <contour>
      <point x="209" y="0" type="line"/>
      <point x="366" y="0" type="line"/>
      <point x="371" y="31" type="line"/>
      <point x="367" y="31" type="line" smooth="yes"/>
      <point x="349" y="31"/>
      <point x="337" y="36"/>
      <point x="331" y="63" type="curve" smooth="yes"/>
      <point x="253" y="376" type="line"/>
      <point x="223" y="369" type="line"/>
      <point x="371" y="648" type="line" smooth="yes"/>
      <point x="384" y="671"/>
      <point x="399" y="679"/>
      <point x="415" y="679" type="curve" smooth="yes"/>
      <point x="421" y="679" type="line"/>
      <point x="426" y="710" type="line"/>
      <point x="307" y="710" type="line"/>
      <point x="302" y="679" type="line"/>
      <point x="313" y="679" type="line" smooth="yes"/>
      <point x="329" y="679"/>
      <point x="348" y="674"/>
      <point x="348" y="668" type="curve"/>
      <point x="185" y="368" type="line"/>
      <point x="176" y="368" type="line"/>
      <point x="255" y="40" type="line"/>
      <point x="255" y="34"/>
      <point x="234" y="31"/>
      <point x="219" y="31" type="curve" smooth="yes"/>
      <point x="213" y="31" type="line"/>
    </contour>
  </outline>
</glyph>
<glyph name="cedi" format="2">
  <advance width="393"/>
  <unicode hex="20B5"/>
  <outline>
    <contour>
      <point x="260" y="670" type="curve" smooth="yes"/>
      <point x="311" y="670"/>
      <point x="348" y="638"/>
      <point x="360" y="604" type="curve"/>
      <point x="368" y="633"/>
      <point x="356" y="651"/>
      <point x="334" y="656" type="curve"/>
      <point x="319" y="534" type="line"/>
      <point x="388" y="534" type="line"/>
      <point x="401" y="630" type="line"/>
      <point x="388" y="656"/>
      <point x="330" y="701"/>
      <point x="258" y="701" type="curve" smooth="yes"/>
      <point x="103" y="701"/>
      <point x="18" y="504"/>
      <point x="18" y="305" type="curve" smooth="yes"/>
      <point x="18" y="104"/>
      <point x="104" y="9"/>
      <point x="200" y="9" type="curve" smooth="yes"/>
      <point x="282" y="9"/>
      <point x="341" y="88"/>
      <point x="374" y="218" type="curve"/>
      <point x="354" y="234" type="line"/>
      <point x="323" y="110"/>
      <point x="271" y="41"/>
      <point x="206" y="41" type="curve" smooth="yes"/>
      <point x="135" y="41"/>
      <point x="97" y="118"/>
      <point x="97" y="291" type="curve" smooth="yes"/>
      <point x="97" y="339"/>
      <point x="100" y="386"/>
      <point x="108" y="430" type="curve" smooth="yes"/>
      <point x="127" y="567"/>
      <point x="174" y="670"/>
    </contour>
    <contour>
      <point x="257" y="790" type="line"/>
      <point x="245" y="686" type="line"/>
      <point x="244" y="675" type="line"/>
      <point x="164" y="37" type="line"/>
      <point x="163" y="26" type="line"/>
      <point x="145" y="-120" type="line"/>
      <point x="174" y="-120" type="line"/>
      <point x="192" y="25" type="line"/>
      <point x="192" y="36" type="line"/>
      <point x="272" y="677" type="line"/>
      <point x="273" y="684" type="line"/>
      <point x="286" y="790" type="line"/>
    </contour>
  </outline>
</glyph>
<glyph name="manat" format="2">
  <advance width="393"/>
  <unicode hex="20BC"/>
  <outline>
    <contour>
      <point x="239" y="720" type="line"/>
      <point x="167" y="136" type="line"/>
      <point x="197" y="136" type="line"/>
      <point x="269" y="720" type="line"/>
    </contour>
    <contour>
      <point x="234" y="583" type="curve" smooth="yes"/>
      <point x="106" y="583"/>
      <point x="25" y="371"/>
      <point x="-17" y="0" type="curve"/>
      <point x="59" y="0" type="line"/>
      <point x="104" y="395"/>
      <point x="148" y="552"/>
      <point x="233" y="552" type="curve" smooth="yes"/>
      <point x="317" y="552"/>
      <point x="323" y="388"/>
      <point x="272" y="0" type="curve"/>
      <point x="348" y="0" type="line"/>
      <point x="391" y="358"/>
      <point x="359" y="583"/>
    </contour>
  </outline>
</glyph>
<glyph name="ruble" format="2">
  <advance width="393"/>
  <unicode hex="20BD"/>
  <outline>
    <contour>
      <point x="268" y="188" type="line"/>
      <point x="15" y="188" type="line"/>
      <point x="19" y="221" type="line"/>
      <point x="273" y="221" type="line"/>
    </contour>
    <contour>
      <point x="38" y="374" type="line"/>
      <point x="213" y="374" type="line" smooth="yes"/>
      <point x="282" y="374"/>
      <point x="323" y="426"/>
      <point x="333" y="506" type="curve" smooth="yes"/>
      <point x="336" y="520"/>
      <point x="336" y="534"/>
      <point x="336" y="547" type="curve" smooth="yes"/>
      <point x="336" y="631"/>
      <point x="306" y="677"/>
      <point x="244" y="677" type="curve" smooth="yes"/>
      <point x="209" y="677" type="line"/>
      <point x="132" y="55" type="line"/>
      <point x="131" y="35"/>
      <point x="160" y="31"/>
      <point x="183" y="31" type="curve" smooth="yes"/>
      <point x="195" y="31" type="line"/>
      <point x="191" y="0" type="line"/>
      <point x="-9" y="0" type="line"/>
      <point x="-6" y="31" type="line"/>
      <point x="-1" y="31" type="line" smooth="yes"/>
      <point x="24" y="31"/>
      <point x="51" y="38"/>
      <point x="54" y="64" type="curve" smooth="yes"/>
      <point x="126" y="645" type="line" smooth="yes"/>
      <point x="129" y="671"/>
      <point x="104" y="679"/>
      <point x="79" y="679" type="curve" smooth="yes"/>
      <point x="75" y="679" type="line"/>
      <point x="78" y="710" type="line"/>
      <point x="246" y="710" type="line" smooth="yes"/>
      <point x="354" y="710"/>
      <point x="415" y="648"/>
      <point x="415" y="540" type="curve" smooth="yes"/>
      <point x="415" y="427"/>
      <point x="340" y="341"/>
      <point x="213" y="341" type="curve" smooth="yes"/>
      <point x="33" y="341" type="line"/>
    </contour>
  </outline>
</glyph>
<glyph name="litre" format="2">
  <advance width="365"/>
  <unicode hex="2113"/>
  <outline>
    <contour>
      <point x="164" y="240" type="curve" smooth="yes"/>
      <point x="164" y="584"/>
      <point x="195" y="687"/>
      <point x="239" y="687" type="curve" smooth="yes"/>
      <point x="262" y="687"/>
      <point x="270" y="650"/>
      <point x="270" y="582" type="curve" smooth="yes"/>
      <point x="270" y="397"/>
      <point x="188" y="297"/>
      <point x="19" y="229" type="curve"/>
      <point x="25" y="200" type="line"/>
      <point x="198" y="271"/>
      <point x="325" y="408"/>
      <point x="325" y="576" type="curve" smooth="yes"/>
      <point x="325" y="655"/>
      <point x="299" y="720"/>
      <point x="241" y="720" type="curve" smooth="yes"/>
      <point x="151" y="720"/>
      <point x="91" y="584"/>
      <point x="91" y="240" type="curve" smooth="yes"/>
      <point x="91" y="53"/>
      <point x="135" y="-10"/>
      <point x="209" y="-10" type="curve" smooth="yes"/>
      <point x="269" y="-10"/>
      <point x="305" y="59"/>
      <point x="323" y="132" type="curve"/>
      <point x="301" y="145" type="line"/>
      <point x="284" y="73"/>
      <point x="257" y="24"/>
      <point x="218" y="24" type="curve" smooth="yes"/>
      <point x="182" y="24"/>
      <point x="164" y="58"/>
    </contour>
  </outline>
</glyph>
<glyph name="numero" format="2">
  <advance width="831"/>
  <unicode hex="2116"/>
  <outline>
    <contour>
      <point x="553" y="238" type="line"/>
      <point x="793" y="238" type="line"/>
      <point x="788" y="202" type="line"/>
      <point x="548" y="202" type="line"/>
    </contour>
    <component base="N"/>
    <component base="ordmasculine" xOffset="516"/>
  </outline>
</glyph>
<glyph name="servicemark" format="2">
  <advance width="585"/>
  <unicode hex="2120"/>
  <outline>
    <contour>
      <point x="270" y="394" type="line"/>
      <point x="339" y="394" type="line"/>
      <point x="342" y="413" type="line"/>
      <point x="340" y="413" type="line" smooth="yes"/>
      <point x="333" y="413"/>
      <point x="320" y="416"/>
      <point x="321" y="418" type="curve" smooth="yes"/>
      <point x="356" y="702" type="line"/>
      <point x="351" y="701" type="line"/>
      <point x="380" y="393" type="line"/>
      <point x="417" y="393" type="line"/>
      <point x="525" y="701" type="line"/>
      <point x="519" y="701" type="line"/>
      <point x="485" y="418" type="line" smooth="yes"/>
      <point x="484" y="416"/>
      <point x="473" y="413"/>
      <point x="465" y="413" type="curve" smooth="yes"/>
      <point x="463" y="413" type="line"/>
      <point x="459" y="394" type="line"/>
      <point x="558" y="394" type="line"/>
      <point x="561" y="413" type="line"/>
      <point x="556" y="413" type="line" smooth="yes"/>
      <point x="543" y="413"/>
      <point x="534" y="417"/>
      <point x="536" y="430" type="curve" smooth="yes"/>
      <point x="566" y="674" type="line" smooth="yes"/>
      <point x="567" y="688"/>
      <point x="577" y="690"/>
      <point x="590" y="690" type="curve" smooth="yes"/>
      <point x="595" y="690" type="line"/>
      <point x="597" y="710" type="line"/>
      <point x="506" y="710" type="line"/>
      <point x="415" y="439" type="line"/>
      <point x="422" y="438" type="line"/>
      <point x="400" y="710" type="line"/>
      <point x="310" y="710" type="line"/>
      <point x="308" y="690" type="line"/>
      <point x="312" y="690" type="line" smooth="yes"/>
      <point x="324" y="690"/>
      <point x="334" y="688"/>
      <point x="332" y="674" type="curve" smooth="yes"/>
      <point x="303" y="430" type="line" smooth="yes"/>
      <point x="301" y="417"/>
      <point x="290" y="413"/>
      <point x="278" y="413" type="curve"/>
      <point x="274" y="413" type="line"/>
    </contour>
    <contour>
      <point x="94" y="633" type="curve" smooth="yes"/>
      <point x="94" y="580"/>
      <point x="122" y="553"/>
      <point x="155" y="533" type="curve" smooth="yes"/>
      <point x="196" y="509"/>
      <point x="212" y="491"/>
      <point x="212" y="466" type="curve" smooth="yes"/>
      <point x="212" y="434"/>
      <point x="198" y="409"/>
      <point x="170" y="409" type="curve" smooth="yes"/>
      <point x="129" y="409"/>
      <point x="104" y="439"/>
      <point x="91" y="494" type="curve"/>
      <point x="76" y="494" type="line"/>
      <point x="63" y="390" type="line"/>
      <point x="78" y="390" type="line"/>
      <point x="92" y="458" type="line"/>
      <point x="83" y="458" type="line"/>
      <point x="96" y="415"/>
      <point x="127" y="385"/>
      <point x="171" y="385" type="curve" smooth="yes"/>
      <point x="223" y="385"/>
      <point x="252" y="428"/>
      <point x="252" y="482" type="curve" smooth="yes"/>
      <point x="252" y="531"/>
      <point x="230" y="558"/>
      <point x="181" y="589" type="curve" smooth="yes"/>
      <point x="157" y="604"/>
      <point x="132" y="612"/>
      <point x="132" y="652" type="curve" smooth="yes"/>
      <point x="132" y="678"/>
      <point x="146" y="696"/>
      <point x="173" y="696" type="curve" smooth="yes"/>
      <point x="206" y="696"/>
      <point x="227" y="673"/>
      <point x="236" y="628" type="curve"/>
      <point x="251" y="628" type="line"/>
      <point x="263" y="716" type="line"/>
      <point x="247" y="716" type="line"/>
      <point x="236" y="655" type="line"/>
      <point x="245" y="651" type="line"/>
      <point x="237" y="698"/>
      <point x="209" y="720"/>
      <point x="170" y="720" type="curve" smooth="yes"/>
      <point x="124" y="720"/>
      <point x="94" y="687"/>
    </contour>
  </outline>
</glyph>
<glyph name="estimated" format="2">
  <advance width="590"/>
  <unicode hex="212E"/>
  <outline>
    <contour>
      <point x="131" y="131" type="line"/>
      <point x="171" y="58"/>
      <point x="230" y="25"/>
      <point x="298" y="25" type="curve" smooth="yes"/>
      <point x="403" y="25"/>
      <point x="481" y="106"/>
      <point x="519" y="236" type="curve"/>
      <point x="547" y="236" type="line"/>
      <point x="511" y="98"/>
      <point x="421" y="-10"/>
      <point x="298" y="-10" type="curve" smooth="yes"/>
      <point x="151" y="-10"/>
      <point x="38" y="150"/>
      <point x="38" y="355" type="curve" smooth="yes"/>
      <point x="38" y="560"/>
      <point x="151" y="720"/>
      <point x="298" y="720" type="curve" smooth="yes"/>
      <point x="445" y="720"/>
      <point x="558" y="560"/>
      <point x="558" y="355" type="curve"/>
      <point x="101" y="355" type="line"/>
      <point x="101" y="390" type="line"/>
      <point x="465" y="390" type="line"/>
      <point x="465" y="581" type="line"/>
      <point x="425" y="650"/>
      <point x="366" y="685"/>
      <point x="298" y="685" type="curve" smooth="yes"/>
      <point x="230" y="685"/>
      <point x="170" y="648"/>
      <point x="131" y="580" type="curve"/>
    </contour>
  </outline>
</glyph>
<glyph name="emptyset" format="2">
  <advance width="490"/>
  <unicode hex="2205"/>
  <outline>
    <contour>
      <point x="233" y="24" type="curve" smooth="yes"/>
      <point x="148" y="24"/>
      <point x="74" y="114"/>
      <point x="74" y="256" type="curve" smooth="yes"/>
      <point x="74" y="410"/>
      <point x="156" y="524"/>
      <point x="257" y="524" type="curve" smooth="yes"/>
      <point x="342" y="524"/>
      <point x="415" y="435"/>
      <point x="415" y="292" type="curve" smooth="yes"/>
      <point x="415" y="139"/>
      <point x="334" y="24"/>
    </contour>
    <contour>
      <point x="231" y="-10" type="curve" smooth="yes"/>
      <point x="349" y="-10"/>
      <point x="443" y="124"/>
      <point x="443" y="292" type="curve" smooth="yes"/>
      <point x="443" y="454"/>
      <point x="355" y="558"/>
      <point x="259" y="558" type="curve" smooth="yes"/>
      <point x="139" y="558"/>
      <point x="45" y="428"/>
      <point x="45" y="256" type="curve" smooth="yes"/>
      <point x="45" y="95"/>
      <point x="135" y="-10"/>
    </contour>
    <contour>
      <point x="11" y="-40" type="line"/>
      <point x="497" y="560" type="line"/>
      <point x="481" y="586" type="line"/>
      <point x="-5" y="-15" type="line"/>
    </contour>
  </outline>
</glyph>
<glyph name="product" format="2">
  <advance width="506"/>
  <unicode hex="220F"/>
  <outline>
    <contour>
      <point x="258" y="679" type="line"/>
      <point x="240" y="679"/>
      <point x="224" y="679"/>
      <point x="206" y="679" type="curve"/>
      <point x="100" y="-182" type="line"/>
      <point x="99" y="-189"/>
      <point x="127" y="-192"/>
      <point x="148" y="-192" type="curve" smooth="yes"/>
      <point x="155" y="-192" type="line"/>
      <point x="151" y="-223" type="line"/>
      <point x="-42" y="-223" type="line"/>
      <point x="-38" y="-192" type="line"/>
      <point x="-34" y="-192" type="line" smooth="yes"/>
      <point x="-6" y="-192"/>
      <point x="19" y="-185"/>
      <point x="23" y="-156" type="curve" smooth="yes"/>
      <point x="122" y="643" type="line" smooth="yes"/>
      <point x="126" y="672"/>
      <point x="102" y="679"/>
      <point x="74" y="679" type="curve" smooth="yes"/>
      <point x="70" y="679" type="line"/>
      <point x="73" y="710" type="line"/>
      <point x="531" y="710" type="line"/>
      <point x="527" y="679" type="line"/>
      <point x="522" y="679" type="line" smooth="yes"/>
      <point x="495" y="679"/>
      <point x="469" y="672"/>
      <point x="466" y="643" type="curve" smooth="yes"/>
      <point x="366" y="-156" type="line" smooth="yes"/>
      <point x="363" y="-185"/>
      <point x="386" y="-192"/>
      <point x="414" y="-192" type="curve" smooth="yes"/>
      <point x="419" y="-192" type="line"/>
      <point x="416" y="-223" type="line"/>
      <point x="223" y="-223" type="line"/>
      <point x="226" y="-192" type="line"/>
      <point x="233" y="-192" type="line" smooth="yes"/>
      <point x="254" y="-192"/>
      <point x="283" y="-189"/>
      <point x="283" y="-182" type="curve" smooth="yes"/>
      <point x="390" y="679" type="line"/>
      <point x="372" y="679"/>
      <point x="356" y="679"/>
      <point x="338" y="679" type="curve"/>
    </contour>
  </outline>
</glyph>
<glyph name="summation" format="2">
  <advance width="415"/>
  <unicode hex="2211"/>
  <outline>
    <contour>
      <point x="-39" y="-223" type="line"/>
      <point x="-29" y="-142" type="line"/>
      <point x="218" y="265" type="line"/>
      <point x="203" y="209" type="line"/>
      <point x="65" y="629" type="line"/>
      <point x="76" y="710" type="line"/>
      <point x="426" y="710" type="line"/>
      <point x="399" y="495" type="line"/>
      <point x="375" y="495" type="line"/>
      <point x="374" y="588" type="line" smooth="yes"/>
      <point x="374" y="626"/>
      <point x="359" y="634"/>
      <point x="294" y="634" type="curve" smooth="yes"/>
      <point x="110" y="634" type="line"/>
      <point x="130" y="687" type="line"/>
      <point x="260" y="278" type="line"/>
      <point x="257" y="253" type="line"/>
      <point x="-7" y="-171" type="line"/>
      <point x="-6" y="-147" type="line"/>
      <point x="214" y="-147" type="line" smooth="yes"/>
      <point x="283" y="-147"/>
      <point x="299" y="-140"/>
      <point x="310" y="-101" type="curve" smooth="yes"/>
      <point x="338" y="6" type="line"/>
      <point x="362" y="6" type="line"/>
      <point x="332" y="-223" type="line"/>
    </contour>
  </outline>
</glyph>
<glyph name="infinity" format="2">
  <advance width="545"/>
  <unicode hex="221E"/>
  <outline>
    <contour>
      <point x="243" y="336" type="curve" smooth="yes"/>
      <point x="222" y="442"/>
      <point x="195" y="484"/>
      <point x="146" y="484" type="curve" smooth="yes"/>
      <point x="90" y="484"/>
      <point x="63" y="418"/>
      <point x="63" y="347" type="curve" smooth="yes"/>
      <point x="63" y="271"/>
      <point x="94" y="221"/>
      <point x="144" y="221" type="curve" smooth="yes"/>
      <point x="199" y="221"/>
      <point x="236" y="273"/>
      <point x="258" y="341" type="curve"/>
      <point x="273" y="339" type="line"/>
      <point x="245" y="232"/>
      <point x="199" y="153"/>
      <point x="141" y="153" type="curve" smooth="yes"/>
      <point x="81" y="153"/>
      <point x="36" y="225"/>
      <point x="36" y="338" type="curve" smooth="yes"/>
      <point x="36" y="464"/>
      <point x="95" y="556"/>
      <point x="175" y="556" type="curve" smooth="yes"/>
      <point x="261" y="556"/>
      <point x="288" y="475"/>
      <point x="310" y="375" type="curve" smooth="yes"/>
      <point x="334" y="260"/>
      <point x="358" y="225"/>
      <point x="405" y="225" type="curve" smooth="yes"/>
      <point x="455" y="225"/>
      <point x="490" y="287"/>
      <point x="490" y="368" type="curve" smooth="yes"/>
      <point x="490" y="443"/>
      <point x="459" y="488"/>
      <point x="408" y="488" type="curve" smooth="yes"/>
      <point x="357" y="488"/>
      <point x="316" y="436"/>
      <point x="293" y="367" type="curve"/>
      <point x="280" y="370" type="line"/>
      <point x="312" y="489"/>
      <point x="358" y="556"/>
      <point x="417" y="556" type="curve" smooth="yes"/>
      <point x="481" y="556"/>
      <point x="517" y="476"/>
      <point x="517" y="379" type="curve" smooth="yes"/>
      <point x="517" y="244"/>
      <point x="460" y="153"/>
      <point x="383" y="153" type="curve" smooth="yes"/>
      <point x="302" y="153"/>
      <point x="266" y="220"/>
    </contour>
  </outline>
</glyph>
<glyph name="integral" format="2">
  <advance width="390"/>
  <unicode hex="222B"/>
  <outline>
    <contour>
      <point x="252" y="571" type="line" smooth="yes"/>
      <point x="263" y="673"/>
      <point x="285" y="705"/>
      <point x="317" y="705" type="curve" smooth="yes"/>
      <point x="340" y="705"/>
      <point x="356" y="689"/>
      <point x="362" y="657" type="curve"/>
      <point x="378" y="674"/>
      <point x="367" y="703"/>
      <point x="346" y="702" type="curve"/>
      <point x="336" y="617" type="line"/>
      <point x="399" y="617" type="line"/>
      <point x="408" y="695" type="line"/>
      <point x="399" y="712"/>
      <point x="369" y="738"/>
      <point x="322" y="738" type="curve" smooth="yes"/>
      <point x="248" y="738"/>
      <point x="186" y="685"/>
      <point x="173" y="567" type="curve" smooth="yes"/>
      <point x="106" y="-67" type="line" smooth="yes"/>
      <point x="95" y="-170"/>
      <point x="76" y="-203"/>
      <point x="38" y="-203" type="curve" smooth="yes"/>
      <point x="15" y="-203"/>
      <point x="2" y="-189"/>
      <point x="-5" y="-159" type="curve"/>
      <point x="-20" y="-175"/>
      <point x="-10" y="-202"/>
      <point x="12" y="-201" type="curve"/>
      <point x="23" y="-117" type="line"/>
      <point x="-41" y="-117" type="line"/>
      <point x="-51" y="-193" type="line"/>
      <point x="-40" y="-212"/>
      <point x="-8" y="-236"/>
      <point x="35" y="-236" type="curve" smooth="yes"/>
      <point x="110" y="-236"/>
      <point x="172" y="-184"/>
      <point x="184" y="-65" type="curve" smooth="yes"/>
    </contour>
  </outline>
</glyph>
<glyph name="approxequal" format="2">
  <advance width="393"/>
  <unicode hex="2248"/>
  <outline>
    <contour>
      <point x="259" y="163" type="curve" smooth="yes"/>
      <point x="212" y="163"/>
      <point x="184" y="246"/>
      <point x="129" y="246" type="curve" smooth="yes"/>
      <point x="79" y="246"/>
      <point x="54" y="191"/>
      <point x="46" y="124" type="curve"/>
      <point x="68" y="114" type="line"/>
      <point x="74" y="157"/>
      <point x="85" y="207"/>
      <point x="122" y="207" type="curve" smooth="yes"/>
      <point x="165" y="207"/>
      <point x="199" y="124"/>
      <point x="250" y="124" type="curve" smooth="yes"/>
      <point x="300" y="124"/>
      <point x="324" y="182"/>
      <point x="337" y="243" type="curve"/>
      <point x="313" y="253" type="line"/>
      <point x="305" y="215"/>
      <point x="291" y="163"/>
    </contour>
    <contour>
      <point x="276" y="372" type="curve" smooth="yes"/>
      <point x="229" y="372"/>
      <point x="201" y="455"/>
      <point x="146" y="455" type="curve" smooth="yes"/>
      <point x="96" y="455"/>
      <point x="71" y="400"/>
      <point x="62" y="333" type="curve"/>
      <point x="85" y="323" type="line"/>
      <point x="91" y="366"/>
      <point x="102" y="416"/>
      <point x="139" y="416" type="curve" smooth="yes"/>
      <point x="181" y="416"/>
      <point x="216" y="333"/>
      <point x="266" y="333" type="curve" smooth="yes"/>
      <point x="316" y="333"/>
      <point x="340" y="391"/>
      <point x="354" y="452" type="curve"/>
      <point x="330" y="462" type="line"/>
      <point x="322" y="424"/>
      <point x="308" y="372"/>
    </contour>
  </outline>
</glyph>
<glyph name="hook" format="2">
  <advance width="359"/>
  <unicode hex="2440"/>
  <anchor x="162" y="517" name="_top"/>
  <outline>
    <contour>
      <point x="82" y="706" type="line"/>
      <point x="90" y="757"/>
      <point x="117" y="789"/>
      <point x="173" y="789" type="curve" smooth="yes"/>
      <point x="227" y="789"/>
      <point x="256" y="757"/>
      <point x="256" y="708" type="curve" smooth="yes"/>
      <point x="256" y="659"/>
      <point x="221" y="617"/>
      <point x="151" y="609" type="curve"/>
      <point x="166" y="634" type="line"/>
      <point x="159" y="578" type="line"/>
      <point x="131" y="578" type="line"/>
      <point x="138" y="632" type="line"/>
      <point x="179" y="639"/>
      <point x="200" y="659"/>
      <point x="200" y="706" type="curve" smooth="yes"/>
      <point x="200" y="738"/>
      <point x="190" y="758"/>
      <point x="167" y="758" type="curve" smooth="yes"/>
      <point x="143" y="758"/>
      <point x="132" y="736"/>
      <point x="127" y="706" type="curve"/>
    </contour>
  </outline>
</glyph>
<glyph name="uni25B4" format="2">
  <advance width="453"/>
  <unicode hex="25B4"/>
  <outline>
    <contour>
      <point x="39" y="91" type="line"/>
      <point x="415" y="91" type="line"/>
      <point x="226" y="464" type="line"/>
    </contour>
  </outline>
</glyph>
<glyph name="uni25B8" format="2">
  <advance width="402"/>
  <unicode hex="25B8"/>
  <outline>
    <contour>
      <point x="92" y="10" type="line"/>
      <point x="353" y="277" type="line"/>
      <point x="92" y="545" type="line"/>
    </contour>
  </outline>
</glyph>
<glyph name="uni25BF" format="2">
  <advance width="439"/>
  <unicode hex="25BF"/>
  <outline>
    <contour>
      <point x="407" y="464" type="line"/>
      <point x="31" y="464" type="line"/>
      <point x="219" y="91" type="line"/>
    </contour>
    <contour>
      <point x="348" y="414" type="line"/>
      <point x="343" y="430" type="line"/>
      <point x="216" y="175" type="line"/>
      <point x="224" y="175" type="line"/>
      <point x="96" y="430" type="line"/>
      <point x="92" y="414" type="line"/>
    </contour>
  </outline>
</glyph>
<glyph name="lozenge" format="2">
  <advance width="438"/>
  <unicode hex="25CA"/>
  <outline>
    <contour>
      <point x="196" y="19" type="line"/>
      <point x="60" y="369" type="line"/>
      <point x="57" y="334" type="line"/>
      <point x="279" y="683" type="line"/>
      <point x="254" y="691" type="line"/>
      <point x="391" y="341" type="line"/>
      <point x="394" y="376" type="line"/>
      <point x="172" y="27" type="line"/>
    </contour>
    <contour>
      <point x="168" y="0" type="line"/>
      <point x="195" y="0" type="line"/>
      <point x="415" y="342" type="line"/>
      <point x="417" y="369" type="line"/>
      <point x="283" y="710" type="line"/>
      <point x="256" y="710" type="line"/>
      <point x="37" y="369" type="line"/>
      <point x="33" y="342" type="line"/>
    </contour>
  </outline>
</glyph>
<glyph name="four.den" format="2">
  <advance width="235"/>
  <unicode hex="E406"/>
  <outline>
    <contour>
      <point x="-20" y="84" type="line"/>
      <point x="194" y="84" type="line"/>
      <point x="201" y="138" type="line"/>
      <point x="6" y="138" type="line"/>
      <point x="6" y="118" type="line"/>
      <point x="138" y="312" type="line"/>
      <point x="161" y="343" type="line"/>
      <point x="134" y="343" type="line"/>
      <point x="-15" y="123" type="line"/>
    </contour>
    <contour>
      <point x="145" y="0" type="line"/>
      <point x="188" y="343" type="line"/>
      <point x="143" y="343" type="line"/>
      <point x="125" y="311" type="line"/>
      <point x="87" y="0" type="line"/>
    </contour>
  </outline>
</glyph>
<glyph name="five.den" format="2">
  <advance width="230"/>
  <unicode hex="E407"/>
  <outline>
    <contour>
      <point x="81" y="-6" type="curve" smooth="yes"/>
      <point x="30" y="-6"/>
      <point x="5" y="25"/>
      <point x="-9" y="77" type="curve"/>
      <point x="8" y="90" type="line"/>
      <point x="19" y="47"/>
      <point x="36" y="20"/>
      <point x="72" y="20" type="curve" smooth="yes"/>
      <point x="109" y="20"/>
      <point x="125" y="66"/>
      <point x="125" y="117" type="curve" smooth="yes"/>
      <point x="125" y="161"/>
      <point x="113" y="196"/>
      <point x="84" y="196" type="curve" smooth="yes"/>
      <point x="64" y="196"/>
      <point x="45" y="177"/>
      <point x="33" y="145" type="curve"/>
      <point x="18" y="145" type="line"/>
      <point x="43" y="343" type="line"/>
      <point x="192" y="343" type="line"/>
      <point x="178" y="284" type="line"/>
      <point x="45" y="284" type="line"/>
      <point x="56" y="303" type="line"/>
      <point x="39" y="172" type="line"/>
      <point x="38" y="172"/>
      <point x="35" y="171"/>
      <point x="34" y="173" type="curve"/>
      <point x="48" y="202"/>
      <point x="71" y="222"/>
      <point x="104" y="222" type="curve" smooth="yes"/>
      <point x="153" y="222"/>
      <point x="186" y="176"/>
      <point x="186" y="116" type="curve" smooth="yes"/>
      <point x="186" y="45"/>
      <point x="144" y="-6"/>
    </contour>
  </outline>
</glyph>
<glyph name="seven.den" format="2">
  <advance width="232"/>
  <unicode hex="E409"/>
  <outline>
    <contour>
      <point x="95" y="286" type="line" smooth="yes"/>
      <point x="61" y="286"/>
      <point x="51" y="282"/>
      <point x="45" y="259" type="curve" smooth="yes"/>
      <point x="35" y="210" type="line"/>
      <point x="16" y="210" type="line"/>
      <point x="33" y="343" type="line"/>
      <point x="221" y="343" type="line"/>
      <point x="214" y="298" type="line"/>
      <point x="153" y="216"/>
      <point x="116" y="136"/>
      <point x="105" y="0" type="curve"/>
      <point x="44" y="0" type="line"/>
      <point x="64" y="130"/>
      <point x="154" y="258"/>
      <point x="196" y="299" type="curve"/>
      <point x="195" y="286" type="line"/>
    </contour>
  </outline>
</glyph>
<glyph name="eight.den" format="2">
  <advance width="236"/>
  <unicode hex="E40A"/>
  <outline>
    <contour>
      <point x="94" y="-6" type="curve" smooth="yes"/>
      <point x="160" y="-6"/>
      <point x="199" y="40"/>
      <point x="199" y="95" type="curve" smooth="yes"/>
      <point x="199" y="159"/>
      <point x="157" y="190"/>
      <point x="96" y="190" type="curve" smooth="yes"/>
      <point x="28" y="190"/>
      <point x="-9" y="153"/>
      <point x="-9" y="94" type="curve" smooth="yes"/>
      <point x="-9" y="35"/>
      <point x="32" y="-6"/>
    </contour>
    <contour>
      <point x="116" y="176" type="curve" smooth="yes"/>
      <point x="174" y="176"/>
      <point x="206" y="211"/>
      <point x="206" y="260" type="curve" smooth="yes"/>
      <point x="206" y="311"/>
      <point x="172" y="349"/>
      <point x="116" y="349" type="curve" smooth="yes"/>
      <point x="57" y="349"/>
      <point x="22" y="309"/>
      <point x="22" y="261" type="curve" smooth="yes"/>
      <point x="22" y="208"/>
      <point x="56" y="176"/>
    </contour>
    <contour>
      <point x="112" y="194" type="curve" smooth="yes"/>
      <point x="90" y="194"/>
      <point x="80" y="218"/>
      <point x="80" y="248" type="curve" smooth="yes"/>
      <point x="80" y="266"/>
      <point x="82" y="282"/>
      <point x="87" y="294" type="curve" smooth="yes"/>
      <point x="93" y="314"/>
      <point x="105" y="323"/>
      <point x="117" y="323" type="curve" smooth="yes"/>
      <point x="140" y="323"/>
      <point x="148" y="300"/>
      <point x="148" y="270" type="curve" smooth="yes"/>
      <point x="148" y="251"/>
      <point x="146" y="236"/>
      <point x="141" y="223" type="curve" smooth="yes"/>
      <point x="135" y="204"/>
      <point x="124" y="194"/>
    </contour>
    <contour>
      <point x="99" y="169" type="curve" smooth="yes"/>
      <point x="121" y="169"/>
      <point x="138" y="151"/>
      <point x="138" y="109" type="curve" smooth="yes"/>
      <point x="138" y="95"/>
      <point x="137" y="77"/>
      <point x="133" y="63" type="curve" smooth="yes"/>
      <point x="126" y="37"/>
      <point x="111" y="20"/>
      <point x="92" y="20" type="curve" smooth="yes"/>
      <point x="67" y="20"/>
      <point x="51" y="37"/>
      <point x="51" y="80" type="curve" smooth="yes"/>
      <point x="51" y="94"/>
      <point x="53" y="112"/>
      <point x="57" y="125" type="curve" smooth="yes"/>
      <point x="63" y="152"/>
      <point x="77" y="169"/>
    </contour>
  </outline>
</glyph>
<glyph name="nine.den" format="2">
  <advance width="235"/>
  <unicode hex="E40B"/>
  <outline>
    <contour>
      <point x="106" y="349" type="curve" smooth="yes"/>
      <point x="168" y="349"/>
      <point x="203" y="292"/>
      <point x="203" y="213" type="curve" smooth="yes"/>
      <point x="203" y="96"/>
      <point x="129" y="-15"/>
      <point x="4" y="-19" type="curve"/>
      <point x="4" y="4" type="line"/>
      <point x="107" y="14"/>
      <point x="144" y="102"/>
      <point x="144" y="229" type="curve" smooth="yes"/>
      <point x="144" y="282"/>
      <point x="131" y="323"/>
      <point x="106" y="323" type="curve" smooth="yes"/>
      <point x="74" y="323"/>
      <point x="61" y="272"/>
      <point x="61" y="224" type="curve" smooth="yes"/>
      <point x="61" y="175"/>
      <point x="73" y="147"/>
      <point x="96" y="147" type="curve" smooth="yes"/>
      <point x="120" y="147"/>
      <point x="138" y="174"/>
      <point x="151" y="216" type="curve"/>
      <point x="151" y="191" type="line"/>
      <point x="142" y="154"/>
      <point x="116" y="120"/>
      <point x="77" y="120" type="curve" smooth="yes"/>
      <point x="30" y="120"/>
      <point x="0" y="162"/>
      <point x="0" y="226" type="curve" smooth="yes"/>
      <point x="0" y="292"/>
      <point x="38" y="349"/>
    </contour>
  </outline>
</glyph>
<glyph name="f_f" format="2">
  <advance width="468"/>
  <unicode hex="FB00"/>
  <outline>
    <contour>
      <point x="38" y="518" type="line"/>
      <point x="34" y="486" type="line"/>
      <point x="259" y="486" type="line"/>
      <point x="264" y="518" type="line"/>
    </contour>
    <contour>
      <point x="265" y="715" type="curve" smooth="yes"/>
      <point x="282" y="715"/>
      <point x="295" y="710"/>
      <point x="303" y="705" type="curve"/>
      <point x="307" y="738" type="line"/>
      <point x="298" y="743"/>
      <point x="281" y="748"/>
      <point x="261" y="748" type="curve" smooth="yes"/>
      <point x="182" y="748"/>
      <point x="115" y="692"/>
      <point x="103" y="569" type="curve" smooth="yes"/>
      <point x="25" y="-223" type="line"/>
      <point x="90" y="-223" type="line"/>
      <point x="185" y="587" type="line" smooth="yes"/>
      <point x="195" y="677"/>
      <point x="215" y="715"/>
    </contour>
    <contour>
      <point x="251" y="518" type="line"/>
      <point x="247" y="486" type="line"/>
      <point x="475" y="486" type="line"/>
      <point x="479" y="518" type="line"/>
    </contour>
    <contour>
      <point x="477" y="725" type="curve" smooth="yes"/>
      <point x="500" y="725"/>
      <point x="520" y="713"/>
      <point x="534" y="696" type="curve"/>
      <point x="540" y="738" type="line"/>
      <point x="520" y="752"/>
      <point x="499" y="758"/>
      <point x="475" y="758" type="curve" smooth="yes"/>
      <point x="395" y="758"/>
      <point x="330" y="695"/>
      <point x="317" y="584" type="curve" smooth="yes"/>
      <point x="238" y="-193" type="line"/>
      <point x="304" y="-193" type="line"/>
      <point x="396" y="585" type="line" smooth="yes"/>
      <point x="408" y="682"/>
      <point x="431" y="725"/>
    </contour>
  </outline>
</glyph>
<glyph name="f_f_i" format="2">
  <advance width="635"/>
  <unicode hex="FB03"/>
  <outline>
    <contour>
      <point x="38" y="518" type="line"/>
      <point x="34" y="486" type="line"/>
      <point x="259" y="486" type="line"/>
      <point x="264" y="518" type="line"/>
    </contour>
    <contour>
      <point x="265" y="715" type="curve" smooth="yes"/>
      <point x="282" y="715"/>
      <point x="295" y="710"/>
      <point x="303" y="705" type="curve"/>
      <point x="307" y="738" type="line"/>
      <point x="298" y="743"/>
      <point x="281" y="748"/>
      <point x="261" y="748" type="curve" smooth="yes"/>
      <point x="182" y="748"/>
      <point x="115" y="692"/>
      <point x="103" y="569" type="curve" smooth="yes"/>
      <point x="25" y="-223" type="line"/>
      <point x="90" y="-223" type="line"/>
      <point x="185" y="587" type="line" smooth="yes"/>
      <point x="195" y="677"/>
      <point x="215" y="715"/>
    </contour>
    <contour>
      <point x="585" y="638" type="curve" smooth="yes"/>
      <point x="615" y="638"/>
      <point x="634" y="662"/>
      <point x="634" y="701" type="curve" smooth="yes"/>
      <point x="634" y="739"/>
      <point x="615" y="763"/>
      <point x="585" y="763" type="curve" smooth="yes"/>
      <point x="556" y="763"/>
      <point x="535" y="739"/>
      <point x="535" y="701" type="curve" smooth="yes"/>
      <point x="535" y="662"/>
      <point x="556" y="638"/>
    </contour>
    <contour>
      <point x="251" y="518" type="line"/>
      <point x="247" y="486" type="line"/>
      <point x="453" y="486" type="line" smooth="yes"/>
      <point x="499" y="486"/>
      <point x="515" y="470"/>
      <point x="512" y="441" type="curve"/>
      <point x="474" y="124" type="line" smooth="yes"/>
      <point x="472" y="109"/>
      <point x="470" y="96"/>
      <point x="470" y="84" type="curve" smooth="yes"/>
      <point x="470" y="20"/>
      <point x="499" y="-10"/>
      <point x="543" y="-10" type="curve" smooth="yes"/>
      <point x="573" y="-10"/>
      <point x="600" y="10"/>
      <point x="613" y="28" type="curve"/>
      <point x="619" y="60" type="line"/>
      <point x="607" y="49"/>
      <point x="589" y="31"/>
      <point x="569" y="31" type="curve" smooth="yes"/>
      <point x="553" y="31"/>
      <point x="546" y="41"/>
      <point x="546" y="67" type="curve" smooth="yes"/>
      <point x="546" y="75"/>
      <point x="546" y="86"/>
      <point x="549" y="97" type="curve" smooth="yes"/>
      <point x="600" y="518" type="line"/>
    </contour>
    <contour>
      <point x="467" y="725" type="curve" smooth="yes"/>
      <point x="480" y="725"/>
      <point x="490" y="721"/>
      <point x="498" y="716" type="curve"/>
      <point x="503" y="751" type="line"/>
      <point x="495" y="755"/>
      <point x="476" y="758"/>
      <point x="460" y="758" type="curve" smooth="yes"/>
      <point x="393" y="758"/>
      <point x="331" y="706"/>
      <point x="320" y="607" type="curve" smooth="yes"/>
      <point x="238" y="-193" type="line"/>
      <point x="304" y="-193" type="line"/>
      <point x="400" y="608" type="line" smooth="yes"/>
      <point x="409" y="690"/>
      <point x="427" y="725"/>
    </contour>
  </outline>
</glyph>
<glyph name="AE.alt" format="2">
  <advance width="682"/>
  <outline>
    <contour>
      <point x="147" y="286" type="line"/>
      <point x="132" y="252" type="line"/>
      <point x="340" y="252" type="line"/>
      <point x="343" y="286" type="line"/>
    </contour>
    <contour>
      <point x="-38" y="0" type="line"/>
      <point x="100" y="0" type="line"/>
      <point x="104" y="31" type="line"/>
      <point x="86" y="31" type="line" smooth="yes"/>
      <point x="52" y="31"/>
      <point x="47" y="41"/>
      <point x="47" y="53" type="curve"/>
      <point x="374" y="667" type="line"/>
      <point x="374" y="667" type="line"/>
      <point x="300" y="64" type="line" smooth="yes"/>
      <point x="297" y="38"/>
      <point x="271" y="31"/>
      <point x="244" y="31" type="curve" smooth="yes"/>
      <point x="240" y="31" type="line"/>
      <point x="235" y="0" type="line"/>
      <point x="607" y="0" type="line"/>
      <point x="633" y="206" type="line"/>
      <point x="608" y="206" type="line"/>
      <point x="579" y="93" type="line" smooth="yes"/>
      <point x="568" y="49"/>
      <point x="545" y="35"/>
      <point x="485" y="35" type="curve" smooth="yes"/>
      <point x="380" y="35" type="line"/>
      <point x="459" y="675" type="line"/>
      <point x="547" y="675" type="line" smooth="yes"/>
      <point x="604" y="675"/>
      <point x="625" y="661"/>
      <point x="626" y="620" type="curve"/>
      <point x="629" y="529" type="line"/>
      <point x="653" y="529" type="line"/>
      <point x="674" y="710" type="line"/>
      <point x="263" y="710" type="line"/>
      <point x="259" y="681" type="line"/>
      <point x="268" y="681" type="line" smooth="yes"/>
      <point x="305" y="681"/>
      <point x="338" y="676"/>
      <point x="336" y="657" type="curve"/>
      <point x="28" y="89" type="line"/>
      <point x="7" y="50"/>
      <point x="-8" y="31"/>
      <point x="-29" y="31" type="curve" smooth="yes"/>
      <point x="-34" y="31" type="line"/>
    </contour>
    <contour>
      <point x="399" y="380" type="line"/>
      <point x="395" y="346" type="line"/>
      <point x="510" y="346" type="line" smooth="yes"/>
      <point x="534" y="346"/>
      <point x="536" y="316"/>
      <point x="531" y="278" type="curve" smooth="yes"/>
      <point x="530" y="272" type="line"/>
      <point x="554" y="272" type="line"/>
      <point x="577" y="454" type="line"/>
      <point x="554" y="454" type="line"/>
      <point x="553" y="448" type="line" smooth="yes"/>
      <point x="548" y="415"/>
      <point x="540" y="380"/>
      <point x="517" y="380" type="curve" smooth="yes"/>
    </contour>
  </outline>
</glyph>
<glyph name="Euro.proportional" format="2">
  <advance width="483"/>
  <outline>
    <contour>
      <point x="274" y="-10" type="curve" smooth="yes"/>
      <point x="369" y="-10"/>
      <point x="429" y="77"/>
      <point x="459" y="203" type="curve"/>
      <point x="437" y="219" type="line"/>
      <point x="416" y="132"/>
      <point x="367" y="24"/>
      <point x="282" y="24" type="curve" smooth="yes"/>
      <point x="218" y="24"/>
      <point x="164" y="90"/>
      <point x="164" y="300" type="curve" smooth="yes"/>
      <point x="164" y="346"/>
      <point x="166" y="387"/>
      <point x="172" y="425" type="curve" smooth="yes"/>
      <point x="191" y="596"/>
      <point x="253" y="689"/>
      <point x="336" y="689" type="curve" smooth="yes"/>
      <point x="391" y="689"/>
      <point x="428" y="660"/>
      <point x="437" y="622" type="curve"/>
      <point x="443" y="651"/>
      <point x="435" y="668"/>
      <point x="411" y="677" type="curve"/>
      <point x="395" y="539" type="line"/>
      <point x="466" y="539" type="line"/>
      <point x="480" y="660" type="line"/>
      <point x="462" y="684"/>
      <point x="418" y="720"/>
      <point x="335" y="720" type="curve" smooth="yes"/>
      <point x="194" y="720"/>
      <point x="80" y="566"/>
      <point x="80" y="308" type="curve" smooth="yes"/>
      <point x="80" y="89"/>
      <point x="175" y="-10"/>
    </contour>
    <contour>
      <point x="18" y="285" type="line"/>
      <point x="14" y="252" type="line"/>
      <point x="272" y="252" type="line"/>
      <point x="276" y="285" type="line"/>
    </contour>
    <contour>
      <point x="36" y="439" type="line"/>
      <point x="33" y="406" type="line"/>
      <point x="323" y="406" type="line"/>
      <point x="328" y="439" type="line"/>
    </contour>
  </outline>
</glyph>
<glyph name="acute.pl" format="2">
  <advance width="351"/>
  <anchor x="138" y="489" name="_top"/>
  <outline>
    <contour>
      <point x="159" y="699" type="curve" smooth="yes"/>
      <point x="142" y="588" type="line"/>
      <point x="141" y="575" type="line"/>
      <point x="159" y="575" type="line"/>
      <point x="203" y="653" type="line" smooth="yes"/>
      <point x="225" y="683"/>
      <point x="234" y="707"/>
      <point x="234" y="732" type="curve" smooth="yes"/>
      <point x="234" y="756"/>
      <point x="221" y="771"/>
      <point x="204" y="771" type="curve" smooth="yes"/>
      <point x="178" y="771"/>
      <point x="167" y="748"/>
    </contour>
  </outline>
</glyph>
<glyph name="blackcircle" format="2">
  <advance width="415"/>
  <outline>
    <contour>
      <point x="208" y="80" type="curve" smooth="yes"/>
      <point x="296" y="80"/>
      <point x="366" y="177"/>
      <point x="366" y="304" type="curve" smooth="yes"/>
      <point x="366" y="431"/>
      <point x="296" y="528"/>
      <point x="208" y="528" type="curve" smooth="yes"/>
      <point x="120" y="528"/>
      <point x="50" y="431"/>
      <point x="50" y="304" type="curve" smooth="yes"/>
      <point x="50" y="177"/>
      <point x="120" y="80"/>
    </contour>
  </outline>
</glyph>
<glyph name="braceleft.uc" format="2">
  <advance width="227"/>
  <outline>
    <contour>
      <point x="18" y="65" type="curve" smooth="yes"/>
      <point x="18" y="-20"/>
      <point x="70" y="-60"/>
      <point x="166" y="-62" type="curve"/>
      <point x="167" y="-62"/>
      <point x="169" y="-62"/>
      <point x="171" y="-62" type="curve"/>
      <point x="176" y="-35" type="line"/>
      <point x="176" y="-35"/>
      <point x="177" y="-35"/>
      <point x="176" y="-35" type="curve"/>
      <point x="105" y="-30"/>
      <point x="78" y="0"/>
      <point x="78" y="64" type="curve" smooth="yes"/>
      <point x="78" y="148"/>
      <point x="160" y="248"/>
      <point x="160" y="289" type="curve" smooth="yes"/>
      <point x="160" y="318"/>
      <point x="142" y="332"/>
      <point x="66" y="358" type="curve"/>
      <point x="66" y="363" type="line"/>
      <point x="163" y="382"/>
      <point x="175" y="394"/>
      <point x="175" y="427" type="curve" smooth="yes"/>
      <point x="175" y="459"/>
      <point x="144" y="561"/>
      <point x="144" y="621" type="curve" smooth="yes"/>
      <point x="144" y="688"/>
      <point x="171" y="728"/>
      <point x="254" y="734" type="curve"/>
      <point x="255" y="734"/>
      <point x="256" y="734"/>
      <point x="256" y="734" type="curve"/>
      <point x="254" y="761" type="line"/>
      <point x="251" y="762"/>
      <point x="248" y="762"/>
      <point x="246" y="762" type="curve"/>
      <point x="147" y="760"/>
      <point x="83" y="717"/>
      <point x="83" y="624" type="curve" smooth="yes"/>
      <point x="83" y="560"/>
      <point x="117" y="479"/>
      <point x="141" y="395" type="curve"/>
      <point x="148" y="420" type="line"/>
      <point x="32" y="377" type="line"/>
      <point x="29" y="351" type="line"/>
      <point x="136" y="289" type="line"/>
      <point x="134" y="314" type="line"/>
      <point x="83" y="226"/>
      <point x="18" y="149"/>
    </contour>
  </outline>
</glyph>
<glyph name="breve.uc" format="2">
  <advance width="351"/>
  <anchor x="162" y="694" name="_top"/>
  <outline>
    <contour>
      <point x="201" y="759" type="curve" smooth="yes"/>
      <point x="147" y="759"/>
      <point x="113" y="808"/>
      <point x="113" y="886" type="curve" smooth="yes"/>
      <point x="113" y="891"/>
      <point x="114" y="895"/>
      <point x="114" y="900" type="curve"/>
      <point x="136" y="900" type="line"/>
      <point x="139" y="849"/>
      <point x="162" y="831"/>
      <point x="209" y="831" type="curve" smooth="yes"/>
      <point x="249" y="831"/>
      <point x="274" y="855"/>
      <point x="283" y="900" type="curve"/>
      <point x="306" y="900" type="line"/>
      <point x="297" y="807"/>
      <point x="257" y="759"/>
    </contour>
  </outline>
</glyph>
<glyph name="breve_hook" format="2">
  <advance width="358"/>
  <anchor x="163" y="525" name="_top"/>
  <outline>
    <contour>
      <point x="140" y="839" type="line"/>
      <point x="148" y="881"/>
      <point x="174" y="911"/>
      <point x="218" y="911" type="curve" smooth="yes"/>
      <point x="267" y="911"/>
      <point x="289" y="886"/>
      <point x="289" y="847" type="curve" smooth="yes"/>
      <point x="289" y="806"/>
      <point x="257" y="771"/>
      <point x="199" y="765" type="curve"/>
      <point x="215" y="782" type="line"/>
      <point x="210" y="740" type="line"/>
      <point x="184" y="740" type="line"/>
      <point x="189" y="785" type="line"/>
      <point x="226" y="790"/>
      <point x="238" y="815"/>
      <point x="238" y="842" type="curve" smooth="yes"/>
      <point x="238" y="864"/>
      <point x="230" y="880"/>
      <point x="214" y="880" type="curve" smooth="yes"/>
      <point x="192" y="880"/>
      <point x="182" y="861"/>
      <point x="178" y="839" type="curve"/>
    </contour>
    <contour>
      <point x="111" y="747" type="curve"/>
      <point x="133" y="747" type="line"/>
      <point x="135" y="692"/>
      <point x="150" y="657"/>
      <point x="200" y="657" type="curve" smooth="yes"/>
      <point x="247" y="657"/>
      <point x="267" y="686"/>
      <point x="278" y="747" type="curve"/>
      <point x="300" y="747" type="line"/>
      <point x="291" y="629"/>
      <point x="249" y="588"/>
      <point x="196" y="588" type="curve" smooth="yes"/>
      <point x="140" y="588"/>
      <point x="108" y="640"/>
      <point x="109" y="721" type="curve" smooth="yes"/>
      <point x="109" y="729"/>
      <point x="110" y="741"/>
    </contour>
  </outline>
</glyph>
<glyph name="breve_tilde" format="2">
  <advance width="351"/>
  <anchor x="162" y="524" name="_top"/>
  <outline>
    <contour>
      <point x="246" y="778" type="curve" smooth="yes"/>
      <point x="279" y="778"/>
      <point x="302" y="814"/>
      <point x="316" y="888" type="curve"/>
      <point x="297" y="900" type="line"/>
      <point x="288" y="862"/>
      <point x="278" y="838"/>
      <point x="260" y="838" type="curve" smooth="yes"/>
      <point x="233" y="838"/>
      <point x="210" y="901"/>
      <point x="174" y="901" type="curve" smooth="yes"/>
      <point x="137" y="901"/>
      <point x="115" y="865"/>
      <point x="102" y="791" type="curve"/>
      <point x="120" y="780" type="line"/>
      <point x="128" y="820"/>
      <point x="140" y="841"/>
      <point x="157" y="841" type="curve" smooth="yes"/>
      <point x="181" y="841"/>
      <point x="206" y="778"/>
    </contour>
    <contour>
      <point x="190" y="588" type="curve" smooth="yes"/>
      <point x="241" y="588"/>
      <point x="281" y="625"/>
      <point x="292" y="731" type="curve"/>
      <point x="270" y="731" type="line"/>
      <point x="259" y="681"/>
      <point x="238" y="657"/>
      <point x="194" y="657" type="curve" smooth="yes"/>
      <point x="147" y="657"/>
      <point x="130" y="685"/>
      <point x="127" y="731" type="curve"/>
      <point x="105" y="731" type="line"/>
      <point x="104" y="727"/>
      <point x="104" y="724"/>
      <point x="104" y="720" type="curve" smooth="yes"/>
      <point x="104" y="639"/>
      <point x="134" y="588"/>
    </contour>
  </outline>
</glyph>
<glyph name="breve_tilde.uc" format="2">
  <advance width="351"/>
  <anchor x="203" y="694" name="_top"/>
  <outline>
    <contour>
      <point x="131" y="977" type="curve" smooth="yes"/>
      <point x="158" y="977"/>
      <point x="182" y="924"/>
      <point x="223" y="924" type="curve" smooth="yes"/>
      <point x="259" y="924"/>
      <point x="281" y="959"/>
      <point x="294" y="1018" type="curve"/>
      <point x="274" y="1031" type="line"/>
      <point x="267" y="1002"/>
      <point x="258" y="984"/>
      <point x="241" y="984" type="curve" smooth="yes"/>
      <point x="209" y="984"/>
      <point x="186" y="1036"/>
      <point x="149" y="1036" type="curve" smooth="yes"/>
      <point x="110" y="1036"/>
      <point x="90" y="1005"/>
      <point x="79" y="943" type="curve"/>
      <point x="100" y="931" type="line"/>
      <point x="105" y="961"/>
      <point x="115" y="977"/>
    </contour>
    <contour>
      <point x="170" y="759" type="curve" smooth="yes"/>
      <point x="116" y="759"/>
      <point x="83" y="798"/>
      <point x="83" y="869" type="curve" smooth="yes"/>
      <point x="83" y="873"/>
      <point x="83" y="876"/>
      <point x="83" y="880" type="curve"/>
      <point x="106" y="880" type="line"/>
      <point x="108" y="841"/>
      <point x="130" y="828"/>
      <point x="177" y="828" type="curve" smooth="yes"/>
      <point x="216" y="828"/>
      <point x="242" y="845"/>
      <point x="249" y="880" type="curve"/>
      <point x="272" y="880" type="line"/>
      <point x="264" y="801"/>
      <point x="225" y="759"/>
    </contour>
  </outline>
</glyph>
<glyph name="brokenbar.uc" format="2">
  <advance width="153"/>
  <outline>
    <contour>
      <point x="64" y="750" type="line"/>
      <point x="64" y="424" type="line"/>
      <point x="94" y="424" type="line"/>
      <point x="94" y="750" type="line"/>
    </contour>
    <contour>
      <point x="64" y="285" type="line"/>
      <point x="64" y="-40" type="line"/>
      <point x="94" y="-40" type="line"/>
      <point x="94" y="285" type="line"/>
    </contour>
  </outline>
</glyph>
